<svg width="21" height="21" viewBox="0 0 21 21" fill="none" xmlns="http://www.w3.org/2000/svg">
<path d="M0.333374 10.3332C0.333374 4.81031 4.81053 0.33316 10.3334 0.33316C15.8562 0.33316 20.3334 4.81031 20.3334 10.3332C20.3334 15.856 15.8562 20.3332 10.3334 20.3332C4.81053 20.3332 0.333374 15.856 0.333374 10.3332Z" fill="#075E54"/>
<g clip-path="url(#clip0_4009_4978)">
<path d="M13.4553 5.45798H15.1093L11.4958 9.58798L15.7468 15.208H12.4183L9.81133 11.7995L6.82833 15.208H5.17333L9.03833 10.7905L4.96033 5.45798H8.37333L10.7298 8.57348L13.4553 5.45798ZM12.8748 14.218H13.7913L7.87533 6.39598H6.89183L12.8748 14.218Z" fill="white"/>
</g>
<defs>
<clipPath id="clip0_4009_4978">
<rect width="12" height="12" fill="white" transform="translate(4.33337 4.33298)"/>
</clipPath>
</defs>
</svg>
