<svg width="259" height="389" viewBox="0 0 259 389" fill="none" xmlns="http://www.w3.org/2000/svg">
<g clip-path="url(#clip0_4009_5249)">
<path d="M-37.2239 353.904H264.038" stroke="white" stroke-linecap="round" stroke-linejoin="round" stroke-dasharray="1 4"/>
<path d="M-37.2239 314.197H264.038" stroke="white" stroke-linecap="round" stroke-linejoin="round" stroke-dasharray="1 4"/>
<path d="M-37.2239 274.49H264.038" stroke="white" stroke-linecap="round" stroke-linejoin="round" stroke-dasharray="1 4"/>
<path d="M-37.2239 234.782H264.038" stroke="white" stroke-linecap="round" stroke-linejoin="round" stroke-dasharray="1 4"/>
<path d="M-37.2239 195.075H264.038" stroke="white" stroke-linecap="round" stroke-linejoin="round" stroke-dasharray="1 4"/>
<path d="M-37.2239 155.368H264.038" stroke="white" stroke-linecap="round" stroke-linejoin="round" stroke-dasharray="1 4"/>
<path d="M-37.2219 353.904H264.04" stroke="white" stroke-linecap="round" stroke-linejoin="round" stroke-dasharray="1 4"/>
<path d="M-37.2219 314.197H264.04" stroke="white" stroke-linecap="round" stroke-linejoin="round" stroke-dasharray="1 4"/>
<path d="M-37.2219 274.49H264.04" stroke="white" stroke-linecap="round" stroke-linejoin="round" stroke-dasharray="1 4"/>
<path d="M-37.2219 234.782H264.04" stroke="white" stroke-linecap="round" stroke-linejoin="round" stroke-dasharray="1 4"/>
<path d="M-37.2219 195.075H264.04" stroke="white" stroke-linecap="round" stroke-linejoin="round" stroke-dasharray="1 4"/>
<path d="M-37.2219 155.368H264.04" stroke="white" stroke-linecap="round" stroke-linejoin="round" stroke-dasharray="1 4"/>
<path d="M80.2546 320.113H23.2739C20.8361 320.113 18.8599 322.085 18.8599 324.517V340.53C18.8599 342.963 20.8361 344.934 23.2739 344.934H80.2546C82.6924 344.934 84.6686 342.963 84.6686 340.53V324.517C84.6686 322.085 82.6924 320.113 80.2546 320.113Z" fill="#075E54"/>
<path d="M80.2546 320.113H23.2739C20.8361 320.113 18.8599 322.085 18.8599 324.517V340.53C18.8599 342.963 20.8361 344.934 23.2739 344.934H80.2546C82.6924 344.934 84.6686 342.963 84.6686 340.53V324.517C84.6686 322.085 82.6924 320.113 80.2546 320.113Z" stroke="#FFFBFB"/>
<path d="M29.6941 327.72H27.5539C27.2701 327.72 26.998 327.832 26.7973 328.033C26.5966 328.233 26.4839 328.504 26.4839 328.787V330.922M29.6941 327.72H35.0444C35.3282 327.72 35.6003 327.832 35.801 328.033C36.0017 328.233 36.1144 328.504 36.1144 328.787V330.922M29.6941 327.72V337.328M26.4839 330.922V336.261C26.4839 336.543 26.5966 336.815 26.7973 337.015C26.998 337.216 27.2701 337.328 27.5539 337.328H29.6941M26.4839 330.922H36.1144M36.1144 330.922V336.261C36.1144 336.543 36.0017 336.815 35.801 337.015C35.6003 337.216 35.3282 337.328 35.0444 337.328H29.6941" stroke="white" stroke-linecap="round" stroke-linejoin="round"/>
<path d="M46.8943 335.464C47.6647 335.464 48.3388 334.887 48.3388 333.811C48.3388 332.745 47.6647 332.168 46.8943 332.168C46.1238 332.168 45.4497 332.745 45.4497 333.811C45.4497 334.887 46.1238 335.464 46.8943 335.464ZM46.8943 331.361C48.2811 331.361 49.2634 332.408 49.2634 333.811C49.2634 335.224 48.2811 336.271 46.8943 336.271C45.5075 336.271 44.5251 335.224 44.5251 333.811C44.5251 332.408 45.5075 331.361 46.8943 331.361ZM52.367 332.197C51.6351 332.197 50.9609 332.735 50.9609 333.811C50.9609 334.868 51.6254 335.435 52.3766 335.435C53.2434 335.435 53.5612 334.849 53.6671 334.484L54.4664 334.83C54.2449 335.493 53.5804 336.271 52.3766 336.271C51.0283 336.271 50.0364 335.214 50.0364 333.811C50.0364 332.37 51.0476 331.361 52.367 331.361C53.5997 331.361 54.2353 332.13 54.4279 332.831L53.6093 333.177C53.4938 332.725 53.1567 332.197 52.367 332.197ZM56.0689 333.34H58.6017C58.5825 332.677 58.1491 332.159 57.3305 332.159C56.5697 332.159 56.1074 332.745 56.0689 333.34ZM58.7365 334.541L59.5166 334.81C59.2566 335.627 58.515 336.271 57.4364 336.271C56.1941 336.271 55.1058 335.368 55.1058 333.802C55.1058 332.351 56.1556 331.361 57.3208 331.361C58.7462 331.361 59.5455 332.341 59.5455 333.782C59.5455 333.898 59.5359 334.013 59.5262 334.071H56.04C56.0593 334.897 56.6563 335.473 57.4364 335.473C58.1876 335.473 58.5632 335.06 58.7365 334.541ZM60.4122 334.887C60.4122 334.061 61.0189 333.6 61.8182 333.484L63.0702 333.302C63.3495 333.263 63.4265 333.119 63.4265 332.956C63.4265 332.504 63.128 332.13 62.425 332.13C61.7893 332.13 61.433 332.524 61.3752 333.062L60.5085 332.86C60.6048 331.976 61.4041 331.361 62.4057 331.361C63.7925 331.361 64.3318 332.149 64.3318 333.052V335.368C64.3318 335.771 64.3703 336.011 64.3896 336.127H63.5036C63.4843 336.011 63.4554 335.838 63.4554 335.502C63.2532 335.829 62.7909 336.271 61.9627 336.271C61.0189 336.271 60.4122 335.617 60.4122 334.887ZM62.0879 335.512C62.8294 335.512 63.4265 335.156 63.4265 334.147V333.936L62.0108 334.147C61.6256 334.205 61.3367 334.426 61.3367 334.839C61.3367 335.185 61.6256 335.512 62.0879 335.512ZM66.6473 333.456V336.127H65.742V331.505H66.6281V332.168C66.9651 331.592 67.5141 331.371 68.0534 331.371C69.1609 331.371 69.7098 332.168 69.7098 333.196V336.127H68.8046V333.35C68.8046 332.706 68.5349 332.187 67.7259 332.187C67.0133 332.187 66.6473 332.754 66.6473 333.456ZM70.7165 334.926L71.5351 334.637C71.5928 335.118 71.9588 335.502 72.6137 335.502C73.1241 335.502 73.4034 335.214 73.4034 334.887C73.4034 334.599 73.1915 334.378 72.8063 334.292L72.0166 334.119C71.2943 333.965 70.8609 333.475 70.8609 332.822C70.8609 332.034 71.6025 331.361 72.5077 331.361C73.779 331.361 74.1738 332.187 74.2701 332.601L73.4708 332.898C73.4323 332.658 73.2397 332.13 72.5077 332.13C72.0455 332.13 71.7373 332.428 71.7373 332.745C71.7373 333.023 71.9106 333.225 72.267 333.302L73.0182 333.465C73.856 333.648 74.299 334.157 74.299 334.839C74.299 335.493 73.7501 336.271 72.604 336.271C71.3328 336.271 70.7935 335.454 70.7165 334.926Z" fill="white"/>
<path d="M171.745 320.113H115.567C108.697 320.113 103.127 325.67 103.127 332.524C103.127 339.378 108.697 344.934 115.567 344.934H171.745C178.615 344.934 184.184 339.378 184.184 332.524C184.184 325.67 178.615 320.113 171.745 320.113Z" fill="#FFFBFB"/>
<path d="M171.745 320.113H115.567C108.697 320.113 103.127 325.67 103.127 332.524C103.127 339.378 108.697 344.934 115.567 344.934H171.745C178.615 344.934 184.184 339.378 184.184 332.524C184.184 325.67 178.615 320.113 171.745 320.113Z" stroke="#075E54"/>
<path d="M116.241 335.512C116.241 335.137 116.53 334.839 116.905 334.839C117.281 334.839 117.579 335.137 117.579 335.512C117.579 335.887 117.281 336.175 116.905 336.175C116.53 336.175 116.241 335.887 116.241 335.512ZM118.931 335.512C118.931 335.137 119.22 334.839 119.595 334.839C119.971 334.839 120.27 335.137 120.27 335.512C120.27 335.887 119.971 336.175 119.595 336.175C119.22 336.175 118.931 335.887 118.931 335.512ZM121.62 335.512C121.62 335.137 121.909 334.839 122.285 334.839C122.66 334.839 122.959 335.137 122.959 335.512C122.959 335.887 122.66 336.175 122.285 336.175C121.909 336.175 121.62 335.887 121.62 335.512ZM127.816 329.315L124.513 336.127H123.636L126.939 329.315H127.816ZM132.456 331.505L130.607 336.127H129.692L127.814 331.505H128.835L130.154 335.07L131.483 331.505H132.456ZM135.229 336.127H134.304V331.736H132.792V331.073C133.659 331.054 134.256 330.573 134.401 329.901H135.229V336.127ZM140.127 329.315L136.824 336.127H135.947L139.251 329.315H140.127Z" fill="white"/>
<path d="M143.2 335.464C143.97 335.464 144.644 334.887 144.644 333.811C144.644 332.745 143.97 332.168 143.2 332.168C142.429 332.168 141.755 332.745 141.755 333.811C141.755 334.887 142.429 335.464 143.2 335.464ZM143.2 331.361C144.586 331.361 145.569 332.408 145.569 333.811C145.569 335.224 144.586 336.271 143.2 336.271C141.813 336.271 140.831 335.224 140.831 333.811C140.831 332.408 141.813 331.361 143.2 331.361ZM148.672 332.197C147.94 332.197 147.266 332.735 147.266 333.811C147.266 334.868 147.931 335.435 148.682 335.435C149.549 335.435 149.866 334.849 149.972 334.484L150.772 334.83C150.55 335.493 149.886 336.271 148.682 336.271C147.334 336.271 146.342 335.214 146.342 333.811C146.342 332.37 147.353 331.361 148.672 331.361C149.905 331.361 150.541 332.13 150.733 332.831L149.915 333.177C149.799 332.725 149.462 332.197 148.672 332.197ZM152.374 333.34H154.907C154.888 332.677 154.455 332.159 153.636 332.159C152.875 332.159 152.413 332.745 152.374 333.34ZM155.042 334.541L155.822 334.81C155.562 335.627 154.821 336.271 153.742 336.271C152.5 336.271 151.411 335.368 151.411 333.802C151.411 332.351 152.461 331.361 153.626 331.361C155.052 331.361 155.851 332.341 155.851 333.782C155.851 333.898 155.841 334.013 155.832 334.071H152.345C152.365 334.897 152.962 335.473 153.742 335.473C154.493 335.473 154.869 335.06 155.042 334.541ZM156.718 334.887C156.718 334.061 157.324 333.6 158.124 333.484L159.376 333.302C159.655 333.263 159.732 333.119 159.732 332.956C159.732 332.504 159.434 332.13 158.731 332.13C158.095 332.13 157.739 332.524 157.681 333.062L156.814 332.86C156.91 331.976 157.71 331.361 158.711 331.361C160.098 331.361 160.637 332.149 160.637 333.052V335.368C160.637 335.771 160.676 336.011 160.695 336.127H159.809C159.79 336.011 159.761 335.838 159.761 335.502C159.559 335.829 159.096 336.271 158.268 336.271C157.324 336.271 156.718 335.617 156.718 334.887ZM158.393 335.512C159.135 335.512 159.732 335.156 159.732 334.147V333.936L158.316 334.147C157.931 334.205 157.642 334.426 157.642 334.839C157.642 335.185 157.931 335.512 158.393 335.512ZM162.953 333.456V336.127H162.047V331.505H162.933V332.168C163.271 331.592 163.819 331.371 164.359 331.371C165.466 331.371 166.015 332.168 166.015 333.196V336.127H165.11V333.35C165.11 332.706 164.84 332.187 164.031 332.187C163.319 332.187 162.953 332.754 162.953 333.456ZM167.022 334.926L167.84 334.637C167.898 335.118 168.264 335.502 168.919 335.502C169.429 335.502 169.709 335.214 169.709 334.887C169.709 334.599 169.497 334.378 169.111 334.292L168.322 334.119C167.599 333.965 167.166 333.475 167.166 332.822C167.166 332.034 167.908 331.361 168.813 331.361C170.084 331.361 170.479 332.187 170.575 332.601L169.776 332.898C169.737 332.658 169.545 332.13 168.813 332.13C168.351 332.13 168.042 332.428 168.042 332.745C168.042 333.023 168.216 333.225 168.572 333.302L169.323 333.465C170.161 333.648 170.604 334.157 170.604 334.839C170.604 335.493 170.055 336.271 168.909 336.271C167.638 336.271 167.099 335.454 167.022 334.926Z" fill="#075E54"/>
<path d="M113.159 285.684H23.2739C20.8361 285.684 18.8599 287.656 18.8599 290.088V306.102C18.8599 308.534 20.8361 310.505 23.2739 310.505H113.159C115.597 310.505 117.573 308.534 117.573 306.102V290.088C117.573 287.656 115.597 285.684 113.159 285.684Z" fill="#075E54"/>
<path d="M113.159 285.684H23.2739C20.8361 285.684 18.8599 287.656 18.8599 290.088V306.102C18.8599 308.534 20.8361 310.505 23.2739 310.505H113.159C115.597 310.505 117.573 308.534 117.573 306.102V290.088C117.573 287.656 115.597 285.684 113.159 285.684Z" stroke="#FFFBFB"/>
<path d="M29.6941 293.291H27.5539C27.2701 293.291 26.998 293.403 26.7973 293.604C26.5966 293.804 26.4839 294.075 26.4839 294.358V296.493M29.6941 293.291H35.0444C35.3282 293.291 35.6003 293.403 35.801 293.604C36.0017 293.804 36.1144 294.075 36.1144 294.358V296.493M29.6941 293.291V302.899M26.4839 296.493V301.831C26.4839 302.114 26.5966 302.385 26.7973 302.586C26.998 302.787 27.2701 302.899 27.5539 302.899H29.6941M26.4839 296.493H36.1144M36.1144 296.493V301.831C36.1144 302.114 36.0017 302.385 35.801 302.586C35.6003 302.787 35.3282 302.899 35.0444 302.899H29.6941" stroke="white" stroke-linecap="round" stroke-linejoin="round"/>
<path d="M46.8557 297.768C46.1238 297.768 45.4497 298.306 45.4497 299.382C45.4497 300.439 46.1142 301.006 46.8654 301.006C47.7321 301.006 48.0499 300.42 48.1559 300.055L48.9552 300.401C48.7337 301.064 48.0692 301.842 46.8654 301.842C45.5171 301.842 44.5251 300.785 44.5251 299.382C44.5251 297.941 45.5364 296.932 46.8557 296.932C48.0884 296.932 48.7241 297.701 48.9167 298.402L48.0981 298.748C47.9825 298.296 47.6454 297.768 46.8557 297.768ZM51.9541 301.035C52.7245 301.035 53.3986 300.458 53.3986 299.382C53.3986 298.316 52.7245 297.739 51.9541 297.739C51.1836 297.739 50.5095 298.316 50.5095 299.382C50.5095 300.458 51.1836 301.035 51.9541 301.035ZM51.9541 296.932C53.3409 296.932 54.3232 297.979 54.3232 299.382C54.3232 300.795 53.3409 301.842 51.9541 301.842C50.5673 301.842 49.585 300.795 49.585 299.382C49.585 297.979 50.5673 296.932 51.9541 296.932ZM58.4873 301.14C58.2369 301.621 57.659 301.842 57.1197 301.842C56.0411 301.842 55.3862 301.035 55.3862 299.987V297.076H56.2915V299.853C56.2915 300.487 56.5804 301.044 57.3412 301.044C58.0732 301.044 58.4391 300.564 58.4391 299.863V297.076H59.3444V300.843C59.3444 301.208 59.3733 301.534 59.3925 301.698H58.5258C58.5065 301.592 58.4873 301.333 58.4873 301.14ZM61.7945 299.027V301.698H60.8892V297.076H61.7752V297.739C62.1123 297.163 62.6612 296.942 63.2005 296.942C64.3081 296.942 64.857 297.739 64.857 298.767V301.698H63.9517V298.921C63.9517 298.277 63.6821 297.758 62.8731 297.758C62.1604 297.758 61.7945 298.325 61.7945 299.027ZM67.5104 295.616V297.076H68.5119V297.893H67.5104V300.295C67.5104 300.718 67.6837 300.929 68.1556 300.929C68.2712 300.929 68.4349 300.91 68.5119 300.891V301.659C68.4349 301.688 68.2038 301.746 67.8956 301.746C67.1059 301.746 66.6051 301.265 66.6051 300.429V297.893H65.7191V297.076H65.9695C66.4703 297.076 66.6821 296.769 66.6821 296.365V295.616H67.5104ZM72.1976 297.028V297.989C72.0628 297.97 71.928 297.96 71.8028 297.96C71.042 297.96 70.5316 298.364 70.5316 299.382V301.698H69.6263V297.076H70.5123V297.883C70.8494 297.172 71.4272 296.999 71.8991 296.999C72.0243 296.999 72.1495 297.019 72.1976 297.028ZM74.4592 303.629H73.4673L74.6229 301.188L72.6294 297.076H73.6695L75.1141 300.266L76.5009 297.076H77.4736L74.4592 303.629ZM82.1701 302.457H77.2389V301.698H82.1701V302.457ZM84.8418 297.768C84.1099 297.768 83.4358 298.306 83.4358 299.382C83.4358 300.439 84.1003 301.006 84.8514 301.006C85.7182 301.006 86.036 300.42 86.1419 300.055L86.9413 300.401C86.7198 301.064 86.0553 301.842 84.8514 301.842C83.5032 301.842 82.5112 300.785 82.5112 299.382C82.5112 297.941 83.5224 296.932 84.8418 296.932C86.0745 296.932 86.7101 297.701 86.9028 298.402L86.0842 298.748C85.9686 298.296 85.6315 297.768 84.8418 297.768ZM89.9404 301.035C90.7108 301.035 91.385 300.458 91.385 299.382C91.385 298.316 90.7108 297.739 89.9404 297.739C89.17 297.739 88.4958 298.316 88.4958 299.382C88.4958 300.458 89.17 301.035 89.9404 301.035ZM89.9404 296.932C91.3272 296.932 92.3095 297.979 92.3095 299.382C92.3095 300.795 91.3272 301.842 89.9404 301.842C88.5536 301.842 87.5713 300.795 87.5713 299.382C87.5713 297.979 88.5536 296.932 89.9404 296.932ZM94.0069 299.373C94.0069 300.324 94.4981 301.025 95.3648 301.025C96.193 301.025 96.7034 300.305 96.7034 299.353C96.7034 298.402 96.2027 297.749 95.3744 297.749C94.5462 297.749 94.0069 298.421 94.0069 299.373ZM96.7131 301.073V300.996C96.4916 301.438 96.0004 301.823 95.2781 301.823C93.9202 301.823 93.0824 300.747 93.0824 299.373C93.0824 298.066 93.9684 296.951 95.2781 296.951C96.0967 296.951 96.5397 297.355 96.6938 297.73V294.741H97.5895V300.843C97.5895 301.285 97.628 301.621 97.6376 301.698H96.7612C96.742 301.592 96.7131 301.352 96.7131 301.073ZM99.717 298.911H102.25C102.231 298.248 101.797 297.73 100.979 297.73C100.218 297.73 99.7555 298.316 99.717 298.911ZM102.385 300.112L103.165 300.381C102.905 301.198 102.163 301.842 101.085 301.842C99.8422 301.842 98.7539 300.939 98.7539 299.373C98.7539 297.922 99.8037 296.932 100.969 296.932C102.394 296.932 103.194 297.912 103.194 299.353C103.194 299.469 103.184 299.584 103.174 299.642H99.6881C99.7074 300.468 100.304 301.044 101.085 301.044C101.836 301.044 102.211 300.631 102.385 300.112ZM103.916 300.497L104.735 300.208C104.792 300.689 105.158 301.073 105.813 301.073C106.324 301.073 106.603 300.785 106.603 300.458C106.603 300.17 106.391 299.949 106.006 299.863L105.216 299.69C104.494 299.536 104.06 299.046 104.06 298.393C104.06 297.605 104.802 296.932 105.707 296.932C106.978 296.932 107.373 297.758 107.47 298.172L106.67 298.469C106.632 298.229 106.439 297.701 105.707 297.701C105.245 297.701 104.937 297.999 104.937 298.316C104.937 298.594 105.11 298.796 105.466 298.873L106.218 299.036C107.055 299.219 107.498 299.728 107.498 300.41C107.498 301.064 106.95 301.842 105.804 301.842C104.532 301.842 103.993 301.025 103.916 300.497Z" fill="white"/>
<path d="M237.553 285.684H148.471C141.601 285.684 136.031 291.241 136.031 298.095C136.031 304.949 141.601 310.505 148.471 310.505H237.553C244.424 310.505 249.993 304.949 249.993 298.095C249.993 291.241 244.424 285.684 237.553 285.684Z" fill="#FFFBFB"/>
<path d="M237.553 285.684H148.471C141.601 285.684 136.031 291.241 136.031 298.095C136.031 304.949 141.601 310.505 148.471 310.505H237.553C244.424 310.505 249.993 304.949 249.993 298.095C249.993 291.241 244.424 285.684 237.553 285.684Z" stroke="#075E54"/>
<path d="M149.145 301.083C149.145 300.708 149.434 300.41 149.81 300.41C150.185 300.41 150.484 300.708 150.484 301.083C150.484 301.458 150.185 301.746 149.81 301.746C149.434 301.746 149.145 301.458 149.145 301.083ZM151.835 301.083C151.835 300.708 152.124 300.41 152.5 300.41C152.875 300.41 153.174 300.708 153.174 301.083C153.174 301.458 152.875 301.746 152.5 301.746C152.124 301.746 151.835 301.458 151.835 301.083ZM154.524 301.083C154.524 300.708 154.813 300.41 155.189 300.41C155.565 300.41 155.863 300.708 155.863 301.083C155.863 301.458 155.565 301.746 155.189 301.746C154.813 301.746 154.524 301.458 154.524 301.083ZM160.72 294.886L157.417 301.698H156.54L159.844 294.886H160.72ZM165.36 297.076L163.511 301.698H162.596L160.719 297.076H161.739L163.059 300.641L164.388 297.076H165.36ZM168.133 301.698H167.209V297.307H165.697V296.644C166.563 296.625 167.161 296.144 167.305 295.472H168.133V301.698ZM173.031 294.886L169.728 301.698H168.852L172.155 294.886H173.031Z" fill="white"/>
<path d="M176.066 297.768C175.334 297.768 174.66 298.306 174.66 299.382C174.66 300.439 175.324 301.006 176.075 301.006C176.942 301.006 177.26 300.42 177.366 300.055L178.165 300.401C177.944 301.064 177.279 301.842 176.075 301.842C174.727 301.842 173.735 300.785 173.735 299.382C173.735 297.941 174.746 296.932 176.066 296.932C177.298 296.932 177.934 297.701 178.127 298.402L177.308 298.748C177.192 298.296 176.855 297.768 176.066 297.768ZM181.164 301.035C181.935 301.035 182.609 300.458 182.609 299.382C182.609 298.316 181.935 297.739 181.164 297.739C180.394 297.739 179.72 298.316 179.72 299.382C179.72 300.458 180.394 301.035 181.164 301.035ZM181.164 296.932C182.551 296.932 183.533 297.979 183.533 299.382C183.533 300.795 182.551 301.842 181.164 301.842C179.777 301.842 178.795 300.795 178.795 299.382C178.795 297.979 179.777 296.932 181.164 296.932ZM187.697 301.14C187.447 301.621 186.869 301.842 186.329 301.842C185.251 301.842 184.596 301.035 184.596 299.987V297.076H185.501V299.853C185.501 300.487 185.79 301.044 186.551 301.044C187.283 301.044 187.649 300.564 187.649 299.863V297.076H188.554V300.843C188.554 301.208 188.583 301.534 188.602 301.698H187.736C187.716 301.592 187.697 301.333 187.697 301.14ZM191.004 299.027V301.698H190.099V297.076H190.985V297.739C191.322 297.163 191.871 296.942 192.41 296.942C193.518 296.942 194.067 297.739 194.067 298.767V301.698H193.162V298.921C193.162 298.277 192.892 297.758 192.083 297.758C191.37 297.758 191.004 298.325 191.004 299.027ZM196.72 295.616V297.076H197.722V297.893H196.72V300.295C196.72 300.718 196.893 300.929 197.365 300.929C197.481 300.929 197.645 300.91 197.722 300.891V301.659C197.645 301.688 197.413 301.746 197.105 301.746C196.316 301.746 195.815 301.265 195.815 300.429V297.893H194.929V297.076H195.179C195.68 297.076 195.892 296.769 195.892 296.365V295.616H196.72ZM201.408 297.028V297.989C201.273 297.97 201.138 297.96 201.013 297.96C200.252 297.96 199.742 298.364 199.742 299.382V301.698H198.836V297.076H199.722V297.883C200.059 297.172 200.637 296.999 201.109 296.999C201.234 296.999 201.36 297.019 201.408 297.028ZM203.669 303.629H202.677L203.833 301.188L201.839 297.076H202.88L204.324 300.266L205.711 297.076H206.684L203.669 303.629ZM211.38 302.457H206.449V301.698H211.38V302.457ZM214.052 297.768C213.32 297.768 212.646 298.306 212.646 299.382C212.646 300.439 213.31 301.006 214.061 301.006C214.928 301.006 215.246 300.42 215.352 300.055L216.151 300.401C215.93 301.064 215.265 301.842 214.061 301.842C212.713 301.842 211.721 300.785 211.721 299.382C211.721 297.941 212.732 296.932 214.052 296.932C215.284 296.932 215.92 297.701 216.113 298.402L215.294 298.748C215.179 298.296 214.841 297.768 214.052 297.768ZM219.15 301.035C219.921 301.035 220.595 300.458 220.595 299.382C220.595 298.316 219.921 297.739 219.15 297.739C218.38 297.739 217.706 298.316 217.706 299.382C217.706 300.458 218.38 301.035 219.15 301.035ZM219.15 296.932C220.537 296.932 221.519 297.979 221.519 299.382C221.519 300.795 220.537 301.842 219.15 301.842C217.764 301.842 216.781 300.795 216.781 299.382C216.781 297.979 217.764 296.932 219.15 296.932ZM223.217 299.373C223.217 300.324 223.708 301.025 224.575 301.025C225.403 301.025 225.913 300.305 225.913 299.353C225.913 298.402 225.413 297.749 224.584 297.749C223.756 297.749 223.217 298.421 223.217 299.373ZM225.923 301.073V300.996C225.702 301.438 225.21 301.823 224.488 301.823C223.13 301.823 222.292 300.747 222.292 299.373C222.292 298.066 223.178 296.951 224.488 296.951C225.307 296.951 225.75 297.355 225.904 297.73V294.741H226.799V300.843C226.799 301.285 226.838 301.621 226.848 301.698H225.971C225.952 301.592 225.923 301.352 225.923 301.073ZM228.927 298.911H231.46C231.441 298.248 231.007 297.73 230.189 297.73C229.428 297.73 228.965 298.316 228.927 298.911ZM231.595 300.112L232.375 300.381C232.115 301.198 231.373 301.842 230.294 301.842C229.052 301.842 227.964 300.939 227.964 299.373C227.964 297.922 229.014 296.932 230.179 296.932C231.604 296.932 232.404 297.912 232.404 299.353C232.404 299.469 232.394 299.584 232.384 299.642H228.898C228.917 300.468 229.514 301.044 230.294 301.044C231.046 301.044 231.421 300.631 231.595 300.112ZM233.126 300.497L233.944 300.208C234.002 300.689 234.368 301.073 235.023 301.073C235.534 301.073 235.813 300.785 235.813 300.458C235.813 300.17 235.601 299.949 235.216 299.863L234.426 299.69C233.704 299.536 233.27 299.046 233.27 298.393C233.27 297.605 234.012 296.932 234.917 296.932C236.188 296.932 236.583 297.758 236.68 298.172L235.88 298.469C235.842 298.229 235.649 297.701 234.917 297.701C234.455 297.701 234.147 297.999 234.147 298.316C234.147 298.594 234.32 298.796 234.676 298.873L235.428 299.036C236.265 299.219 236.708 299.728 236.708 300.41C236.708 301.064 236.159 301.842 235.013 301.842C233.742 301.842 233.203 301.025 233.126 300.497Z" fill="#075E54"/>
<path d="M75.4393 251.255H23.2739C20.8361 251.255 18.8599 253.227 18.8599 255.659V271.672C18.8599 274.104 20.8361 276.076 23.2739 276.076H75.4393C77.8771 276.076 79.8533 274.104 79.8533 271.672V255.659C79.8533 253.227 77.8771 251.255 75.4393 251.255Z" fill="#075E54"/>
<path d="M75.4393 251.255H23.2739C20.8361 251.255 18.8599 253.227 18.8599 255.659V271.672C18.8599 274.104 20.8361 276.076 23.2739 276.076H75.4393C77.8771 276.076 79.8533 274.104 79.8533 271.672V255.659C79.8533 253.227 77.8771 251.255 75.4393 251.255Z" stroke="#FFFBFB"/>
<path d="M29.6941 258.862H27.5539C27.2701 258.862 26.998 258.974 26.7973 259.175C26.5966 259.375 26.4839 259.646 26.4839 259.929V262.064M29.6941 258.862H35.0444C35.3282 258.862 35.6003 258.974 35.801 259.175C36.0017 259.375 36.1144 259.646 36.1144 259.929V262.064M29.6941 258.862V268.47M26.4839 262.064V267.402C26.4839 267.685 26.5966 267.956 26.7973 268.157C26.998 268.358 27.2701 268.47 27.5539 268.47H29.6941M26.4839 262.064H36.1144M36.1144 262.064V267.402C36.1144 267.685 36.0017 267.956 35.801 268.157C35.6003 268.358 35.3282 268.47 35.0444 268.47H29.6941" stroke="white" stroke-linecap="round" stroke-linejoin="round"/>
<path d="M44.4771 266.068L45.2956 265.779C45.3534 266.26 45.7194 266.644 46.3743 266.644C46.8847 266.644 47.164 266.356 47.164 266.029C47.164 265.741 46.9521 265.52 46.5669 265.434L45.7772 265.261C45.0549 265.107 44.6215 264.617 44.6215 263.964C44.6215 263.176 45.3631 262.503 46.2683 262.503C47.5396 262.503 47.9344 263.329 48.0307 263.743L47.2314 264.04C47.1929 263.8 47.0003 263.272 46.2683 263.272C45.8061 263.272 45.4979 263.57 45.4979 263.887C45.4979 264.165 45.6712 264.367 46.0276 264.444L46.7788 264.607C47.6166 264.79 48.0596 265.299 48.0596 265.981C48.0596 266.635 47.5107 267.413 46.3646 267.413C45.0934 267.413 44.5541 266.596 44.4771 266.068ZM50.4783 261.187V262.647H51.4799V263.464H50.4783V265.866C50.4783 266.289 50.6517 266.5 51.1236 266.5C51.2391 266.5 51.4029 266.481 51.4799 266.462V267.23C51.4029 267.259 51.1717 267.317 50.8635 267.317C50.0738 267.317 49.5731 266.836 49.5731 266V263.464H48.687V262.647H48.9374C49.4382 262.647 49.6501 262.34 49.6501 261.936V261.187H50.4783ZM52.3993 266.029C52.3993 265.203 53.006 264.742 53.8054 264.626L55.0573 264.444C55.3366 264.405 55.4137 264.261 55.4137 264.098C55.4137 263.646 55.1151 263.272 54.4121 263.272C53.7765 263.272 53.4201 263.666 53.3624 264.204L52.4956 264.002C52.5919 263.118 53.3912 262.503 54.3928 262.503C55.7796 262.503 56.3189 263.291 56.3189 264.194V266.51C56.3189 266.913 56.3575 267.153 56.3767 267.269H55.4907C55.4714 267.153 55.4425 266.98 55.4425 266.644C55.2403 266.971 54.778 267.413 53.9498 267.413C53.006 267.413 52.3993 266.759 52.3993 266.029ZM54.075 266.654C54.8166 266.654 55.4137 266.298 55.4137 265.289V265.078L53.998 265.289C53.6127 265.347 53.3238 265.568 53.3238 265.981C53.3238 266.327 53.6127 266.654 54.075 266.654ZM58.9427 261.187V262.647H59.9443V263.464H58.9427V265.866C58.9427 266.289 59.116 266.5 59.5879 266.5C59.7035 266.5 59.8672 266.481 59.9443 266.462V267.23C59.8672 267.259 59.6361 267.317 59.3279 267.317C58.5382 267.317 58.0374 266.836 58.0374 266V263.464H57.1514V262.647H57.4018C57.9026 262.647 58.1145 262.34 58.1145 261.936V261.187H58.9427ZM61.693 264.482H64.2259C64.2066 263.819 63.7732 263.301 62.9546 263.301C62.1938 263.301 61.7315 263.887 61.693 264.482ZM64.3607 265.683L65.1408 265.952C64.8807 266.769 64.1392 267.413 63.0606 267.413C61.8182 267.413 60.73 266.51 60.73 264.944C60.73 263.493 61.7797 262.503 62.945 262.503C64.3703 262.503 65.1696 263.483 65.1696 264.924C65.1696 265.04 65.16 265.155 65.1504 265.213H61.6641C61.6834 266.039 62.2805 266.615 63.0606 266.615C63.8117 266.615 64.1873 266.202 64.3607 265.683ZM65.8919 266.068L66.7104 265.779C66.7682 266.26 67.1342 266.644 67.7891 266.644C68.2995 266.644 68.5788 266.356 68.5788 266.029C68.5788 265.741 68.3669 265.52 67.9817 265.434L67.192 265.261C66.4697 265.107 66.0363 264.617 66.0363 263.964C66.0363 263.176 66.7779 262.503 67.6831 262.503C68.9544 262.503 69.3492 263.329 69.4455 263.743L68.6462 264.04C68.6077 263.8 68.4151 263.272 67.6831 263.272C67.2209 263.272 66.9127 263.57 66.9127 263.887C66.9127 264.165 67.086 264.367 67.4424 264.444L68.1936 264.607C69.0314 264.79 69.4744 265.299 69.4744 265.981C69.4744 266.635 68.9255 267.413 67.7794 267.413C66.5082 267.413 65.9689 266.596 65.8919 266.068Z" fill="white"/>
<path d="M162.114 251.255H110.751C103.881 251.255 98.3118 256.811 98.3118 263.666C98.3118 270.52 103.881 276.076 110.751 276.076H162.114C168.984 276.076 174.554 270.52 174.554 263.666C174.554 256.811 168.984 251.255 162.114 251.255Z" fill="#FFFBFB"/>
<path d="M162.114 251.255H110.751C103.881 251.255 98.3118 256.811 98.3118 263.666C98.3118 270.52 103.881 276.076 110.751 276.076H162.114C168.984 276.076 174.554 270.52 174.554 263.666C174.554 256.811 168.984 251.255 162.114 251.255Z" stroke="#075E54"/>
<path d="M111.425 266.654C111.425 266.279 111.714 265.981 112.09 265.981C112.465 265.981 112.764 266.279 112.764 266.654C112.764 267.028 112.465 267.317 112.09 267.317C111.714 267.317 111.425 267.028 111.425 266.654ZM114.115 266.654C114.115 266.279 114.404 265.981 114.78 265.981C115.156 265.981 115.454 266.279 115.454 266.654C115.454 267.028 115.156 267.317 114.78 267.317C114.404 267.317 114.115 267.028 114.115 266.654ZM116.805 266.654C116.805 266.279 117.094 265.981 117.469 265.981C117.845 265.981 118.143 266.279 118.143 266.654C118.143 267.028 117.845 267.317 117.469 267.317C117.094 267.317 116.805 267.028 116.805 266.654ZM123 260.457L119.697 267.269H118.821L122.124 260.457H123ZM127.641 262.647L125.792 267.269H124.877L122.999 262.647H124.02L125.339 266.212L126.668 262.647H127.641ZM130.414 267.269H129.489V262.878H127.977V262.215C128.844 262.196 129.441 261.715 129.585 261.043H130.414V267.269ZM135.311 260.457L132.008 267.269H131.132L134.435 260.457H135.311Z" fill="white"/>
<path d="M135.967 266.068L136.786 265.779C136.844 266.26 137.21 266.644 137.865 266.644C138.375 266.644 138.654 266.356 138.654 266.029C138.654 265.741 138.442 265.52 138.057 265.434L137.267 265.261C136.545 265.107 136.112 264.617 136.112 263.964C136.112 263.176 136.853 262.503 137.759 262.503C139.03 262.503 139.425 263.329 139.521 263.743L138.722 264.04C138.683 263.8 138.49 263.272 137.759 263.272C137.296 263.272 136.988 263.57 136.988 263.887C136.988 264.165 137.161 264.367 137.518 264.444L138.269 264.607C139.107 264.79 139.55 265.299 139.55 265.981C139.55 266.635 139.001 267.413 137.855 267.413C136.584 267.413 136.044 266.596 135.967 266.068ZM141.969 261.187V262.647H142.97V263.464H141.969V265.866C141.969 266.289 142.142 266.5 142.614 266.5C142.73 266.5 142.893 266.481 142.97 266.462V267.23C142.893 267.259 142.662 267.317 142.354 267.317C141.564 267.317 141.063 266.836 141.063 266V263.464H140.177V262.647H140.428C140.929 262.647 141.14 262.34 141.14 261.936V261.187H141.969ZM143.889 266.029C143.889 265.203 144.496 264.742 145.295 264.626L146.547 264.444C146.827 264.405 146.904 264.261 146.904 264.098C146.904 263.646 146.605 263.272 145.902 263.272C145.266 263.272 144.91 263.666 144.852 264.204L143.986 264.002C144.082 263.118 144.881 262.503 145.883 262.503C147.27 262.503 147.809 263.291 147.809 264.194V266.51C147.809 266.913 147.847 267.153 147.867 267.269H146.981C146.961 267.153 146.932 266.98 146.932 266.644C146.73 266.971 146.268 267.413 145.44 267.413C144.496 267.413 143.889 266.759 143.889 266.029ZM145.565 266.654C146.306 266.654 146.904 266.298 146.904 265.289V265.078L145.488 265.289C145.103 265.347 144.814 265.568 144.814 265.981C144.814 266.327 145.103 266.654 145.565 266.654ZM150.433 261.187V262.647H151.435V263.464H150.433V265.866C150.433 266.289 150.607 266.5 151.078 266.5C151.194 266.5 151.358 266.481 151.435 266.462V267.23C151.358 267.259 151.127 267.317 150.818 267.317C150.029 267.317 149.528 266.836 149.528 266V263.464H148.642V262.647H148.892C149.393 262.647 149.605 262.34 149.605 261.936V261.187H150.433ZM153.183 264.482H155.716C155.697 263.819 155.264 263.301 154.445 263.301C153.684 263.301 153.222 263.887 153.183 264.482ZM155.851 265.683L156.631 265.952C156.371 266.769 155.63 267.413 154.551 267.413C153.309 267.413 152.22 266.51 152.22 264.944C152.22 263.493 153.27 262.503 154.435 262.503C155.861 262.503 156.66 263.483 156.66 264.924C156.66 265.04 156.65 265.155 156.641 265.213H153.155C153.174 266.039 153.771 266.615 154.551 266.615C155.302 266.615 155.678 266.202 155.851 265.683ZM157.382 266.068L158.201 265.779C158.259 266.26 158.625 266.644 159.28 266.644C159.79 266.644 160.069 266.356 160.069 266.029C160.069 265.741 159.857 265.52 159.472 265.434L158.683 265.261C157.96 265.107 157.527 264.617 157.527 263.964C157.527 263.176 158.268 262.503 159.174 262.503C160.445 262.503 160.84 263.329 160.936 263.743L160.137 264.04C160.098 263.8 159.906 263.272 159.174 263.272C158.711 263.272 158.403 263.57 158.403 263.887C158.403 264.165 158.577 264.367 158.933 264.444L159.684 264.607C160.522 264.79 160.965 265.299 160.965 265.981C160.965 266.635 160.416 267.413 159.27 267.413C157.999 267.413 157.459 266.596 157.382 266.068Z" fill="#075E54"/>
<path d="M72.2291 216.826H23.2739C20.8361 216.826 18.8599 218.798 18.8599 221.23V237.243C18.8599 239.675 20.8361 241.647 23.2739 241.647H72.2291C74.6669 241.647 76.6431 239.675 76.6431 237.243V221.23C76.6431 218.798 74.6669 216.826 72.2291 216.826Z" fill="#075E54"/>
<path d="M72.2291 216.826H23.2739C20.8361 216.826 18.8599 218.798 18.8599 221.23V237.243C18.8599 239.675 20.8361 241.647 23.2739 241.647H72.2291C74.6669 241.647 76.6431 239.675 76.6431 237.243V221.23C76.6431 218.798 74.6669 216.826 72.2291 216.826Z" stroke="#FFFBFB"/>
<path d="M29.6941 224.433H27.5539C27.2701 224.433 26.998 224.545 26.7973 224.746C26.5966 224.946 26.4839 225.217 26.4839 225.5V227.635M29.6941 224.433H35.0444C35.3282 224.433 35.6003 224.545 35.801 224.746C36.0017 224.946 36.1144 225.217 36.1144 225.5V227.635M29.6941 224.433V234.041M26.4839 227.635V232.973C26.4839 233.256 26.5966 233.527 26.7973 233.728C26.998 233.929 27.2701 234.041 27.5539 234.041H29.6941M26.4839 227.635H36.1144M36.1144 227.635V232.973C36.1144 233.256 36.0017 233.527 35.801 233.728C35.6003 233.929 35.3282 234.041 35.0444 234.041H29.6941" stroke="white" stroke-linecap="round" stroke-linejoin="round"/>
<path d="M46.8557 228.91C46.1238 228.91 45.4497 229.448 45.4497 230.524C45.4497 231.581 46.1142 232.148 46.8654 232.148C47.7321 232.148 48.0499 231.562 48.1559 231.197L48.9552 231.543C48.7337 232.206 48.0692 232.984 46.8654 232.984C45.5171 232.984 44.5251 231.927 44.5251 230.524C44.5251 229.083 45.5364 228.074 46.8557 228.074C48.0884 228.074 48.7241 228.843 48.9167 229.544L48.0981 229.89C47.9825 229.438 47.6454 228.91 46.8557 228.91ZM50.9128 232.84H50.0172V228.218H50.9128V232.84ZM49.815 226.47C49.815 226.104 50.1039 225.816 50.4602 225.816C50.8262 225.816 51.1151 226.104 51.1151 226.47C51.1151 226.825 50.8262 227.113 50.4602 227.113C50.1039 227.113 49.815 226.825 49.815 226.47ZM53.6665 226.758V228.218H54.668V229.035H53.6665V231.437C53.6665 231.86 53.8398 232.071 54.3117 232.071C54.4273 232.071 54.591 232.052 54.668 232.033V232.801C54.591 232.83 54.3599 232.888 54.0517 232.888C53.262 232.888 52.7612 232.407 52.7612 231.571V229.035H51.8752V228.218H52.1256C52.6264 228.218 52.8382 227.911 52.8382 227.507V226.758H53.6665ZM56.7721 232.84H55.8764V228.218H56.7721V232.84ZM55.6742 226.47C55.6742 226.104 55.9631 225.816 56.3194 225.816C56.6854 225.816 56.9743 226.104 56.9743 226.47C56.9743 226.825 56.6854 227.113 56.3194 227.113C55.9631 227.113 55.6742 226.825 55.6742 226.47ZM58.8997 230.053H61.4325C61.4133 229.39 60.9799 228.872 60.1613 228.872C59.4005 228.872 58.9382 229.458 58.8997 230.053ZM61.5674 231.254L62.3474 231.523C62.0874 232.34 61.3459 232.984 60.2672 232.984C59.0249 232.984 57.9366 232.081 57.9366 230.515C57.9366 229.064 58.9864 228.074 60.1517 228.074C61.577 228.074 62.3763 229.054 62.3763 230.495C62.3763 230.611 62.3667 230.726 62.3571 230.784H58.8708C58.8901 231.61 59.4872 232.186 60.2672 232.186C61.0184 232.186 61.394 231.773 61.5674 231.254ZM63.0985 231.639L63.9171 231.35C63.9749 231.831 64.3409 232.215 64.9958 232.215C65.5062 232.215 65.7855 231.927 65.7855 231.6C65.7855 231.312 65.5736 231.091 65.1884 231.005L64.3987 230.832C63.6764 230.678 63.243 230.188 63.243 229.535C63.243 228.747 63.9845 228.074 64.8898 228.074C66.1611 228.074 66.5559 228.9 66.6522 229.314L65.8529 229.611C65.8143 229.371 65.6217 228.843 64.8898 228.843C64.4276 228.843 64.1194 229.141 64.1194 229.458C64.1194 229.736 64.2927 229.938 64.6491 230.015L65.4002 230.178C66.2381 230.361 66.6811 230.87 66.6811 231.552C66.6811 232.206 66.1322 232.984 64.9861 232.984C63.7149 232.984 63.1756 232.167 63.0985 231.639Z" fill="white"/>
<path d="M155.694 216.826H107.541C100.671 216.826 95.1016 222.383 95.1016 229.237C95.1016 236.091 100.671 241.647 107.541 241.647H155.694C162.564 241.647 168.133 236.091 168.133 229.237C168.133 222.383 162.564 216.826 155.694 216.826Z" fill="#FFFBFB"/>
<path d="M155.694 216.826H107.541C100.671 216.826 95.1016 222.383 95.1016 229.237C95.1016 236.091 100.671 241.647 107.541 241.647H155.694C162.564 241.647 168.133 236.091 168.133 229.237C168.133 222.383 162.564 216.826 155.694 216.826Z" stroke="#075E54"/>
<path d="M108.215 232.225C108.215 231.85 108.504 231.552 108.88 231.552C109.255 231.552 109.554 231.85 109.554 232.225C109.554 232.6 109.255 232.888 108.88 232.888C108.504 232.888 108.215 232.6 108.215 232.225ZM110.905 232.225C110.905 231.85 111.194 231.552 111.57 231.552C111.946 231.552 112.244 231.85 112.244 232.225C112.244 232.6 111.946 232.888 111.57 232.888C111.194 232.888 110.905 232.6 110.905 232.225ZM113.595 232.225C113.595 231.85 113.884 231.552 114.259 231.552C114.635 231.552 114.933 231.85 114.933 232.225C114.933 232.6 114.635 232.888 114.259 232.888C113.884 232.888 113.595 232.6 113.595 232.225ZM119.79 226.028L116.487 232.84H115.611L118.914 226.028H119.79ZM124.431 228.218L122.582 232.84H121.667L119.789 228.218H120.81L122.129 231.783L123.458 228.218H124.431ZM127.204 232.84H126.279V228.449H124.767V227.786C125.634 227.767 126.231 227.286 126.375 226.614H127.204V232.84ZM132.101 226.028L128.798 232.84H127.922L131.225 226.028H132.101Z" fill="white"/>
<path d="M135.136 228.91C134.404 228.91 133.73 229.448 133.73 230.524C133.73 231.581 134.394 232.148 135.145 232.148C136.012 232.148 136.33 231.562 136.436 231.197L137.235 231.543C137.014 232.206 136.349 232.984 135.145 232.984C133.797 232.984 132.805 231.927 132.805 230.524C132.805 229.083 133.816 228.074 135.136 228.074C136.368 228.074 137.004 228.843 137.197 229.544L136.378 229.89C136.263 229.438 135.925 228.91 135.136 228.91ZM139.193 232.84H138.297V228.218H139.193V232.84ZM138.095 226.47C138.095 226.104 138.384 225.816 138.74 225.816C139.106 225.816 139.395 226.104 139.395 226.47C139.395 226.825 139.106 227.113 138.74 227.113C138.384 227.113 138.095 226.825 138.095 226.47ZM141.946 226.758V228.218H142.948V229.035H141.946V231.437C141.946 231.86 142.12 232.071 142.591 232.071C142.707 232.071 142.871 232.052 142.948 232.033V232.801C142.871 232.83 142.64 232.888 142.331 232.888C141.542 232.888 141.041 232.407 141.041 231.571V229.035H140.155V228.218H140.405C140.906 228.218 141.118 227.911 141.118 227.507V226.758H141.946ZM145.052 232.84H144.156V228.218H145.052V232.84ZM143.954 226.47C143.954 226.104 144.243 225.816 144.599 225.816C144.965 225.816 145.254 226.104 145.254 226.47C145.254 226.825 144.965 227.113 144.599 227.113C144.243 227.113 143.954 226.825 143.954 226.47ZM147.18 230.053H149.712C149.693 229.39 149.26 228.872 148.441 228.872C147.68 228.872 147.218 229.458 147.18 230.053ZM149.847 231.254L150.627 231.523C150.367 232.34 149.626 232.984 148.547 232.984C147.305 232.984 146.217 232.081 146.217 230.515C146.217 229.064 147.266 228.074 148.432 228.074C149.857 228.074 150.656 229.054 150.656 230.495C150.656 230.611 150.647 230.726 150.637 230.784H147.151C147.17 231.61 147.767 232.186 148.547 232.186C149.298 232.186 149.674 231.773 149.847 231.254ZM151.378 231.639L152.197 231.35C152.255 231.831 152.621 232.215 153.276 232.215C153.786 232.215 154.065 231.927 154.065 231.6C154.065 231.312 153.854 231.091 153.468 231.005L152.679 230.832C151.956 230.678 151.523 230.188 151.523 229.535C151.523 228.747 152.264 228.074 153.17 228.074C154.441 228.074 154.836 228.9 154.932 229.314L154.133 229.611C154.094 229.371 153.902 228.843 153.17 228.843C152.707 228.843 152.399 229.141 152.399 229.458C152.399 229.736 152.573 229.938 152.929 230.015L153.68 230.178C154.518 230.361 154.961 230.87 154.961 231.552C154.961 232.206 154.412 232.984 153.266 232.984C151.995 232.984 151.456 232.167 151.378 231.639Z" fill="#075E54"/>
<path d="M94.7004 182.397H23.2739C20.8361 182.397 18.8599 184.369 18.8599 186.801V202.814C18.8599 205.247 20.8361 207.218 23.2739 207.218H94.7004C97.1382 207.218 99.1144 205.247 99.1144 202.814V186.801C99.1144 184.369 97.1382 182.397 94.7004 182.397Z" fill="#075E54"/>
<path d="M94.7004 182.397H23.2739C20.8361 182.397 18.8599 184.369 18.8599 186.801V202.814C18.8599 205.247 20.8361 207.218 23.2739 207.218H94.7004C97.1382 207.218 99.1144 205.247 99.1144 202.814V186.801C99.1144 184.369 97.1382 182.397 94.7004 182.397Z" stroke="#FFFBFB"/>
<path d="M29.6941 190.004H27.5539C27.2701 190.004 26.998 190.116 26.7973 190.317C26.5966 190.517 26.4839 190.788 26.4839 191.071V193.206M29.6941 190.004H35.0444C35.3282 190.004 35.6003 190.116 35.801 190.317C36.0017 190.517 36.1144 190.788 36.1144 191.071V193.206M29.6941 190.004V199.612M26.4839 193.206V198.544C26.4839 198.827 26.5966 199.099 26.7973 199.299C26.998 199.5 27.2701 199.612 27.5539 199.612H29.6941M26.4839 193.206H36.1144M36.1144 193.206V198.544C36.1144 198.827 36.0017 199.099 35.801 199.299C35.6003 199.5 35.3282 199.612 35.0444 199.612H29.6941" stroke="white" stroke-linecap="round" stroke-linejoin="round"/>
<path d="M46.8557 194.481C46.1238 194.481 45.4497 195.019 45.4497 196.095C45.4497 197.152 46.1142 197.719 46.8654 197.719C47.7321 197.719 48.0499 197.133 48.1559 196.768L48.9552 197.114C48.7337 197.777 48.0692 198.555 46.8654 198.555C45.5171 198.555 44.5251 197.498 44.5251 196.095C44.5251 194.654 45.5364 193.645 46.8557 193.645C48.0884 193.645 48.7241 194.414 48.9167 195.115L48.0981 195.461C47.9825 195.009 47.6454 194.481 46.8557 194.481ZM51.9541 197.748C52.7245 197.748 53.3986 197.171 53.3986 196.095C53.3986 195.029 52.7245 194.452 51.9541 194.452C51.1836 194.452 50.5095 195.029 50.5095 196.095C50.5095 197.171 51.1836 197.748 51.9541 197.748ZM51.9541 193.645C53.3409 193.645 54.3232 194.692 54.3232 196.095C54.3232 197.508 53.3409 198.555 51.9541 198.555C50.5673 198.555 49.585 197.508 49.585 196.095C49.585 194.692 50.5673 193.645 51.9541 193.645ZM56.3867 195.74V198.411H55.4814V193.789H56.3674V194.452C56.7045 193.876 57.2534 193.655 57.7927 193.655C58.9003 193.655 59.4492 194.452 59.4492 195.48V198.411H58.5439V195.634C58.5439 194.99 58.2743 194.471 57.4653 194.471C56.7526 194.471 56.3867 195.038 56.3867 195.74ZM62.1027 192.329V193.789H63.1042V194.606H62.1027V197.008C62.1027 197.431 62.276 197.642 62.7479 197.642C62.8635 197.642 63.0272 197.623 63.1042 197.604V198.372C63.0272 198.401 62.7961 198.459 62.4879 198.459C61.6982 198.459 61.1974 197.978 61.1974 197.142V194.606H60.3114V193.789H60.5618C61.0626 193.789 61.2744 193.482 61.2744 193.078V192.329H62.1027ZM65.2082 198.411H64.3125V193.789H65.2082V198.411ZM64.1103 192.041C64.1103 191.675 64.3992 191.387 64.7555 191.387C65.1215 191.387 65.4104 191.675 65.4104 192.041C65.4104 192.396 65.1215 192.684 64.7555 192.684C64.3992 192.684 64.1103 192.396 64.1103 192.041ZM67.6536 195.74V198.411H66.7484V193.789H67.6344V194.452C67.9714 193.876 68.5204 193.655 69.0597 193.655C70.1672 193.655 70.7161 194.452 70.7161 195.48V198.411H69.8109V195.634C69.8109 194.99 69.5412 194.471 68.7322 194.471C68.0196 194.471 67.6536 195.038 67.6536 195.74ZM72.7436 195.624H75.2764C75.2572 194.961 74.8238 194.443 74.0052 194.443C73.2444 194.443 72.7821 195.029 72.7436 195.624ZM75.4113 196.825L76.1913 197.094C75.9313 197.911 75.1898 198.555 74.1111 198.555C72.8688 198.555 71.7806 197.652 71.7806 196.086C71.7806 194.635 72.8303 193.645 73.9956 193.645C75.4209 193.645 76.2202 194.625 76.2202 196.066C76.2202 196.182 76.2106 196.297 76.201 196.355H72.7147C72.734 197.181 73.3311 197.757 74.1111 197.757C74.8623 197.757 75.2379 197.344 75.4113 196.825ZM78.2811 195.74V198.411H77.3758V193.789H78.2618V194.452C78.5989 193.876 79.1478 193.655 79.6871 193.655C80.7946 193.655 81.3435 194.452 81.3435 195.48V198.411H80.4382V195.634C80.4382 194.99 80.1687 194.471 79.3597 194.471C78.6471 194.471 78.2811 195.038 78.2811 195.74ZM83.9967 192.329V193.789H84.9983V194.606H83.9967V197.008C83.9967 197.431 84.1701 197.642 84.642 197.642C84.7576 197.642 84.9213 197.623 84.9983 197.604V198.372C84.9213 198.401 84.6901 198.459 84.382 198.459C83.5923 198.459 83.0915 197.978 83.0915 197.142V194.606H82.2055V193.789H82.4558C82.9566 193.789 83.1685 193.482 83.1685 193.078V192.329H83.9967ZM85.8209 197.21L86.6395 196.921C86.6973 197.402 87.0633 197.786 87.7181 197.786C88.2286 197.786 88.5078 197.498 88.5078 197.171C88.5078 196.883 88.296 196.662 87.9108 196.576L87.121 196.403C86.3988 196.249 85.9654 195.759 85.9654 195.106C85.9654 194.318 86.7069 193.645 87.6122 193.645C88.8834 193.645 89.2783 194.471 89.3746 194.885L88.5753 195.182C88.5367 194.942 88.3441 194.414 87.6122 194.414C87.1499 194.414 86.8418 194.712 86.8418 195.029C86.8418 195.307 87.0151 195.509 87.3714 195.586L88.1226 195.749C88.9605 195.932 89.4035 196.441 89.4035 197.123C89.4035 197.777 88.8545 198.555 87.7085 198.555C86.4373 198.555 85.898 197.738 85.8209 197.21Z" fill="white"/>
<path d="M200.636 182.397H130.012C123.142 182.397 117.573 187.954 117.573 194.808C117.573 201.662 123.142 207.218 130.012 207.218H200.636C207.507 207.218 213.076 201.662 213.076 194.808C213.076 187.954 207.507 182.397 200.636 182.397Z" fill="#FFFBFB"/>
<path d="M200.636 182.397H130.012C123.142 182.397 117.573 187.954 117.573 194.808C117.573 201.662 123.142 207.218 130.012 207.218H200.636C207.507 207.218 213.076 201.662 213.076 194.808C213.076 187.954 207.507 182.397 200.636 182.397Z" stroke="#075E54"/>
<path d="M130.687 197.796C130.687 197.421 130.975 197.123 131.351 197.123C131.727 197.123 132.025 197.421 132.025 197.796C132.025 198.171 131.727 198.459 131.351 198.459C130.975 198.459 130.687 198.171 130.687 197.796ZM133.377 197.796C133.377 197.421 133.666 197.123 134.041 197.123C134.417 197.123 134.715 197.421 134.715 197.796C134.715 198.171 134.417 198.459 134.041 198.459C133.666 198.459 133.377 198.171 133.377 197.796ZM136.066 197.796C136.066 197.421 136.355 197.123 136.73 197.123C137.106 197.123 137.405 197.421 137.405 197.796C137.405 198.171 137.106 198.459 136.73 198.459C136.355 198.459 136.066 198.171 136.066 197.796ZM142.262 191.599L138.958 198.411H138.082L141.385 191.599H142.262ZM146.902 193.789L145.053 198.411H144.138L142.26 193.789H143.281L144.6 197.354L145.929 193.789H146.902ZM149.675 198.411H148.75V194.02H147.238V193.357C148.105 193.338 148.702 192.857 148.847 192.185H149.675V198.411ZM154.573 191.599L151.269 198.411H150.393L153.696 191.599H154.573Z" fill="white"/>
<path d="M157.607 194.481C156.875 194.481 156.201 195.019 156.201 196.095C156.201 197.152 156.865 197.719 157.617 197.719C158.483 197.719 158.801 197.133 158.907 196.768L159.706 197.114C159.485 197.777 158.82 198.555 157.617 198.555C156.268 198.555 155.276 197.498 155.276 196.095C155.276 194.654 156.288 193.645 157.607 193.645C158.84 193.645 159.475 194.414 159.668 195.115L158.849 195.461C158.734 195.009 158.397 194.481 157.607 194.481ZM162.706 197.748C163.476 197.748 164.15 197.171 164.15 196.095C164.15 195.029 163.476 194.452 162.706 194.452C161.935 194.452 161.261 195.029 161.261 196.095C161.261 197.171 161.935 197.748 162.706 197.748ZM162.706 193.645C164.092 193.645 165.075 194.692 165.075 196.095C165.075 197.508 164.092 198.555 162.706 198.555C161.319 198.555 160.336 197.508 160.336 196.095C160.336 194.692 161.319 193.645 162.706 193.645ZM167.138 195.74V198.411H166.233V193.789H167.119V194.452C167.456 193.876 168.005 193.655 168.544 193.655C169.652 193.655 170.201 194.452 170.201 195.48V198.411H169.295V195.634C169.295 194.99 169.026 194.471 168.217 194.471C167.504 194.471 167.138 195.038 167.138 195.74ZM172.854 192.329V193.789H173.855V194.606H172.854V197.008C172.854 197.431 173.027 197.642 173.499 197.642C173.615 197.642 173.778 197.623 173.855 197.604V198.372C173.778 198.401 173.547 198.459 173.239 198.459C172.449 198.459 171.948 197.978 171.948 197.142V194.606H171.062V193.789H171.313C171.814 193.789 172.025 193.482 172.025 193.078V192.329H172.854ZM175.96 198.411H175.064V193.789H175.96V198.411ZM174.862 192.041C174.862 191.675 175.151 191.387 175.507 191.387C175.873 191.387 176.162 191.675 176.162 192.041C176.162 192.396 175.873 192.684 175.507 192.684C175.151 192.684 174.862 192.396 174.862 192.041ZM178.405 195.74V198.411H177.5V193.789H178.386V194.452C178.723 193.876 179.272 193.655 179.811 193.655C180.918 193.655 181.467 194.452 181.467 195.48V198.411H180.562V195.634C180.562 194.99 180.293 194.471 179.484 194.471C178.771 194.471 178.405 195.038 178.405 195.74ZM183.495 195.624H186.028C186.008 194.961 185.575 194.443 184.756 194.443C183.995 194.443 183.533 195.029 183.495 195.624ZM186.162 196.825L186.942 197.094C186.682 197.911 185.941 198.555 184.862 198.555C183.62 198.555 182.532 197.652 182.532 196.086C182.532 194.635 183.581 193.645 184.747 193.645C186.172 193.645 186.971 194.625 186.971 196.066C186.971 196.182 186.962 196.297 186.952 196.355H183.466C183.485 197.181 184.082 197.757 184.862 197.757C185.613 197.757 185.989 197.344 186.162 196.825ZM189.032 195.74V198.411H188.127V193.789H189.013V194.452C189.35 193.876 189.899 193.655 190.438 193.655C191.546 193.655 192.095 194.452 192.095 195.48V198.411H191.189V195.634C191.189 194.99 190.92 194.471 190.111 194.471C189.398 194.471 189.032 195.038 189.032 195.74ZM194.748 192.329V193.789H195.75V194.606H194.748V197.008C194.748 197.431 194.921 197.642 195.393 197.642C195.509 197.642 195.672 197.623 195.75 197.604V198.372C195.672 198.401 195.441 198.459 195.133 198.459C194.343 198.459 193.843 197.978 193.843 197.142V194.606H192.957V193.789H193.207C193.708 193.789 193.92 193.482 193.92 193.078V192.329H194.748ZM196.572 197.21L197.391 196.921C197.449 197.402 197.814 197.786 198.469 197.786C198.98 197.786 199.259 197.498 199.259 197.171C199.259 196.883 199.047 196.662 198.662 196.576L197.872 196.403C197.15 196.249 196.717 195.759 196.717 195.106C196.717 194.318 197.458 193.645 198.363 193.645C199.635 193.645 200.03 194.471 200.126 194.885L199.326 195.182C199.288 194.942 199.095 194.414 198.363 194.414C197.901 194.414 197.593 194.712 197.593 195.029C197.593 195.307 197.766 195.509 198.123 195.586L198.874 195.749C199.712 195.932 200.155 196.441 200.155 197.123C200.155 197.777 199.606 198.555 198.46 198.555C197.188 198.555 196.649 197.738 196.572 197.21Z" fill="#075E54"/>
<path d="M89.8851 147.968H23.2739C20.8361 147.968 18.8599 149.94 18.8599 152.372V168.385C18.8599 170.818 20.8361 172.789 23.2739 172.789H89.8851C92.3229 172.789 94.2991 170.818 94.2991 168.385V152.372C94.2991 149.94 92.3229 147.968 89.8851 147.968Z" fill="#075E54"/>
<path d="M89.8851 147.968H23.2739C20.8361 147.968 18.8599 149.94 18.8599 152.372V168.385C18.8599 170.818 20.8361 172.789 23.2739 172.789H89.8851C92.3229 172.789 94.2991 170.818 94.2991 168.385V152.372C94.2991 149.94 92.3229 147.968 89.8851 147.968Z" stroke="#FFFBFB"/>
<path d="M29.6941 155.575H27.5539C27.2701 155.575 26.998 155.687 26.7973 155.888C26.5966 156.088 26.4839 156.359 26.4839 156.642V158.777M29.6941 155.575H35.0444C35.3282 155.575 35.6003 155.687 35.801 155.888C36.0017 156.088 36.1144 156.359 36.1144 156.642V158.777M29.6941 155.575V165.183M26.4839 158.777V164.116C26.4839 164.398 26.5966 164.67 26.7973 164.87C26.998 165.071 27.2701 165.183 27.5539 165.183H29.6941M26.4839 158.777H36.1144M36.1144 158.777V164.116C36.1144 164.398 36.0017 164.67 35.801 164.87C35.6003 165.071 35.3282 165.183 35.0444 165.183H29.6941" stroke="white" stroke-linecap="round" stroke-linejoin="round"/>
<path d="M46.8557 160.052C46.1238 160.052 45.4497 160.59 45.4497 161.666C45.4497 162.723 46.1142 163.29 46.8654 163.29C47.7321 163.29 48.0499 162.704 48.1559 162.339L48.9552 162.685C48.7337 163.348 48.0692 164.126 46.8654 164.126C45.5171 164.126 44.5251 163.069 44.5251 161.666C44.5251 160.225 45.5364 159.216 46.8557 159.216C48.0884 159.216 48.7241 159.985 48.9167 160.686L48.0981 161.032C47.9825 160.581 47.6454 160.052 46.8557 160.052ZM51.9541 163.319C52.7245 163.319 53.3986 162.742 53.3986 161.666C53.3986 160.6 52.7245 160.023 51.9541 160.023C51.1836 160.023 50.5095 160.6 50.5095 161.666C50.5095 162.742 51.1836 163.319 51.9541 163.319ZM51.9541 159.216C53.3409 159.216 54.3232 160.263 54.3232 161.666C54.3232 163.079 53.3409 164.126 51.9541 164.126C50.5673 164.126 49.585 163.079 49.585 161.666C49.585 160.263 50.5673 159.216 51.9541 159.216ZM58.4873 163.425C58.2369 163.905 57.659 164.126 57.1197 164.126C56.0411 164.126 55.3862 163.319 55.3862 162.272V159.36H56.2915V162.137C56.2915 162.771 56.5804 163.328 57.3412 163.328C58.0732 163.328 58.4391 162.848 58.4391 162.147V159.36H59.3444V163.127C59.3444 163.492 59.3733 163.818 59.3925 163.982H58.5258C58.5065 163.876 58.4873 163.617 58.4873 163.425ZM61.7945 161.311V163.982H60.8892V159.36H61.7752V160.023C62.1123 159.447 62.6612 159.226 63.2005 159.226C64.3081 159.226 64.857 160.023 64.857 161.051V163.982H63.9517V161.205C63.9517 160.561 63.6821 160.042 62.8731 160.042C62.1604 160.042 61.7945 160.609 61.7945 161.311ZM67.5104 157.9V159.36H68.5119V160.177H67.5104V162.579C67.5104 163.002 67.6837 163.213 68.1556 163.213C68.2712 163.213 68.4349 163.194 68.5119 163.175V163.943C68.4349 163.972 68.2038 164.03 67.8956 164.03C67.1059 164.03 66.6051 163.549 66.6051 162.714V160.177H65.7191V159.36H65.9695C66.4703 159.36 66.6821 159.053 66.6821 158.649V157.9H67.5104ZM72.1976 159.312V160.273C72.0628 160.254 71.928 160.244 71.8028 160.244C71.042 160.244 70.5316 160.648 70.5316 161.666V163.982H69.6263V159.36H70.5123V160.167C70.8494 159.456 71.4272 159.283 71.8991 159.283C72.0243 159.283 72.1495 159.303 72.1976 159.312ZM74.0581 163.982H73.1625V159.36H74.0581V163.982ZM72.9602 157.612C72.9602 157.247 73.2491 156.958 73.6055 156.958C73.9714 156.958 74.2603 157.247 74.2603 157.612C74.2603 157.967 73.9714 158.255 73.6055 158.255C73.2491 158.255 72.9602 157.967 72.9602 157.612ZM76.1858 161.195H78.7186C78.6994 160.532 78.266 160.014 77.4474 160.014C76.6866 160.014 76.2243 160.6 76.1858 161.195ZM78.8535 162.396L79.6335 162.665C79.3735 163.482 78.632 164.126 77.5533 164.126C76.311 164.126 75.2228 163.223 75.2228 161.657C75.2228 160.206 76.2725 159.216 77.4378 159.216C78.8631 159.216 79.6624 160.196 79.6624 161.637C79.6624 161.753 79.6528 161.868 79.6432 161.926H76.1569C76.1762 162.752 76.7733 163.328 77.5533 163.328C78.3045 163.328 78.6801 162.915 78.8535 162.396ZM80.3845 162.781L81.2031 162.493C81.2609 162.973 81.6268 163.357 82.2817 163.357C82.7921 163.357 83.0714 163.069 83.0714 162.742C83.0714 162.454 82.8595 162.233 82.4743 162.147L81.6846 161.974C80.9623 161.82 80.5289 161.33 80.5289 160.677C80.5289 159.889 81.2705 159.216 82.1758 159.216C83.447 159.216 83.8418 160.042 83.9381 160.456L83.1388 160.753C83.1003 160.513 82.9077 159.985 82.1758 159.985C81.7135 159.985 81.4053 160.283 81.4053 160.6C81.4053 160.878 81.5787 161.08 81.935 161.157L82.6862 161.32C83.524 161.503 83.967 162.012 83.967 162.694C83.967 163.348 83.4181 164.126 82.2721 164.126C81.0008 164.126 80.4615 163.309 80.3845 162.781Z" fill="white"/>
<path d="M191.006 147.968H125.197C118.327 147.968 112.758 153.525 112.758 160.379C112.758 167.233 118.327 172.789 125.197 172.789H191.006C197.876 172.789 203.445 167.233 203.445 160.379C203.445 153.525 197.876 147.968 191.006 147.968Z" fill="#FFFBFB"/>
<path d="M191.006 147.968H125.197C118.327 147.968 112.758 153.525 112.758 160.379C112.758 167.233 118.327 172.789 125.197 172.789H191.006C197.876 172.789 203.445 167.233 203.445 160.379C203.445 153.525 197.876 147.968 191.006 147.968Z" stroke="#075E54"/>
<path d="M125.871 163.367C125.871 162.992 126.16 162.694 126.536 162.694C126.911 162.694 127.21 162.992 127.21 163.367C127.21 163.742 126.911 164.03 126.536 164.03C126.16 164.03 125.871 163.742 125.871 163.367ZM128.561 163.367C128.561 162.992 128.85 162.694 129.226 162.694C129.602 162.694 129.9 162.992 129.9 163.367C129.9 163.742 129.602 164.03 129.226 164.03C128.85 164.03 128.561 163.742 128.561 163.367ZM131.251 163.367C131.251 162.992 131.54 162.694 131.915 162.694C132.291 162.694 132.589 162.992 132.589 163.367C132.589 163.742 132.291 164.03 131.915 164.03C131.54 164.03 131.251 163.742 131.251 163.367ZM137.446 157.17L134.143 163.982H133.267L136.57 157.17H137.446ZM142.087 159.36L140.238 163.982H139.323L137.445 159.36H138.466L139.785 162.925L141.114 159.36H142.087ZM144.86 163.982H143.935V159.591H142.423V158.928C143.29 158.909 143.887 158.428 144.031 157.756H144.86V163.982ZM149.757 157.17L146.454 163.982H145.578L148.881 157.17H149.757Z" fill="white"/>
<path d="M152.792 160.052C152.06 160.052 151.386 160.59 151.386 161.666C151.386 162.723 152.05 163.29 152.801 163.29C153.668 163.29 153.986 162.704 154.092 162.339L154.891 162.685C154.67 163.348 154.005 164.126 152.801 164.126C151.453 164.126 150.461 163.069 150.461 161.666C150.461 160.225 151.472 159.216 152.792 159.216C154.024 159.216 154.66 159.985 154.853 160.686L154.034 161.032C153.919 160.581 153.581 160.052 152.792 160.052ZM157.89 163.319C158.661 163.319 159.335 162.742 159.335 161.666C159.335 160.6 158.661 160.023 157.89 160.023C157.12 160.023 156.446 160.6 156.446 161.666C156.446 162.742 157.12 163.319 157.89 163.319ZM157.89 159.216C159.277 159.216 160.259 160.263 160.259 161.666C160.259 163.079 159.277 164.126 157.89 164.126C156.504 164.126 155.521 163.079 155.521 161.666C155.521 160.263 156.504 159.216 157.89 159.216ZM164.423 163.425C164.173 163.905 163.595 164.126 163.056 164.126C161.977 164.126 161.322 163.319 161.322 162.272V159.36H162.227V162.137C162.227 162.771 162.516 163.328 163.277 163.328C164.009 163.328 164.375 162.848 164.375 162.147V159.36H165.28V163.127C165.28 163.492 165.309 163.818 165.328 163.982H164.462C164.442 163.876 164.423 163.617 164.423 163.425ZM167.73 161.311V163.982H166.825V159.36H167.711V160.023C168.048 159.447 168.597 159.226 169.136 159.226C170.244 159.226 170.793 160.023 170.793 161.051V163.982H169.888V161.205C169.888 160.561 169.618 160.042 168.809 160.042C168.096 160.042 167.73 160.609 167.73 161.311ZM173.446 157.9V159.36H174.448V160.177H173.446V162.579C173.446 163.002 173.619 163.213 174.091 163.213C174.207 163.213 174.371 163.194 174.448 163.175V163.943C174.371 163.972 174.139 164.03 173.831 164.03C173.042 164.03 172.541 163.549 172.541 162.714V160.177H171.655V159.36H171.905C172.406 159.36 172.618 159.053 172.618 158.649V157.9H173.446ZM178.134 159.312V160.273C177.999 160.254 177.864 160.244 177.739 160.244C176.978 160.244 176.468 160.648 176.468 161.666V163.982H175.562V159.36H176.448V160.167C176.785 159.456 177.363 159.283 177.835 159.283C177.96 159.283 178.086 159.303 178.134 159.312ZM179.994 163.982H179.098V159.36H179.994V163.982ZM178.896 157.612C178.896 157.247 179.185 156.958 179.541 156.958C179.907 156.958 180.196 157.247 180.196 157.612C180.196 157.967 179.907 158.255 179.541 158.255C179.185 158.255 178.896 157.967 178.896 157.612ZM182.122 161.195H184.654C184.635 160.532 184.202 160.014 183.383 160.014C182.622 160.014 182.16 160.6 182.122 161.195ZM184.789 162.396L185.569 162.665C185.309 163.482 184.568 164.126 183.489 164.126C182.247 164.126 181.159 163.223 181.159 161.657C181.159 160.206 182.208 159.216 183.374 159.216C184.799 159.216 185.598 160.196 185.598 161.637C185.598 161.753 185.589 161.868 185.579 161.926H182.093C182.112 162.752 182.709 163.328 183.489 163.328C184.24 163.328 184.616 162.915 184.789 162.396ZM186.321 162.781L187.139 162.493C187.197 162.973 187.563 163.357 188.218 163.357C188.728 163.357 189.007 163.069 189.007 162.742C189.007 162.454 188.796 162.233 188.41 162.147L187.621 161.974C186.898 161.82 186.465 161.33 186.465 160.677C186.465 159.889 187.207 159.216 188.112 159.216C189.383 159.216 189.778 160.042 189.874 160.456L189.075 160.753C189.036 160.513 188.844 159.985 188.112 159.985C187.65 159.985 187.341 160.283 187.341 160.6C187.341 160.878 187.515 161.08 187.871 161.157L188.622 161.32C189.46 161.503 189.903 162.012 189.903 162.694C189.903 163.348 189.354 164.126 188.208 164.126C186.937 164.126 186.398 163.309 186.321 162.781Z" fill="#075E54"/>
</g>
<defs>
<clipPath id="clip0_4009_5249">
<rect width="264.84" height="398" fill="white" transform="translate(0 -9)"/>
</clipPath>
</defs>
</svg>
