<svg width="266" height="342" viewBox="0 0 266 342" fill="none" xmlns="http://www.w3.org/2000/svg">
<mask id="mask0_4009_5355" style="mask-type:luminance" maskUnits="userSpaceOnUse" x="-17" y="0" width="329" height="362">
<path d="M311.84 0H-17V361.72H311.84V0Z" fill="white"/>
</mask>
<g mask="url(#mask0_4009_5355)">
<path d="M175.393 554.019V238.497" stroke="white" stroke-width="0.502235"/>
<path d="M39.0238 554.019V238.497" stroke="white" stroke-width="0.502235"/>
<path d="M107.213 592.887V277.365" stroke="white" stroke-width="0.502235"/>
<path opacity="0.8" d="M-252.005 400.789L105.273 191.609L462.168 402.676L-252.005 400.789Z" fill="#075E54" stroke="white" stroke-width="1.23671"/>
<path d="M194.329 195.522C195.031 195.522 195.599 194.955 195.599 194.255C195.599 193.555 195.031 192.987 194.329 192.987C193.627 192.987 193.059 193.555 193.059 194.255C193.059 194.955 193.627 195.522 194.329 195.522Z" fill="white"/>
<path d="M215.419 100.223C216.588 100.223 217.536 99.2837 217.536 98.1248C217.536 96.9659 216.588 96.0264 215.419 96.0264C214.249 96.0264 213.301 96.9659 213.301 98.1248C213.301 99.2837 214.249 100.223 215.419 100.223Z" fill="white"/>
<path d="M235.83 196.367C236.999 196.367 237.947 195.421 237.947 194.255C237.947 193.088 236.999 192.142 235.83 192.142C234.66 192.142 233.712 193.088 233.712 194.255C233.712 195.421 234.66 196.367 235.83 196.367Z" fill="white"/>
<path d="M15.6225 156.732C16.3241 156.732 16.8929 156.135 16.8929 155.399C16.8929 154.663 16.3241 154.067 15.6225 154.067C14.9208 154.067 14.3521 154.663 14.3521 155.399C14.3521 156.135 14.9208 156.732 15.6225 156.732Z" fill="#075E54"/>
<path d="M152.162 85.4814C152.629 85.4814 153.009 85.1031 153.009 84.6365C153.009 84.1698 152.629 83.7915 152.162 83.7915C151.694 83.7915 151.315 84.1698 151.315 84.6365C151.315 85.1031 151.694 85.4814 152.162 85.4814Z" fill="white"/>
<path d="M126.929 95.8164C127.865 95.8164 128.623 95.0598 128.623 94.1265C128.623 93.1931 127.865 92.4365 126.929 92.4365C125.994 92.4365 125.236 93.1931 125.236 94.1265C125.236 95.0598 125.994 95.8164 126.929 95.8164Z" fill="white"/>
<path d="M123.027 217.457C123.495 217.457 123.874 217.087 123.874 216.629C123.874 216.172 123.495 215.801 123.027 215.801C122.559 215.801 122.18 216.172 122.18 216.629C122.18 217.087 122.559 217.457 123.027 217.457Z" fill="#075E54"/>
<path d="M214.962 209.201C215.993 209.201 216.828 208.368 216.828 207.34C216.828 206.312 215.993 205.478 214.962 205.478C213.932 205.478 213.097 206.312 213.097 207.34C213.097 208.368 213.932 209.201 214.962 209.201Z" fill="white"/>
<path d="M18.5862 189.728C19.5217 189.728 20.2801 188.972 20.2801 188.038C20.2801 187.105 19.5217 186.348 18.5862 186.348C17.6507 186.348 16.8923 187.105 16.8923 188.038C16.8923 188.972 17.6507 189.728 18.5862 189.728Z" fill="white"/>
<path d="M191.79 187.918C192.492 187.918 193.061 187.35 193.061 186.65C193.061 185.95 192.492 185.383 191.79 185.383C191.089 185.383 190.52 185.95 190.52 186.65C190.52 187.35 191.089 187.918 191.79 187.918Z" fill="white"/>
<path d="M220.619 234.364C221.788 234.364 222.736 233.418 222.736 232.251C222.736 231.085 221.788 230.139 220.619 230.139C219.449 230.139 218.501 231.085 218.501 232.251C218.501 233.418 219.449 234.364 220.619 234.364Z" fill="white"/>
<path d="M119.795 175.994C120.477 175.994 121.03 175.442 121.03 174.761C121.03 174.081 120.477 173.529 119.795 173.529C119.113 173.529 118.56 174.081 118.56 174.761C118.56 175.442 119.113 175.994 119.795 175.994Z" fill="#075E54"/>
<path d="M126.573 235.259C128.678 235.259 130.384 233.556 130.384 231.456C130.384 229.356 128.678 227.654 126.573 227.654C124.468 227.654 122.762 229.356 122.762 231.456C122.762 233.556 124.468 235.259 126.573 235.259Z" fill="white"/>
<path d="M184.589 317.199C185.057 317.199 185.436 316.82 185.436 316.354C185.436 315.887 185.057 315.509 184.589 315.509C184.122 315.509 183.743 315.887 183.743 316.354C183.743 316.82 184.122 317.199 184.589 317.199Z" fill="#075E54"/>
<path d="M56.1049 125.845C56.8065 125.845 57.3753 125.278 57.3753 124.578C57.3753 123.878 56.8065 123.31 56.1049 123.31C55.4033 123.31 54.8345 123.878 54.8345 124.578C54.8345 125.278 55.4033 125.845 56.1049 125.845Z" fill="white"/>
<path d="M10.9643 281.709C11.432 281.709 11.8112 281.331 11.8112 280.864C11.8112 280.397 11.432 280.019 10.9643 280.019C10.4965 280.019 10.1173 280.397 10.1173 280.864C10.1173 281.331 10.4965 281.709 10.9643 281.709Z" fill="white"/>
<path d="M133.35 62.0178C133.584 62.0178 133.773 61.8286 133.773 61.5951C133.773 61.3616 133.584 61.1724 133.35 61.1724C133.115 61.1724 132.926 61.3616 132.926 61.5951C132.926 61.8286 133.115 62.0178 133.35 62.0178Z" fill="white"/>
<path d="M18.9751 269.88C20.164 269.88 21.1277 268.934 21.1277 267.767C21.1277 266.601 20.164 265.655 18.9751 265.655C17.7862 265.655 16.8224 266.601 16.8224 267.767C16.8224 268.934 17.7862 269.88 18.9751 269.88Z" fill="#075E54"/>
<path d="M132.502 100.041C133.671 100.041 134.619 99.0955 134.619 97.9288C134.619 96.7622 133.671 95.8164 132.502 95.8164C131.333 95.8164 130.385 96.7622 130.385 97.9288C130.385 99.0955 131.333 100.041 132.502 100.041Z" fill="white"/>
<path d="M58.2239 89.1072C58.6917 89.1072 59.0709 88.7289 59.0709 88.2622C59.0709 87.7955 58.6917 87.4172 58.2239 87.4172C57.7561 87.4172 57.377 87.7955 57.377 88.2622C57.377 88.7289 57.7561 89.1072 58.2239 89.1072Z" fill="#075E54"/>
<path d="M161.722 38.3579C162.189 38.3579 162.569 37.9791 162.569 37.5117C162.569 37.0444 162.189 36.6655 161.722 36.6655C161.254 36.6655 160.875 37.0444 160.875 37.5117C160.875 37.9791 161.254 38.3579 161.722 38.3579Z" fill="#075E54"/>
<path d="M105.261 112.328L173.101 151.405V231.632L105.253 270.464L37.0642 231.094V151.193L105.261 112.328Z" fill="#075E54"/>
<path d="M173.101 151.405L105.261 112.328L37.0642 151.193M173.101 151.405V231.632L105.253 270.464M173.101 151.405L119.462 182.159L104.99 190.533M37.0642 151.193V231.094L105.253 270.464M37.0642 151.193L104.99 190.533M105.253 270.464L104.99 190.533" stroke="white" stroke-width="1.00447"/>
<path d="M113.256 147.24L180.245 207.34" stroke="white" stroke-width="1.00447" stroke-dasharray="0.5 2.01"/>
<path d="M122.506 134.335L159.901 105.111" stroke="white" stroke-width="1.00447" stroke-dasharray="0.5 2.01"/>
<path d="M113.258 149.352C114.428 149.352 115.376 148.406 115.376 147.24C115.376 146.073 114.428 145.127 113.258 145.127C112.089 145.127 111.141 146.073 111.141 147.24C111.141 148.406 112.089 149.352 113.258 149.352Z" fill="#075E54"/>
<path d="M183.743 212.688C185.673 212.688 187.238 211.127 187.238 209.201C187.238 207.275 185.673 205.713 183.743 205.713C181.812 205.713 180.248 207.275 180.248 209.201C180.248 211.127 181.812 212.688 183.743 212.688Z" fill="#075E54"/>
<path d="M58.2238 212.688C59.3932 212.688 60.3412 211.743 60.3412 210.576C60.3412 209.409 59.3932 208.464 58.2238 208.464C57.0544 208.464 56.1064 209.409 56.1064 210.576C56.1064 211.743 57.0544 212.688 58.2238 212.688Z" fill="#075E54"/>
<path d="M121.555 136.41C122.526 136.726 123.569 136.196 123.885 135.228C124.201 134.259 123.67 133.219 122.7 132.904C121.729 132.588 120.686 133.118 120.37 134.086C120.054 135.054 120.585 136.095 121.555 136.41Z" fill="#075E54"/>
<path d="M159.246 107.12C160.358 107.481 161.553 106.874 161.915 105.765C162.277 104.656 161.669 103.464 160.557 103.102C159.445 102.741 158.25 103.348 157.888 104.457C157.526 105.567 158.134 106.759 159.246 107.12Z" fill="#075E54"/>
<path d="M19.6039 266.998L88.3574 211.421" stroke="white" stroke-width="1.00447" stroke-dasharray="0.5 2.01"/>
<path d="M88.3574 214.379C89.9945 214.379 91.3217 213.055 91.3217 211.422C91.3217 209.788 89.9945 208.464 88.3574 208.464C86.7202 208.464 85.3931 209.788 85.3931 211.422C85.3931 213.055 86.7202 214.379 88.3574 214.379Z" fill="#075E54"/>
</g>
</svg>
