<svg width="226" height="311" viewBox="0 0 226 311" fill="none" xmlns="http://www.w3.org/2000/svg">
<path d="M8.4625 5.39976H9.625V11.756C9.625 12.4123 9.47031 12.9982 9.16094 13.5138C8.85469 14.0263 8.42188 14.431 7.8625 14.7279C7.30313 15.0216 6.64688 15.1685 5.89375 15.1685C5.14063 15.1685 4.48438 15.0216 3.925 14.7279C3.36563 14.431 2.93125 14.0263 2.62188 13.5138C2.31563 12.9982 2.1625 12.4123 2.1625 11.756V5.39976H3.325V11.6623C3.325 12.131 3.42813 12.5482 3.63438 12.9138C3.84063 13.2763 4.13438 13.5623 4.51563 13.7716C4.9 13.9779 5.35938 14.081 5.89375 14.081C6.42813 14.081 6.8875 13.9779 7.27188 13.7716C7.65625 13.5623 7.95 13.2763 8.15313 12.9138C8.35938 12.5482 8.4625 12.131 8.4625 11.6623V5.39976ZM16.8965 9.41226L15.9027 9.69351C15.8402 9.52788 15.748 9.36694 15.6262 9.21069C15.5074 9.05132 15.3449 8.92007 15.1387 8.81694C14.9324 8.71382 14.6684 8.66226 14.3465 8.66226C13.9059 8.66226 13.5387 8.76382 13.2449 8.96694C12.9543 9.16694 12.809 9.42163 12.809 9.73101C12.809 10.006 12.909 10.2232 13.109 10.3826C13.309 10.5419 13.6215 10.6748 14.0465 10.781L15.1152 11.0435C15.759 11.1998 16.2387 11.4388 16.5543 11.7607C16.8699 12.0794 17.0277 12.4904 17.0277 12.9935C17.0277 13.406 16.909 13.7748 16.6715 14.0998C16.4371 14.4248 16.109 14.681 15.6871 14.8685C15.2652 15.056 14.7746 15.1498 14.2152 15.1498C13.4809 15.1498 12.873 14.9904 12.3918 14.6716C11.9105 14.3529 11.6059 13.8873 11.4777 13.2748L12.5277 13.0123C12.6277 13.3998 12.8168 13.6904 13.0949 13.8841C13.3762 14.0779 13.7434 14.1748 14.1965 14.1748C14.7121 14.1748 15.1215 14.0654 15.4246 13.8466C15.7309 13.6248 15.884 13.3591 15.884 13.0498C15.884 12.7998 15.7965 12.5904 15.6215 12.4216C15.4465 12.2498 15.1777 12.1216 14.8152 12.0373L13.6152 11.756C12.9559 11.5998 12.4715 11.3576 12.1621 11.0294C11.8559 10.6982 11.7027 10.2841 11.7027 9.78726C11.7027 9.38101 11.8168 9.02163 12.0449 8.70913C12.2762 8.39663 12.5902 8.15132 12.9871 7.97319C13.3871 7.79507 13.8402 7.70601 14.3465 7.70601C15.059 7.70601 15.6184 7.86226 16.0246 8.17476C16.434 8.48726 16.7246 8.89976 16.8965 9.41226ZM21.7117 15.1498C21.018 15.1498 20.4195 14.9966 19.9164 14.6904C19.4164 14.381 19.0305 13.9498 18.7586 13.3966C18.4898 12.8404 18.3555 12.1935 18.3555 11.456C18.3555 10.7185 18.4898 10.0685 18.7586 9.50601C19.0305 8.94038 19.4086 8.49976 19.893 8.18413C20.3805 7.86538 20.9492 7.70601 21.5992 7.70601C21.9742 7.70601 22.3445 7.76851 22.7102 7.89351C23.0758 8.01851 23.4086 8.22163 23.7086 8.50288C24.0086 8.78101 24.2477 9.14976 24.4258 9.60913C24.6039 10.0685 24.693 10.6341 24.693 11.306V11.7748H19.143V10.8185H23.568C23.568 10.4123 23.4867 10.0498 23.3242 9.73101C23.1648 9.41226 22.9367 9.16069 22.6398 8.97632C22.3461 8.79194 21.9992 8.69976 21.5992 8.69976C21.1586 8.69976 20.7773 8.80913 20.4555 9.02788C20.1367 9.24351 19.8914 9.52476 19.7195 9.87163C19.5477 10.2185 19.4617 10.5904 19.4617 10.9873V11.6248C19.4617 12.1685 19.5555 12.6294 19.743 13.0076C19.9336 13.3826 20.1977 13.6685 20.5352 13.8654C20.8727 14.0591 21.2648 14.156 21.7117 14.156C22.0023 14.156 22.2648 14.1154 22.4992 14.0341C22.7367 13.9498 22.9414 13.8248 23.1133 13.6591C23.2852 13.4904 23.418 13.281 23.5117 13.031L24.5805 13.331C24.468 13.6935 24.2789 14.0123 24.0133 14.2873C23.7477 14.5591 23.4195 14.7716 23.0289 14.9248C22.6383 15.0748 22.1992 15.1498 21.7117 15.1498ZM30.632 14.9998H29.4133L32.9383 5.39976H34.1383L37.6633 14.9998H36.4445L33.5758 6.91851H33.5008L30.632 14.9998ZM31.082 11.2498H35.9945V12.281H31.082V11.2498ZM40.3211 5.39976V14.9998H39.1586V5.39976H40.3211ZM49.3457 7.79976V8.73726H45.6145V7.79976H49.3457ZM46.702 6.07476H47.8082V12.9373C47.8082 13.2498 47.8535 13.4841 47.9441 13.6404C48.0379 13.7935 48.1566 13.8966 48.3004 13.9498C48.4473 13.9998 48.602 14.0248 48.7645 14.0248C48.8863 14.0248 48.9863 14.0185 49.0645 14.006C49.1426 13.9904 49.2051 13.9779 49.252 13.9685L49.477 14.9623C49.402 14.9904 49.2973 15.0185 49.1629 15.0466C49.0285 15.0779 48.8582 15.0935 48.652 15.0935C48.3395 15.0935 48.0332 15.0263 47.7332 14.8919C47.4363 14.7576 47.1895 14.5529 46.9926 14.2779C46.7988 14.0029 46.702 13.656 46.702 13.2373V6.07476ZM53.8574 15.1498C53.2074 15.1498 52.6371 14.9951 52.1465 14.6857C51.659 14.3763 51.2777 13.9435 51.0027 13.3873C50.7309 12.831 50.5949 12.181 50.5949 11.4373C50.5949 10.6873 50.7309 10.0326 51.0027 9.47319C51.2777 8.91382 51.659 8.47944 52.1465 8.17007C52.6371 7.86069 53.2074 7.70601 53.8574 7.70601C54.5074 7.70601 55.0762 7.86069 55.5637 8.17007C56.0543 8.47944 56.4355 8.91382 56.7074 9.47319C56.9824 10.0326 57.1199 10.6873 57.1199 11.4373C57.1199 12.181 56.9824 12.831 56.7074 13.3873C56.4355 13.9435 56.0543 14.3763 55.5637 14.6857C55.0762 14.9951 54.5074 15.1498 53.8574 15.1498ZM53.8574 14.156C54.3512 14.156 54.7574 14.0294 55.0762 13.7763C55.3949 13.5232 55.6309 13.1904 55.784 12.7779C55.9371 12.3654 56.0137 11.9185 56.0137 11.4373C56.0137 10.956 55.9371 10.5076 55.784 10.0919C55.6309 9.67632 55.3949 9.34038 55.0762 9.08413C54.7574 8.82788 54.3512 8.69976 53.8574 8.69976C53.3637 8.69976 52.9574 8.82788 52.6387 9.08413C52.3199 9.34038 52.084 9.67632 51.9309 10.0919C51.7777 10.5076 51.7012 10.956 51.7012 11.4373C51.7012 11.9185 51.7777 12.3654 51.9309 12.7779C52.084 13.1904 52.3199 13.5232 52.6387 13.7763C52.9574 14.0294 53.3637 14.156 53.8574 14.156ZM64.6398 15.1685C64.1836 15.1685 63.7695 15.0826 63.3977 14.9107C63.0258 14.7357 62.7305 14.4841 62.5117 14.156C62.293 13.8248 62.1836 13.4248 62.1836 12.956C62.1836 12.5435 62.2648 12.2091 62.4273 11.9529C62.5898 11.6935 62.807 11.4904 63.0789 11.3435C63.3508 11.1966 63.6508 11.0873 63.9789 11.0154C64.3102 10.9404 64.643 10.881 64.9773 10.8373C65.4148 10.781 65.7695 10.7388 66.0414 10.7107C66.3164 10.6794 66.5164 10.6279 66.6414 10.556C66.7695 10.4841 66.8336 10.3591 66.8336 10.181V10.1435C66.8336 9.68101 66.707 9.32163 66.4539 9.06538C66.2039 8.80913 65.8242 8.68101 65.3148 8.68101C64.7867 8.68101 64.3727 8.79663 64.0727 9.02788C63.7727 9.25913 63.5617 9.50601 63.4398 9.76851L62.3898 9.39351C62.5773 8.95601 62.8273 8.61538 63.1398 8.37163C63.4555 8.12476 63.7992 7.95288 64.1711 7.85601C64.5461 7.75601 64.9148 7.70601 65.2773 7.70601C65.5086 7.70601 65.7742 7.73413 66.0742 7.79038C66.3773 7.84351 66.6695 7.95444 66.9508 8.12319C67.2352 8.29194 67.4711 8.54663 67.6586 8.88726C67.8461 9.22788 67.9398 9.68413 67.9398 10.256V14.9998H66.8336V14.0248H66.7773C66.7023 14.181 66.5773 14.3482 66.4023 14.5263C66.2273 14.7044 65.9945 14.856 65.7039 14.981C65.4133 15.106 65.0586 15.1685 64.6398 15.1685ZM64.8086 14.1748C65.2461 14.1748 65.6148 14.0888 65.9148 13.9169C66.218 13.7451 66.4461 13.5232 66.5992 13.2513C66.7555 12.9794 66.8336 12.6935 66.8336 12.3935V11.381C66.7867 11.4373 66.6836 11.4888 66.5242 11.5357C66.368 11.5794 66.1867 11.6185 65.9805 11.6529C65.7773 11.6841 65.5789 11.7123 65.3852 11.7373C65.1945 11.7591 65.0398 11.7779 64.9211 11.7935C64.6336 11.831 64.3648 11.8919 64.1148 11.9763C63.868 12.0576 63.668 12.181 63.5148 12.3466C63.3648 12.5091 63.2898 12.731 63.2898 13.0123C63.2898 13.3966 63.432 13.6873 63.7164 13.8841C64.0039 14.0779 64.368 14.1748 64.8086 14.1748ZM74.4965 12.056V7.79976H75.6027V14.9998H74.4965V13.781H74.4215C74.2527 14.1466 73.9902 14.4576 73.634 14.7138C73.2777 14.9669 72.8277 15.0935 72.284 15.0935C71.834 15.0935 71.434 14.9951 71.084 14.7982C70.734 14.5982 70.459 14.2982 70.259 13.8982C70.059 13.4951 69.959 12.9873 69.959 12.3748V7.79976H71.0652V12.2998C71.0652 12.8248 71.2121 13.2435 71.5059 13.556C71.8027 13.8685 72.1809 14.0248 72.6402 14.0248C72.9152 14.0248 73.1949 13.9544 73.4793 13.8138C73.7668 13.6732 74.0074 13.4576 74.2012 13.1669C74.398 12.8763 74.4965 12.506 74.4965 12.056ZM80.7602 7.79976V8.73726H77.0289V7.79976H80.7602ZM78.1164 6.07476H79.2227V12.9373C79.2227 13.2498 79.268 13.4841 79.3586 13.6404C79.4523 13.7935 79.5711 13.8966 79.7148 13.9498C79.8617 13.9998 80.0164 14.0248 80.1789 14.0248C80.3008 14.0248 80.4008 14.0185 80.4789 14.006C80.557 13.9904 80.6195 13.9779 80.6664 13.9685L80.8914 14.9623C80.8164 14.9904 80.7117 15.0185 80.5773 15.0466C80.443 15.0779 80.2727 15.0935 80.0664 15.0935C79.7539 15.0935 79.4477 15.0263 79.1477 14.8919C78.8508 14.7576 78.6039 14.5529 78.407 14.2779C78.2133 14.0029 78.1164 13.656 78.1164 13.2373V6.07476ZM85.2719 15.1498C84.6219 15.1498 84.0516 14.9951 83.5609 14.6857C83.0734 14.3763 82.6922 13.9435 82.4172 13.3873C82.1453 12.831 82.0094 12.181 82.0094 11.4373C82.0094 10.6873 82.1453 10.0326 82.4172 9.47319C82.6922 8.91382 83.0734 8.47944 83.5609 8.17007C84.0516 7.86069 84.6219 7.70601 85.2719 7.70601C85.9219 7.70601 86.4906 7.86069 86.9781 8.17007C87.4687 8.47944 87.85 8.91382 88.1219 9.47319C88.3969 10.0326 88.5344 10.6873 88.5344 11.4373C88.5344 12.181 88.3969 12.831 88.1219 13.3873C87.85 13.9435 87.4687 14.3763 86.9781 14.6857C86.4906 14.9951 85.9219 15.1498 85.2719 15.1498ZM85.2719 14.156C85.7656 14.156 86.1719 14.0294 86.4906 13.7763C86.8094 13.5232 87.0453 13.1904 87.1984 12.7779C87.3516 12.3654 87.4281 11.9185 87.4281 11.4373C87.4281 10.956 87.3516 10.5076 87.1984 10.0919C87.0453 9.67632 86.8094 9.34038 86.4906 9.08413C86.1719 8.82788 85.7656 8.69976 85.2719 8.69976C84.7781 8.69976 84.3719 8.82788 84.0531 9.08413C83.7344 9.34038 83.4984 9.67632 83.3453 10.0919C83.1922 10.5076 83.1156 10.956 83.1156 11.4373C83.1156 11.9185 83.1922 12.3654 83.3453 12.7779C83.4984 13.1904 83.7344 13.5232 84.0531 13.7763C84.3719 14.0294 84.7781 14.156 85.2719 14.156ZM94.348 10.3685V11.3998H90.148V10.3685H94.348ZM101.395 9.41226L100.401 9.69351C100.338 9.52788 100.246 9.36694 100.124 9.21069C100.005 9.05132 99.843 8.92007 99.6367 8.81694C99.4305 8.71382 99.1664 8.66226 98.8445 8.66226C98.4039 8.66226 98.0367 8.76382 97.743 8.96694C97.4523 9.16694 97.307 9.42163 97.307 9.73101C97.307 10.006 97.407 10.2232 97.607 10.3826C97.807 10.5419 98.1195 10.6748 98.5445 10.781L99.6133 11.0435C100.257 11.1998 100.737 11.4388 101.052 11.7607C101.368 12.0794 101.526 12.4904 101.526 12.9935C101.526 13.406 101.407 13.7748 101.17 14.0998C100.935 14.4248 100.607 14.681 100.185 14.8685C99.7633 15.056 99.2727 15.1498 98.7133 15.1498C97.9789 15.1498 97.3711 14.9904 96.8898 14.6716C96.4086 14.3529 96.1039 13.8873 95.9758 13.2748L97.0258 13.0123C97.1258 13.3998 97.3148 13.6904 97.593 13.8841C97.8742 14.0779 98.2414 14.1748 98.6945 14.1748C99.2102 14.1748 99.6195 14.0654 99.9227 13.8466C100.229 13.6248 100.382 13.3591 100.382 13.0498C100.382 12.7998 100.295 12.5904 100.12 12.4216C99.9445 12.2498 99.6758 12.1216 99.3133 12.0373L98.1133 11.756C97.4539 11.5998 96.9695 11.3576 96.6602 11.0294C96.3539 10.6982 96.2008 10.2841 96.2008 9.78726C96.2008 9.38101 96.3148 9.02163 96.543 8.70913C96.7742 8.39663 97.0883 8.15132 97.4852 7.97319C97.8852 7.79507 98.3383 7.70601 98.8445 7.70601C99.557 7.70601 100.116 7.86226 100.523 8.17476C100.932 8.48726 101.223 8.89976 101.395 9.41226ZM107.729 12.056V7.79976H108.835V14.9998H107.729V13.781H107.654C107.485 14.1466 107.222 14.4576 106.866 14.7138C106.51 14.9669 106.06 15.0935 105.516 15.0935C105.066 15.0935 104.666 14.9951 104.316 14.7982C103.966 14.5982 103.691 14.2982 103.491 13.8982C103.291 13.4951 103.191 12.9873 103.191 12.3748V7.79976H104.297V12.2998C104.297 12.8248 104.444 13.2435 104.738 13.556C105.035 13.8685 105.413 14.0248 105.872 14.0248C106.147 14.0248 106.427 13.9544 106.711 13.8138C106.999 13.6732 107.239 13.4576 107.433 13.1669C107.63 12.8763 107.729 12.506 107.729 12.056ZM113.767 17.8498C113.233 17.8498 112.773 17.781 112.389 17.6435C112.005 17.5091 111.684 17.331 111.428 17.1091C111.175 16.8904 110.973 16.656 110.823 16.406L111.705 15.7873C111.805 15.9185 111.931 16.0685 112.084 16.2373C112.237 16.4091 112.447 16.5576 112.712 16.6826C112.981 16.8107 113.333 16.8748 113.767 16.8748C114.348 16.8748 114.828 16.7341 115.206 16.4529C115.584 16.1716 115.773 15.731 115.773 15.131V13.6685H115.68C115.598 13.7998 115.483 13.9623 115.333 14.156C115.186 14.3466 114.973 14.5169 114.695 14.6669C114.42 14.8138 114.048 14.8873 113.58 14.8873C112.998 14.8873 112.477 14.7498 112.014 14.4748C111.555 14.1998 111.191 13.7998 110.922 13.2748C110.656 12.7498 110.523 12.1123 110.523 11.3623C110.523 10.6248 110.653 9.98257 110.912 9.43569C111.172 8.88569 111.533 8.46069 111.995 8.16069C112.458 7.85757 112.992 7.70601 113.598 7.70601C114.067 7.70601 114.439 7.78413 114.714 7.94038C114.992 8.09351 115.205 8.26851 115.352 8.46538C115.502 8.65913 115.617 8.81851 115.698 8.94351H115.811V7.79976H116.88V15.206C116.88 15.8248 116.739 16.3279 116.458 16.7154C116.18 17.106 115.805 17.3919 115.333 17.5732C114.864 17.7576 114.342 17.8498 113.767 17.8498ZM113.73 13.8935C114.173 13.8935 114.548 13.7919 114.855 13.5888C115.161 13.3857 115.394 13.0935 115.553 12.7123C115.712 12.331 115.792 11.8748 115.792 11.3435C115.792 10.8248 115.714 10.3669 115.558 9.97007C115.402 9.57319 115.17 9.26226 114.864 9.03726C114.558 8.81226 114.18 8.69976 113.73 8.69976C113.261 8.69976 112.87 8.81851 112.558 9.05601C112.248 9.29351 112.016 9.61226 111.859 10.0123C111.706 10.4123 111.63 10.856 111.63 11.3435C111.63 11.8435 111.708 12.2857 111.864 12.6701C112.023 13.0513 112.258 13.3513 112.567 13.5701C112.88 13.7857 113.267 13.8935 113.73 13.8935ZM121.811 17.8498C121.277 17.8498 120.817 17.781 120.433 17.6435C120.048 17.5091 119.728 17.331 119.472 17.1091C119.219 16.8904 119.017 16.656 118.867 16.406L119.748 15.7873C119.848 15.9185 119.975 16.0685 120.128 16.2373C120.281 16.4091 120.491 16.5576 120.756 16.6826C121.025 16.8107 121.377 16.8748 121.811 16.8748C122.392 16.8748 122.872 16.7341 123.25 16.4529C123.628 16.1716 123.817 15.731 123.817 15.131V13.6685H123.723C123.642 13.7998 123.527 13.9623 123.377 14.156C123.23 14.3466 123.017 14.5169 122.739 14.6669C122.464 14.8138 122.092 14.8873 121.623 14.8873C121.042 14.8873 120.52 14.7498 120.058 14.4748C119.598 14.1998 119.234 13.7998 118.966 13.2748C118.7 12.7498 118.567 12.1123 118.567 11.3623C118.567 10.6248 118.697 9.98257 118.956 9.43569C119.216 8.88569 119.577 8.46069 120.039 8.16069C120.502 7.85757 121.036 7.70601 121.642 7.70601C122.111 7.70601 122.483 7.78413 122.758 7.94038C123.036 8.09351 123.248 8.26851 123.395 8.46538C123.545 8.65913 123.661 8.81851 123.742 8.94351H123.855V7.79976H124.923V15.206C124.923 15.8248 124.783 16.3279 124.502 16.7154C124.223 17.106 123.848 17.3919 123.377 17.5732C122.908 17.7576 122.386 17.8498 121.811 17.8498ZM121.773 13.8935C122.217 13.8935 122.592 13.7919 122.898 13.5888C123.205 13.3857 123.437 13.0935 123.597 12.7123C123.756 12.331 123.836 11.8748 123.836 11.3435C123.836 10.8248 123.758 10.3669 123.602 9.97007C123.445 9.57319 123.214 9.26226 122.908 9.03726C122.602 8.81226 122.223 8.69976 121.773 8.69976C121.305 8.69976 120.914 8.81851 120.602 9.05601C120.292 9.29351 120.059 9.61226 119.903 10.0123C119.75 10.4123 119.673 10.856 119.673 11.3435C119.673 11.8435 119.752 12.2857 119.908 12.6701C120.067 13.0513 120.302 13.3513 120.611 13.5701C120.923 13.7857 121.311 13.8935 121.773 13.8935ZM129.967 15.1498C129.273 15.1498 128.675 14.9966 128.172 14.6904C127.672 14.381 127.286 13.9498 127.014 13.3966C126.745 12.8404 126.611 12.1935 126.611 11.456C126.611 10.7185 126.745 10.0685 127.014 9.50601C127.286 8.94038 127.664 8.49976 128.148 8.18413C128.636 7.86538 129.205 7.70601 129.855 7.70601C130.23 7.70601 130.6 7.76851 130.966 7.89351C131.331 8.01851 131.664 8.22163 131.964 8.50288C132.264 8.78101 132.503 9.14976 132.681 9.60913C132.859 10.0685 132.948 10.6341 132.948 11.306V11.7748H127.398V10.8185H131.823C131.823 10.4123 131.742 10.0498 131.58 9.73101C131.42 9.41226 131.192 9.16069 130.895 8.97632C130.602 8.79194 130.255 8.69976 129.855 8.69976C129.414 8.69976 129.033 8.80913 128.711 9.02788C128.392 9.24351 128.147 9.52476 127.975 9.87163C127.803 10.2185 127.717 10.5904 127.717 10.9873V11.6248C127.717 12.1685 127.811 12.6294 127.998 13.0076C128.189 13.3826 128.453 13.6685 128.791 13.8654C129.128 14.0591 129.52 14.156 129.967 14.156C130.258 14.156 130.52 14.1154 130.755 14.0341C130.992 13.9498 131.197 13.8248 131.369 13.6591C131.541 13.4904 131.673 13.281 131.767 13.031L132.836 13.331C132.723 13.6935 132.534 14.0123 132.269 14.2873C132.003 14.5591 131.675 14.7716 131.284 14.9248C130.894 15.0748 130.455 15.1498 129.967 15.1498ZM139.731 9.41226L138.737 9.69351C138.675 9.52788 138.583 9.36694 138.461 9.21069C138.342 9.05132 138.18 8.92007 137.973 8.81694C137.767 8.71382 137.503 8.66226 137.181 8.66226C136.741 8.66226 136.373 8.76382 136.08 8.96694C135.789 9.16694 135.644 9.42163 135.644 9.73101C135.644 10.006 135.744 10.2232 135.944 10.3826C136.144 10.5419 136.456 10.6748 136.881 10.781L137.95 11.0435C138.594 11.1998 139.073 11.4388 139.389 11.7607C139.705 12.0794 139.862 12.4904 139.862 12.9935C139.862 13.406 139.744 13.7748 139.506 14.0998C139.272 14.4248 138.944 14.681 138.522 14.8685C138.1 15.056 137.609 15.1498 137.05 15.1498C136.316 15.1498 135.708 14.9904 135.227 14.6716C134.745 14.3529 134.441 13.8873 134.312 13.2748L135.362 13.0123C135.462 13.3998 135.652 13.6904 135.93 13.8841C136.211 14.0779 136.578 14.1748 137.031 14.1748C137.547 14.1748 137.956 14.0654 138.259 13.8466C138.566 13.6248 138.719 13.3591 138.719 13.0498C138.719 12.7998 138.631 12.5904 138.456 12.4216C138.281 12.2498 138.012 12.1216 137.65 12.0373L136.45 11.756C135.791 11.5998 135.306 11.3576 134.997 11.0294C134.691 10.6982 134.537 10.2841 134.537 9.78726C134.537 9.38101 134.652 9.02163 134.88 8.70913C135.111 8.39663 135.425 8.15132 135.822 7.97319C136.222 7.79507 136.675 7.70601 137.181 7.70601C137.894 7.70601 138.453 7.86226 138.859 8.17476C139.269 8.48726 139.559 8.89976 139.731 9.41226ZM144.659 7.79976V8.73726H140.928V7.79976H144.659ZM142.015 6.07476H143.121V12.9373C143.121 13.2498 143.167 13.4841 143.257 13.6404C143.351 13.7935 143.47 13.8966 143.614 13.9498C143.761 13.9998 143.915 14.0248 144.078 14.0248C144.2 14.0248 144.3 14.0185 144.378 14.006C144.456 13.9904 144.518 13.9779 144.565 13.9685L144.79 14.9623C144.715 14.9904 144.611 15.0185 144.476 15.0466C144.342 15.0779 144.171 15.0935 143.965 15.0935C143.653 15.0935 143.346 15.0263 143.046 14.8919C142.75 14.7576 142.503 14.5529 142.306 14.2779C142.112 14.0029 142.015 13.656 142.015 13.2373V6.07476ZM150.036 14.9998V7.79976H151.104V8.88726H151.179C151.311 8.53101 151.548 8.24194 151.892 8.02007C152.236 7.79819 152.623 7.68726 153.054 7.68726C153.136 7.68726 153.237 7.68882 153.359 7.69194C153.481 7.69507 153.573 7.69976 153.636 7.70601V8.83101C153.598 8.82163 153.512 8.80757 153.378 8.78882C153.246 8.76694 153.107 8.75601 152.961 8.75601C152.611 8.75601 152.298 8.82944 152.023 8.97632C151.751 9.12007 151.536 9.32007 151.376 9.57632C151.22 9.82944 151.142 10.1185 151.142 10.4435V14.9998H150.036ZM157.746 15.1498C157.053 15.1498 156.454 14.9966 155.951 14.6904C155.451 14.381 155.065 13.9498 154.793 13.3966C154.525 12.8404 154.39 12.1935 154.39 11.456C154.39 10.7185 154.525 10.0685 154.793 9.50601C155.065 8.94038 155.443 8.49976 155.928 8.18413C156.415 7.86538 156.984 7.70601 157.634 7.70601C158.009 7.70601 158.379 7.76851 158.745 7.89351C159.111 8.01851 159.443 8.22163 159.743 8.50288C160.043 8.78101 160.282 9.14976 160.461 9.60913C160.639 10.0685 160.728 10.6341 160.728 11.306V11.7748H155.178V10.8185H159.603C159.603 10.4123 159.521 10.0498 159.359 9.73101C159.2 9.41226 158.971 9.16069 158.675 8.97632C158.381 8.79194 158.034 8.69976 157.634 8.69976C157.193 8.69976 156.812 8.80913 156.49 9.02788C156.171 9.24351 155.926 9.52476 155.754 9.87163C155.582 10.2185 155.496 10.5904 155.496 10.9873V11.6248C155.496 12.1685 155.59 12.6294 155.778 13.0076C155.968 13.3826 156.232 13.6685 156.57 13.8654C156.907 14.0591 157.3 14.156 157.746 14.156C158.037 14.156 158.3 14.1154 158.534 14.0341C158.771 13.9498 158.976 13.8248 159.148 13.6591C159.32 13.4904 159.453 13.281 159.546 13.031L160.615 13.331C160.503 13.6935 160.314 14.0123 160.048 14.2873C159.782 14.5591 159.454 14.7716 159.064 14.9248C158.673 15.0748 158.234 15.1498 157.746 15.1498ZM167.511 9.41226L166.517 9.69351C166.454 9.52788 166.362 9.36694 166.24 9.21069C166.121 9.05132 165.959 8.92007 165.753 8.81694C165.546 8.71382 165.282 8.66226 164.961 8.66226C164.52 8.66226 164.153 8.76382 163.859 8.96694C163.568 9.16694 163.423 9.42163 163.423 9.73101C163.423 10.006 163.523 10.2232 163.723 10.3826C163.923 10.5419 164.236 10.6748 164.661 10.781L165.729 11.0435C166.373 11.1998 166.853 11.4388 167.168 11.7607C167.484 12.0794 167.642 12.4904 167.642 12.9935C167.642 13.406 167.523 13.7748 167.286 14.0998C167.051 14.4248 166.723 14.681 166.301 14.8685C165.879 15.056 165.389 15.1498 164.829 15.1498C164.095 15.1498 163.487 14.9904 163.006 14.6716C162.525 14.3529 162.22 13.8873 162.092 13.2748L163.142 13.0123C163.242 13.3998 163.431 13.6904 163.709 13.8841C163.99 14.0779 164.357 14.1748 164.811 14.1748C165.326 14.1748 165.736 14.0654 166.039 13.8466C166.345 13.6248 166.498 13.3591 166.498 13.0498C166.498 12.7998 166.411 12.5904 166.236 12.4216C166.061 12.2498 165.792 12.1216 165.429 12.0373L164.229 11.756C163.57 11.5998 163.086 11.3576 162.776 11.0294C162.47 10.6982 162.317 10.2841 162.317 9.78726C162.317 9.38101 162.431 9.02163 162.659 8.70913C162.89 8.39663 163.204 8.15132 163.601 7.97319C164.001 7.79507 164.454 7.70601 164.961 7.70601C165.673 7.70601 166.232 7.86226 166.639 8.17476C167.048 8.48726 167.339 8.89976 167.511 9.41226ZM169.307 17.6998V7.79976H170.376V8.94351H170.507C170.588 8.81851 170.701 8.65913 170.845 8.46538C170.991 8.26851 171.201 8.09351 171.473 7.94038C171.748 7.78413 172.12 7.70601 172.588 7.70601C173.195 7.70601 173.729 7.85757 174.191 8.16069C174.654 8.46382 175.015 8.89351 175.274 9.44976C175.534 10.006 175.663 10.6623 175.663 11.4185C175.663 12.181 175.534 12.8419 175.274 13.4013C175.015 13.9576 174.655 14.3888 174.196 14.6951C173.737 14.9982 173.207 15.1498 172.607 15.1498C172.145 15.1498 171.774 15.0732 171.496 14.9201C171.218 14.7638 171.004 14.5873 170.854 14.3904C170.704 14.1904 170.588 14.0248 170.507 13.8935H170.413V17.6998H169.307ZM170.395 11.3998C170.395 11.9435 170.474 12.4232 170.634 12.8388C170.793 13.2513 171.026 13.5748 171.332 13.8091C171.638 14.0404 172.013 14.156 172.457 14.156C172.92 14.156 173.305 14.0341 173.615 13.7904C173.927 13.5435 174.162 13.2123 174.318 12.7966C174.477 12.3779 174.557 11.9123 174.557 11.3998C174.557 10.8935 174.479 10.4373 174.323 10.031C174.17 9.62163 173.937 9.29819 173.624 9.06069C173.315 8.82007 172.926 8.69976 172.457 8.69976C172.007 8.69976 171.629 8.81382 171.323 9.04194C171.016 9.26694 170.785 9.58257 170.629 9.98882C170.473 10.3919 170.395 10.8623 170.395 11.3998ZM180.276 15.1498C179.626 15.1498 179.055 14.9951 178.565 14.6857C178.077 14.3763 177.696 13.9435 177.421 13.3873C177.149 12.831 177.013 12.181 177.013 11.4373C177.013 10.6873 177.149 10.0326 177.421 9.47319C177.696 8.91382 178.077 8.47944 178.565 8.17007C179.055 7.86069 179.626 7.70601 180.276 7.70601C180.926 7.70601 181.495 7.86069 181.982 8.17007C182.473 8.47944 182.854 8.91382 183.126 9.47319C183.401 10.0326 183.538 10.6873 183.538 11.4373C183.538 12.181 183.401 12.831 183.126 13.3873C182.854 13.9435 182.473 14.3763 181.982 14.6857C181.495 14.9951 180.926 15.1498 180.276 15.1498ZM180.276 14.156C180.77 14.156 181.176 14.0294 181.495 13.7763C181.813 13.5232 182.049 13.1904 182.202 12.7779C182.355 12.3654 182.432 11.9185 182.432 11.4373C182.432 10.956 182.355 10.5076 182.202 10.0919C182.049 9.67632 181.813 9.34038 181.495 9.08413C181.176 8.82788 180.77 8.69976 180.276 8.69976C179.782 8.69976 179.376 8.82788 179.057 9.08413C178.738 9.34038 178.502 9.67632 178.349 10.0919C178.196 10.5076 178.12 10.956 178.12 11.4373C178.12 11.9185 178.196 12.3654 178.349 12.7779C178.502 13.1904 178.738 13.5232 179.057 13.7763C179.376 14.0294 179.782 14.156 180.276 14.156ZM186.333 10.6685V14.9998H185.227V7.79976H186.296V8.92476H186.389C186.558 8.55913 186.814 8.26538 187.158 8.04351C187.502 7.81851 187.946 7.70601 188.489 7.70601C188.977 7.70601 189.404 7.80601 189.769 8.00601C190.135 8.20288 190.419 8.50288 190.622 8.90601C190.825 9.30601 190.927 9.81226 190.927 10.4248V14.9998H189.821V10.4998C189.821 9.93413 189.674 9.49351 189.38 9.17788C189.086 8.85913 188.683 8.69976 188.171 8.69976C187.818 8.69976 187.502 8.77632 187.224 8.92944C186.949 9.08257 186.732 9.30601 186.572 9.59976C186.413 9.89351 186.333 10.2498 186.333 10.6685ZM198.048 9.41226L197.055 9.69351C196.992 9.52788 196.9 9.36694 196.778 9.21069C196.659 9.05132 196.497 8.92007 196.291 8.81694C196.084 8.71382 195.82 8.66226 195.498 8.66226C195.058 8.66226 194.691 8.76382 194.397 8.96694C194.106 9.16694 193.961 9.42163 193.961 9.73101C193.961 10.006 194.061 10.2232 194.261 10.3826C194.461 10.5419 194.773 10.6748 195.198 10.781L196.267 11.0435C196.911 11.1998 197.391 11.4388 197.706 11.7607C198.022 12.0794 198.18 12.4904 198.18 12.9935C198.18 13.406 198.061 13.7748 197.823 14.0998C197.589 14.4248 197.261 14.681 196.839 14.8685C196.417 15.056 195.927 15.1498 195.367 15.1498C194.633 15.1498 194.025 14.9904 193.544 14.6716C193.062 14.3529 192.758 13.8873 192.63 13.2748L193.68 13.0123C193.78 13.3998 193.969 13.6904 194.247 13.8841C194.528 14.0779 194.895 14.1748 195.348 14.1748C195.864 14.1748 196.273 14.0654 196.577 13.8466C196.883 13.6248 197.036 13.3591 197.036 13.0498C197.036 12.7998 196.948 12.5904 196.773 12.4216C196.598 12.2498 196.33 12.1216 195.967 12.0373L194.767 11.756C194.108 11.5998 193.623 11.3576 193.314 11.0294C193.008 10.6982 192.855 10.2841 192.855 9.78726C192.855 9.38101 192.969 9.02163 193.197 8.70913C193.428 8.39663 193.742 8.15132 194.139 7.97319C194.539 7.79507 194.992 7.70601 195.498 7.70601C196.211 7.70601 196.77 7.86226 197.177 8.17476C197.586 8.48726 197.877 8.89976 198.048 9.41226ZM202.864 15.1498C202.17 15.1498 201.571 14.9966 201.068 14.6904C200.568 14.381 200.182 13.9498 199.911 13.3966C199.642 12.8404 199.507 12.1935 199.507 11.456C199.507 10.7185 199.642 10.0685 199.911 9.50601C200.182 8.94038 200.561 8.49976 201.045 8.18413C201.532 7.86538 202.101 7.70601 202.751 7.70601C203.126 7.70601 203.496 7.76851 203.862 7.89351C204.228 8.01851 204.561 8.22163 204.861 8.50288C205.161 8.78101 205.4 9.14976 205.578 9.60913C205.756 10.0685 205.845 10.6341 205.845 11.306V11.7748H200.295V10.8185H204.72C204.72 10.4123 204.639 10.0498 204.476 9.73101C204.317 9.41226 204.089 9.16069 203.792 8.97632C203.498 8.79194 203.151 8.69976 202.751 8.69976C202.311 8.69976 201.929 8.80913 201.607 9.02788C201.289 9.24351 201.043 9.52476 200.871 9.87163C200.7 10.2185 200.614 10.5904 200.614 10.9873V11.6248C200.614 12.1685 200.707 12.6294 200.895 13.0076C201.086 13.3826 201.35 13.6685 201.687 13.8654C202.025 14.0591 202.417 14.156 202.864 14.156C203.154 14.156 203.417 14.1154 203.651 14.0341C203.889 13.9498 204.093 13.8248 204.265 13.6591C204.437 13.4904 204.57 13.281 204.664 13.031L205.732 13.331C205.62 13.6935 205.431 14.0123 205.165 14.2873C204.9 14.5591 204.571 14.7716 204.181 14.9248C203.79 15.0748 203.351 15.1498 202.864 15.1498ZM212.628 9.41226L211.634 9.69351C211.571 9.52788 211.479 9.36694 211.357 9.21069C211.239 9.05132 211.076 8.92007 210.87 8.81694C210.664 8.71382 210.4 8.66226 210.078 8.66226C209.637 8.66226 209.27 8.76382 208.976 8.96694C208.686 9.16694 208.54 9.42163 208.54 9.73101C208.54 10.006 208.64 10.2232 208.84 10.3826C209.04 10.5419 209.353 10.6748 209.778 10.781L210.846 11.0435C211.49 11.1998 211.97 11.4388 212.286 11.7607C212.601 12.0794 212.759 12.4904 212.759 12.9935C212.759 13.406 212.64 13.7748 212.403 14.0998C212.168 14.4248 211.84 14.681 211.418 14.8685C210.996 15.056 210.506 15.1498 209.946 15.1498C209.212 15.1498 208.604 14.9904 208.123 14.6716C207.642 14.3529 207.337 13.8873 207.209 13.2748L208.259 13.0123C208.359 13.3998 208.548 13.6904 208.826 13.8841C209.107 14.0779 209.475 14.1748 209.928 14.1748C210.443 14.1748 210.853 14.0654 211.156 13.8466C211.462 13.6248 211.615 13.3591 211.615 13.0498C211.615 12.7998 211.528 12.5904 211.353 12.4216C211.178 12.2498 210.909 12.1216 210.546 12.0373L209.346 11.756C208.687 11.5998 208.203 11.3576 207.893 11.0294C207.587 10.6982 207.434 10.2841 207.434 9.78726C207.434 9.38101 207.548 9.02163 207.776 8.70913C208.007 8.39663 208.321 8.15132 208.718 7.97319C209.118 7.79507 209.571 7.70601 210.078 7.70601C210.79 7.70601 211.35 7.86226 211.756 8.17476C212.165 8.48726 212.456 8.89976 212.628 9.41226ZM4.13125 35.1685C3.675 35.1685 3.26094 35.0826 2.88906 34.9107C2.51719 34.7357 2.22187 34.4841 2.00313 34.156C1.78438 33.8248 1.675 33.4248 1.675 32.956C1.675 32.5435 1.75625 32.2091 1.91875 31.9529C2.08125 31.6935 2.29844 31.4904 2.57031 31.3435C2.84219 31.1966 3.14219 31.0873 3.47031 31.0154C3.80156 30.9404 4.13438 30.881 4.46875 30.8373C4.90625 30.781 5.26094 30.7388 5.53281 30.7107C5.80781 30.6794 6.00781 30.6279 6.13281 30.556C6.26094 30.4841 6.325 30.3591 6.325 30.181V30.1435C6.325 29.681 6.19844 29.3216 5.94531 29.0654C5.69531 28.8091 5.31563 28.681 4.80625 28.681C4.27813 28.681 3.86406 28.7966 3.56406 29.0279C3.26406 29.2591 3.05313 29.506 2.93125 29.7685L1.88125 29.3935C2.06875 28.956 2.31875 28.6154 2.63125 28.3716C2.94688 28.1248 3.29063 27.9529 3.6625 27.856C4.0375 27.756 4.40625 27.706 4.76875 27.706C5 27.706 5.26563 27.7341 5.56563 27.7904C5.86875 27.8435 6.16094 27.9544 6.44219 28.1232C6.72656 28.2919 6.9625 28.5466 7.15 28.8873C7.3375 29.2279 7.43125 29.6841 7.43125 30.256V34.9998H6.325V34.0248H6.26875C6.19375 34.181 6.06875 34.3482 5.89375 34.5263C5.71875 34.7044 5.48594 34.856 5.19531 34.981C4.90469 35.106 4.55 35.1685 4.13125 35.1685ZM4.3 34.1748C4.7375 34.1748 5.10625 34.0888 5.40625 33.9169C5.70938 33.7451 5.9375 33.5232 6.09062 33.2513C6.24687 32.9794 6.325 32.6935 6.325 32.3935V31.381C6.27813 31.4373 6.175 31.4888 6.01562 31.5357C5.85937 31.5794 5.67812 31.6185 5.47187 31.6529C5.26875 31.6841 5.07031 31.7123 4.87656 31.7373C4.68594 31.7591 4.53125 31.7779 4.4125 31.7935C4.125 31.831 3.85625 31.8919 3.60625 31.9763C3.35937 32.0576 3.15937 32.181 3.00625 32.3466C2.85625 32.5091 2.78125 32.731 2.78125 33.0123C2.78125 33.3966 2.92344 33.6873 3.20781 33.8841C3.49531 34.0779 3.85938 34.1748 4.3 34.1748ZM10.5566 30.6685V34.9998H9.45039V27.7998H10.5191V28.9248H10.6129C10.7816 28.5591 11.0379 28.2654 11.3816 28.0435C11.7254 27.8185 12.1691 27.706 12.7129 27.706C13.2004 27.706 13.627 27.806 13.9926 28.006C14.3582 28.2029 14.6426 28.5029 14.8457 28.906C15.0488 29.306 15.1504 29.8123 15.1504 30.4248V34.9998H14.0441V30.4998C14.0441 29.9341 13.8973 29.4935 13.6035 29.1779C13.3098 28.8591 12.9066 28.6998 12.3941 28.6998C12.041 28.6998 11.7254 28.7763 11.4473 28.9294C11.1723 29.0826 10.9551 29.306 10.7957 29.5998C10.6363 29.8935 10.5566 30.2498 10.5566 30.6685ZM19.8906 35.1498C19.2906 35.1498 18.7609 34.9982 18.3016 34.6951C17.8422 34.3888 17.4828 33.9576 17.2234 33.4013C16.9641 32.8419 16.8344 32.181 16.8344 31.4185C16.8344 30.6623 16.9641 30.006 17.2234 29.4498C17.4828 28.8935 17.8437 28.4638 18.3062 28.1607C18.7687 27.8576 19.3031 27.706 19.9094 27.706C20.3781 27.706 20.7484 27.7841 21.0203 27.9404C21.2953 28.0935 21.5047 28.2685 21.6484 28.4654C21.7953 28.6591 21.9094 28.8185 21.9906 28.9435H22.0844V25.3998H23.1906V34.9998H22.1219V33.8935H21.9906C21.9094 34.0248 21.7937 34.1904 21.6437 34.3904C21.4937 34.5873 21.2797 34.7638 21.0016 34.9201C20.7234 35.0732 20.3531 35.1498 19.8906 35.1498ZM20.0406 34.156C20.4844 34.156 20.8594 34.0404 21.1656 33.8091C21.4719 33.5748 21.7047 33.2513 21.8641 32.8388C22.0234 32.4232 22.1031 31.9435 22.1031 31.3998C22.1031 30.8623 22.025 30.3919 21.8687 29.9888C21.7125 29.5826 21.4812 29.2669 21.175 29.0419C20.8687 28.8138 20.4906 28.6998 20.0406 28.6998C19.5719 28.6998 19.1812 28.8201 18.8687 29.0607C18.5594 29.2982 18.3266 29.6216 18.1703 30.031C18.0172 30.4373 17.9406 30.8935 17.9406 31.3998C17.9406 31.9123 18.0187 32.3779 18.175 32.7966C18.3344 33.2123 18.5687 33.5435 18.8781 33.7904C19.1906 34.0341 19.5781 34.156 20.0406 34.156ZM34.1828 29.4123L33.1891 29.6935C33.1266 29.5279 33.0344 29.3669 32.9125 29.2107C32.7938 29.0513 32.6313 28.9201 32.425 28.8169C32.2187 28.7138 31.9547 28.6623 31.6328 28.6623C31.1922 28.6623 30.825 28.7638 30.5313 28.9669C30.2406 29.1669 30.0953 29.4216 30.0953 29.731C30.0953 30.006 30.1953 30.2232 30.3953 30.3826C30.5953 30.5419 30.9078 30.6748 31.3328 30.781L32.4016 31.0435C33.0453 31.1998 33.525 31.4388 33.8406 31.7607C34.1563 32.0794 34.3141 32.4904 34.3141 32.9935C34.3141 33.406 34.1953 33.7748 33.9578 34.0998C33.7234 34.4248 33.3953 34.681 32.9734 34.8685C32.5516 35.056 32.0609 35.1498 31.5016 35.1498C30.7672 35.1498 30.1594 34.9904 29.6781 34.6716C29.1969 34.3529 28.8922 33.8873 28.7641 33.2748L29.8141 33.0123C29.9141 33.3998 30.1031 33.6904 30.3813 33.8841C30.6625 34.0779 31.0297 34.1748 31.4828 34.1748C31.9984 34.1748 32.4078 34.0654 32.7109 33.8466C33.0172 33.6248 33.1703 33.3591 33.1703 33.0498C33.1703 32.7998 33.0828 32.5904 32.9078 32.4216C32.7328 32.2498 32.4641 32.1216 32.1016 32.0373L30.9016 31.756C30.2422 31.5998 29.7578 31.3576 29.4484 31.0294C29.1422 30.6982 28.9891 30.2841 28.9891 29.7873C28.9891 29.381 29.1031 29.0216 29.3313 28.7091C29.5625 28.3966 29.8766 28.1513 30.2734 27.9732C30.6734 27.7951 31.1266 27.706 31.6328 27.706C32.3453 27.706 32.9047 27.8623 33.3109 28.1748C33.7203 28.4873 34.0109 28.8998 34.1828 29.4123ZM38.098 35.1685C37.6418 35.1685 37.2277 35.0826 36.8559 34.9107C36.484 34.7357 36.1887 34.4841 35.9699 34.156C35.7512 33.8248 35.6418 33.4248 35.6418 32.956C35.6418 32.5435 35.723 32.2091 35.8855 31.9529C36.048 31.6935 36.2652 31.4904 36.5371 31.3435C36.809 31.1966 37.109 31.0873 37.4371 31.0154C37.7684 30.9404 38.1012 30.881 38.4355 30.8373C38.873 30.781 39.2277 30.7388 39.4996 30.7107C39.7746 30.6794 39.9746 30.6279 40.0996 30.556C40.2277 30.4841 40.2918 30.3591 40.2918 30.181V30.1435C40.2918 29.681 40.1652 29.3216 39.9121 29.0654C39.6621 28.8091 39.2824 28.681 38.773 28.681C38.2449 28.681 37.8309 28.7966 37.5309 29.0279C37.2309 29.2591 37.0199 29.506 36.898 29.7685L35.848 29.3935C36.0355 28.956 36.2855 28.6154 36.598 28.3716C36.9137 28.1248 37.2574 27.9529 37.6293 27.856C38.0043 27.756 38.373 27.706 38.7355 27.706C38.9668 27.706 39.2324 27.7341 39.5324 27.7904C39.8355 27.8435 40.1277 27.9544 40.409 28.1232C40.6934 28.2919 40.9293 28.5466 41.1168 28.8873C41.3043 29.2279 41.398 29.6841 41.398 30.256V34.9998H40.2918V34.0248H40.2355C40.1605 34.181 40.0355 34.3482 39.8605 34.5263C39.6855 34.7044 39.4527 34.856 39.1621 34.981C38.8715 35.106 38.5168 35.1685 38.098 35.1685ZM38.2668 34.1748C38.7043 34.1748 39.073 34.0888 39.373 33.9169C39.6762 33.7451 39.9043 33.5232 40.0574 33.2513C40.2137 32.9794 40.2918 32.6935 40.2918 32.3935V31.381C40.2449 31.4373 40.1418 31.4888 39.9824 31.5357C39.8262 31.5794 39.6449 31.6185 39.4387 31.6529C39.2355 31.6841 39.0371 31.7123 38.8434 31.7373C38.6527 31.7591 38.498 31.7779 38.3793 31.7935C38.0918 31.831 37.823 31.8919 37.573 31.9763C37.3262 32.0576 37.1262 32.181 36.973 32.3466C36.823 32.5091 36.748 32.731 36.748 33.0123C36.748 33.3966 36.8902 33.6873 37.1746 33.8841C37.4621 34.0779 37.8262 34.1748 38.2668 34.1748ZM49.0469 27.7998L46.3844 34.9998H45.2594L42.5969 27.7998H43.7969L45.7844 33.5373H45.8594L47.8469 27.7998H49.0469ZM53.268 35.1498C52.5742 35.1498 51.9758 34.9966 51.4727 34.6904C50.9727 34.381 50.5867 33.9498 50.3148 33.3966C50.0461 32.8404 49.9117 32.1935 49.9117 31.456C49.9117 30.7185 50.0461 30.0685 50.3148 29.506C50.5867 28.9404 50.9648 28.4998 51.4492 28.1841C51.9367 27.8654 52.5055 27.706 53.1555 27.706C53.5305 27.706 53.9008 27.7685 54.2664 27.8935C54.632 28.0185 54.9648 28.2216 55.2648 28.5029C55.5648 28.781 55.8039 29.1498 55.982 29.6091C56.1602 30.0685 56.2492 30.6341 56.2492 31.306V31.7748H50.6992V30.8185H55.1242C55.1242 30.4123 55.043 30.0498 54.8805 29.731C54.7211 29.4123 54.493 29.1607 54.1961 28.9763C53.9023 28.7919 53.5555 28.6998 53.1555 28.6998C52.7148 28.6998 52.3336 28.8091 52.0117 29.0279C51.693 29.2435 51.4477 29.5248 51.2758 29.8716C51.1039 30.2185 51.018 30.5904 51.018 30.9873V31.6248C51.018 32.1685 51.1117 32.6294 51.2992 33.0076C51.4898 33.3826 51.7539 33.6685 52.0914 33.8654C52.4289 34.0591 52.8211 34.156 53.268 34.156C53.5586 34.156 53.8211 34.1154 54.0555 34.0341C54.293 33.9498 54.4977 33.8248 54.6695 33.6591C54.8414 33.4904 54.9742 33.281 55.068 33.031L56.1367 33.331C56.0242 33.6935 55.8352 34.0123 55.5695 34.2873C55.3039 34.5591 54.9758 34.7716 54.5852 34.9248C54.1945 35.0748 53.7555 35.1498 53.268 35.1498ZM64.7758 27.7998V28.7373H61.0445V27.7998H64.7758ZM62.132 26.0748H63.2383V32.9373C63.2383 33.2498 63.2836 33.4841 63.3742 33.6404C63.468 33.7935 63.5867 33.8966 63.7305 33.9498C63.8773 33.9998 64.032 34.0248 64.1945 34.0248C64.3164 34.0248 64.4164 34.0185 64.4945 34.006C64.5727 33.9904 64.6352 33.9779 64.682 33.9685L64.907 34.9623C64.832 34.9904 64.7273 35.0185 64.593 35.0466C64.4586 35.0779 64.2883 35.0935 64.082 35.0935C63.7695 35.0935 63.4633 35.0263 63.1633 34.8919C62.8664 34.7576 62.6195 34.5529 62.4227 34.2779C62.2289 34.0029 62.132 33.656 62.132 33.2373V26.0748ZM66.4398 34.9998V27.7998H67.5461V34.9998H66.4398ZM67.0023 26.5998C66.7867 26.5998 66.6008 26.5263 66.4445 26.3794C66.2914 26.2326 66.2148 26.056 66.2148 25.8498C66.2148 25.6435 66.2914 25.4669 66.4445 25.3201C66.6008 25.1732 66.7867 25.0998 67.0023 25.0998C67.218 25.0998 67.4023 25.1732 67.5555 25.3201C67.7117 25.4669 67.7898 25.6435 67.7898 25.8498C67.7898 26.056 67.7117 26.2326 67.5555 26.3794C67.4023 26.5263 67.218 26.5998 67.0023 26.5998ZM69.5723 34.9998V27.7998H70.641V28.9248H70.7348C70.8848 28.5404 71.1269 28.2419 71.4613 28.0294C71.7957 27.8138 72.1973 27.706 72.666 27.706C73.141 27.706 73.5363 27.8138 73.8519 28.0294C74.1707 28.2419 74.4191 28.5404 74.5973 28.9248H74.6723C74.8566 28.5529 75.1332 28.2576 75.5019 28.0388C75.8707 27.8169 76.3129 27.706 76.8285 27.706C77.4723 27.706 77.9988 27.9076 78.4082 28.3107C78.8176 28.7107 79.0223 29.3341 79.0223 30.181V34.9998H77.916V30.181C77.916 29.6498 77.7707 29.2701 77.4801 29.0419C77.1894 28.8138 76.8473 28.6998 76.4535 28.6998C75.9473 28.6998 75.5551 28.8529 75.2769 29.1591C74.9988 29.4623 74.8598 29.8466 74.8598 30.3123V34.9998H73.7348V30.0685C73.7348 29.6591 73.6019 29.3294 73.3363 29.0794C73.0707 28.8263 72.7285 28.6998 72.3098 28.6998C72.0223 28.6998 71.7535 28.7763 71.5035 28.9294C71.2566 29.0826 71.0566 29.2951 70.9035 29.5669C70.7535 29.8357 70.6785 30.1466 70.6785 30.4998V34.9998H69.5723ZM84.0637 35.1498C83.3699 35.1498 82.7715 34.9966 82.2684 34.6904C81.7684 34.381 81.3824 33.9498 81.1105 33.3966C80.8418 32.8404 80.7074 32.1935 80.7074 31.456C80.7074 30.7185 80.8418 30.0685 81.1105 29.506C81.3824 28.9404 81.7605 28.4998 82.2449 28.1841C82.7324 27.8654 83.3012 27.706 83.9512 27.706C84.3262 27.706 84.6965 27.7685 85.0621 27.8935C85.4277 28.0185 85.7605 28.2216 86.0605 28.5029C86.3605 28.781 86.5996 29.1498 86.7777 29.6091C86.9559 30.0685 87.0449 30.6341 87.0449 31.306V31.7748H81.4949V30.8185H85.9199C85.9199 30.4123 85.8387 30.0498 85.6762 29.731C85.5168 29.4123 85.2887 29.1607 84.9918 28.9763C84.698 28.7919 84.3512 28.6998 83.9512 28.6998C83.5105 28.6998 83.1293 28.8091 82.8074 29.0279C82.4887 29.2435 82.2434 29.5248 82.0715 29.8716C81.8996 30.2185 81.8137 30.5904 81.8137 30.9873V31.6248C81.8137 32.1685 81.9074 32.6294 82.0949 33.0076C82.2855 33.3826 82.5496 33.6685 82.8871 33.8654C83.2246 34.0591 83.6168 34.156 84.0637 34.156C84.3543 34.156 84.6168 34.1154 84.8512 34.0341C85.0887 33.9498 85.2934 33.8248 85.4652 33.6591C85.6371 33.4904 85.7699 33.281 85.8637 33.031L86.9324 33.331C86.8199 33.6935 86.6309 34.0123 86.3652 34.2873C86.0996 34.5591 85.7715 34.7716 85.3809 34.9248C84.9902 35.0748 84.5512 35.1498 84.0637 35.1498ZM89.534 35.0748C89.3027 35.0748 89.1043 34.9919 88.9387 34.8263C88.773 34.6607 88.6902 34.4623 88.6902 34.231C88.6902 33.9998 88.773 33.8013 88.9387 33.6357C89.1043 33.4701 89.3027 33.3873 89.534 33.3873C89.7652 33.3873 89.9637 33.4701 90.1293 33.6357C90.2949 33.8013 90.3777 33.9998 90.3777 34.231C90.3777 34.3841 90.3387 34.5248 90.2605 34.6529C90.1855 34.781 90.084 34.8841 89.9559 34.9623C89.8309 35.0373 89.6902 35.0748 89.534 35.0748Z" fill="white"/>
<path d="M41.9292 269.033C41.9292 270.046 41.7464 270.921 41.3808 271.658C41.0152 272.396 40.5136 272.965 39.8761 273.365C39.2386 273.765 38.5105 273.965 37.6917 273.965C36.873 273.965 36.1449 273.765 35.5074 273.365C34.8699 272.965 34.3683 272.396 34.0027 271.658C33.6371 270.921 33.4542 270.046 33.4542 269.033C33.4542 268.021 33.6371 267.146 34.0027 266.408C34.3683 265.671 34.8699 265.102 35.5074 264.702C36.1449 264.302 36.873 264.102 37.6917 264.102C38.5105 264.102 39.2386 264.302 39.8761 264.702C40.5136 265.102 41.0152 265.671 41.3808 266.408C41.7464 267.146 41.9292 268.021 41.9292 269.033ZM40.8042 269.033C40.8042 268.202 40.6652 267.5 40.3871 266.929C40.1121 266.357 39.7386 265.924 39.2667 265.63C38.798 265.336 38.273 265.19 37.6917 265.19C37.1105 265.19 36.5839 265.336 36.1121 265.63C35.6433 265.924 35.2699 266.357 34.9917 266.929C34.7167 267.5 34.5792 268.202 34.5792 269.033C34.5792 269.865 34.7167 270.566 34.9917 271.138C35.2699 271.71 35.6433 272.143 36.1121 272.436C36.5839 272.73 37.1105 272.877 37.6917 272.877C38.273 272.877 38.798 272.73 39.2667 272.436C39.7386 272.143 40.1121 271.71 40.3871 271.138C40.6652 270.566 40.8042 269.865 40.8042 269.033ZM43.7339 276.533V266.633H44.8027V267.777H44.9339C45.0152 267.652 45.1277 267.493 45.2714 267.299C45.4183 267.102 45.6277 266.927 45.8996 266.774C46.1746 266.618 46.5464 266.54 47.0152 266.54C47.6214 266.54 48.1558 266.691 48.6183 266.994C49.0808 267.297 49.4417 267.727 49.7011 268.283C49.9605 268.84 50.0902 269.496 50.0902 270.252C50.0902 271.015 49.9605 271.675 49.7011 272.235C49.4417 272.791 49.0824 273.222 48.623 273.529C48.1636 273.832 47.6339 273.983 47.0339 273.983C46.5714 273.983 46.2011 273.907 45.923 273.754C45.6449 273.597 45.4308 273.421 45.2808 273.224C45.1308 273.024 45.0152 272.858 44.9339 272.727H44.8402V276.533H43.7339ZM44.8214 270.233C44.8214 270.777 44.9011 271.257 45.0605 271.672C45.2199 272.085 45.4527 272.408 45.7589 272.643C46.0652 272.874 46.4402 272.99 46.8839 272.99C47.3464 272.99 47.7324 272.868 48.0417 272.624C48.3542 272.377 48.5886 272.046 48.7449 271.63C48.9042 271.211 48.9839 270.746 48.9839 270.233C48.9839 269.727 48.9058 269.271 48.7496 268.865C48.5964 268.455 48.3636 268.132 48.0511 267.894C47.7417 267.654 47.3527 267.533 46.8839 267.533C46.4339 267.533 46.0558 267.647 45.7496 267.875C45.4433 268.1 45.2121 268.416 45.0558 268.822C44.8996 269.225 44.8214 269.696 44.8214 270.233ZM54.7964 273.983C54.1027 273.983 53.5042 273.83 53.0011 273.524C52.5011 273.215 52.1152 272.783 51.8433 272.23C51.5746 271.674 51.4402 271.027 51.4402 270.29C51.4402 269.552 51.5746 268.902 51.8433 268.34C52.1152 267.774 52.4933 267.333 52.9777 267.018C53.4652 266.699 54.0339 266.54 54.6839 266.54C55.0589 266.54 55.4292 266.602 55.7949 266.727C56.1605 266.852 56.4933 267.055 56.7933 267.336C57.0933 267.615 57.3324 267.983 57.5105 268.443C57.6886 268.902 57.7777 269.468 57.7777 270.14V270.608H52.2277V269.652H56.6527C56.6527 269.246 56.5714 268.883 56.4089 268.565C56.2496 268.246 56.0214 267.994 55.7246 267.81C55.4308 267.625 55.0839 267.533 54.6839 267.533C54.2433 267.533 53.8621 267.643 53.5402 267.861C53.2214 268.077 52.9761 268.358 52.8042 268.705C52.6324 269.052 52.5464 269.424 52.5464 269.821V270.458C52.5464 271.002 52.6402 271.463 52.8277 271.841C53.0183 272.216 53.2824 272.502 53.6199 272.699C53.9574 272.893 54.3496 272.99 54.7964 272.99C55.0871 272.99 55.3496 272.949 55.5839 272.868C55.8214 272.783 56.0261 272.658 56.198 272.493C56.3699 272.324 56.5027 272.115 56.5964 271.865L57.6652 272.165C57.5527 272.527 57.3636 272.846 57.098 273.121C56.8324 273.393 56.5042 273.605 56.1136 273.758C55.723 273.908 55.2839 273.983 54.7964 273.983ZM60.5667 269.502V273.833H59.4605V266.633H60.5292V267.758H60.623C60.7917 267.393 61.048 267.099 61.3917 266.877C61.7355 266.652 62.1792 266.54 62.723 266.54C63.2105 266.54 63.6371 266.64 64.0027 266.84C64.3683 267.036 64.6527 267.336 64.8558 267.74C65.0589 268.14 65.1605 268.646 65.1605 269.258V273.833H64.0542V269.333C64.0542 268.768 63.9074 268.327 63.6136 268.011C63.3199 267.693 62.9167 267.533 62.4042 267.533C62.0511 267.533 61.7355 267.61 61.4574 267.763C61.1824 267.916 60.9652 268.14 60.8058 268.433C60.6464 268.727 60.5667 269.083 60.5667 269.502ZM67.7257 273.833H66.507L70.032 264.233H71.232L74.757 273.833H73.5382L70.6695 265.752H70.5945L67.7257 273.833ZM68.1757 270.083H73.0882V271.115H68.1757V270.083ZM77.4148 264.233V273.833H76.2523V264.233H77.4148Z" fill="white"/>
<path d="M20.3749 267.937C20.7833 266.711 20.6431 265.37 19.9909 264.255C19.0096 262.548 17.0346 261.67 15.1085 262.079C14.249 261.116 13.0177 260.567 11.7255 260.573C9.7567 260.573 8.0073 261.841 7.39776 263.712C6.1299 263.975 5.03881 264.767 4.39879 265.889C3.41133 267.595 3.63686 269.741 4.95957 271.204C4.55118 272.429 4.69137 273.77 5.34359 274.879C6.32496 276.592 8.29989 277.47 10.2321 277.062C11.0855 278.025 12.3167 278.579 13.609 278.573C15.5778 278.573 17.3272 277.305 17.9368 275.434C19.2046 275.172 20.2957 274.38 20.9296 273.258C21.9232 271.551 21.6977 269.406 20.3749 267.943V267.937ZM18.973 264.846C19.3631 265.529 19.5094 266.327 19.3753 267.102C19.3509 267.083 19.3021 267.059 19.2717 267.041L15.6875 264.968C15.5047 264.864 15.2791 264.864 15.0963 264.968L10.8965 267.394V265.614L14.3648 263.609C15.9801 262.676 18.0404 263.231 18.973 264.846ZM10.8965 268.546L12.6642 267.522L14.4319 268.546V270.588L12.6642 271.612L10.8965 270.588V268.546ZM11.7194 261.75C12.5118 261.75 13.2737 262.024 13.8833 262.53C13.8589 262.542 13.8101 262.573 13.7736 262.591L10.1895 264.657C10.0066 264.761 9.8969 264.956 9.8969 265.169V270.021L8.35474 269.131V265.121C8.35474 263.255 9.86032 261.75 11.7255 261.744L11.7194 261.75ZM5.42283 266.48C5.81903 265.797 6.43467 265.273 7.17832 264.999V269.259C7.17832 269.473 7.28804 269.662 7.4709 269.771L11.6645 272.191L10.1163 273.087L6.65411 271.088C5.04491 270.155 4.49022 268.095 5.42283 266.48ZM6.36762 274.3C5.97142 273.624 5.83122 272.819 5.96532 272.045C5.98971 272.063 6.03847 272.088 6.06895 272.106L9.65308 274.178C9.83594 274.282 10.0615 274.282 10.2443 274.178L14.438 271.752V273.532L10.9696 275.532C9.3544 276.458 7.29413 275.91 6.36153 274.3H6.36762ZM13.6151 277.397C12.8288 277.397 12.0607 277.123 11.4573 276.617C11.4817 276.604 11.5365 276.574 11.567 276.556L15.1511 274.489C15.334 274.386 15.4498 274.191 15.4437 273.977V269.131L16.9859 270.021V274.026C16.9859 275.891 15.4742 277.403 13.6151 277.403V277.397ZM19.9178 272.667C19.5216 273.349 18.8998 273.874 18.1623 274.142V269.881C18.1623 269.668 18.0526 269.473 17.8697 269.369L13.6699 266.943L15.2121 266.053L18.6804 268.052C20.2957 268.985 20.8443 271.045 19.9117 272.661L19.9178 272.667Z" fill="white"/>
<path d="M33.3042 296.233V295.39C33.3042 295.133 33.3496 294.861 33.4402 294.574C33.5339 294.283 33.6683 294.004 33.8433 293.735C34.0214 293.463 34.2355 293.227 34.4855 293.027L35.0855 293.515C34.8886 293.796 34.7167 294.09 34.5699 294.396C34.4261 294.699 34.3542 295.024 34.3542 295.371V296.233H33.3042ZM35.7042 296.233V295.39C35.7042 295.133 35.7496 294.861 35.8402 294.574C35.9339 294.283 36.0683 294.004 36.2433 293.735C36.4214 293.463 36.6355 293.227 36.8855 293.027L37.4855 293.515C37.2886 293.796 37.1167 294.09 36.9699 294.396C36.8261 294.699 36.7542 295.024 36.7542 295.371V296.233H35.7042ZM44.1066 295.633C44.0503 295.158 43.8222 294.79 43.4222 294.527C43.0222 294.265 42.5316 294.133 41.9503 294.133C41.5253 294.133 41.1535 294.202 40.8347 294.34C40.5191 294.477 40.2722 294.666 40.0941 294.907C39.9191 295.147 39.8316 295.421 39.8316 295.727C39.8316 295.983 39.8925 296.204 40.0144 296.388C40.1394 296.569 40.2988 296.721 40.4925 296.843C40.6863 296.961 40.8894 297.06 41.1019 297.138C41.3144 297.213 41.5097 297.274 41.6878 297.321L42.6628 297.583C42.9128 297.649 43.191 297.74 43.4972 297.855C43.8066 297.971 44.1019 298.129 44.3832 298.329C44.6675 298.525 44.9019 298.779 45.0863 299.088C45.2707 299.397 45.3628 299.777 45.3628 300.227C45.3628 300.746 45.2269 301.215 44.955 301.633C44.6863 302.052 44.2925 302.385 43.7738 302.632C43.2582 302.879 42.6316 303.002 41.8941 303.002C41.2066 303.002 40.6113 302.891 40.1082 302.669C39.6082 302.447 39.2144 302.138 38.9269 301.741C38.6425 301.344 38.4816 300.883 38.4441 300.358H39.6441C39.6753 300.721 39.7972 301.021 40.0097 301.258C40.2253 301.493 40.4972 301.668 40.8253 301.783C41.1566 301.896 41.5128 301.952 41.8941 301.952C42.3378 301.952 42.7363 301.88 43.0894 301.736C43.4425 301.59 43.7222 301.386 43.9285 301.127C44.1347 300.865 44.2378 300.558 44.2378 300.208C44.2378 299.89 44.1488 299.63 43.9707 299.43C43.7925 299.23 43.5582 299.068 43.2675 298.943C42.9769 298.818 42.6628 298.708 42.3253 298.615L41.1441 298.277C40.3941 298.061 39.8003 297.754 39.3628 297.354C38.9253 296.954 38.7066 296.43 38.7066 295.783C38.7066 295.246 38.8519 294.777 39.1425 294.377C39.4363 293.974 39.83 293.661 40.3238 293.44C40.8207 293.215 41.3753 293.102 41.9878 293.102C42.6066 293.102 43.1566 293.213 43.6378 293.435C44.1191 293.654 44.5003 293.954 44.7816 294.335C45.066 294.716 45.216 295.149 45.2316 295.633H44.1066ZM51.6617 299.89V295.633H52.7679V302.833H51.6617V301.615H51.5867C51.4179 301.98 51.1554 302.291 50.7992 302.547C50.4429 302.8 49.9929 302.927 49.4492 302.927C48.9992 302.927 48.5992 302.829 48.2492 302.632C47.8992 302.432 47.6242 302.132 47.4242 301.732C47.2242 301.329 47.1242 300.821 47.1242 300.208V295.633H48.2304V300.133C48.2304 300.658 48.3773 301.077 48.671 301.39C48.9679 301.702 49.346 301.858 49.8054 301.858C50.0804 301.858 50.3601 301.788 50.6445 301.647C50.932 301.507 51.1726 301.291 51.3664 301C51.5632 300.71 51.6617 300.34 51.6617 299.89ZM54.7941 302.833V295.633H55.8628V296.721H55.9378C56.0691 296.365 56.3066 296.075 56.6503 295.854C56.9941 295.632 57.3816 295.521 57.8128 295.521C57.8941 295.521 57.9957 295.522 58.1175 295.525C58.2394 295.529 58.3316 295.533 58.3941 295.54V296.665C58.3566 296.655 58.2707 296.641 58.1363 296.622C58.005 296.6 57.866 296.59 57.7191 296.59C57.3691 296.59 57.0566 296.663 56.7816 296.81C56.5097 296.954 56.2941 297.154 56.1347 297.41C55.9785 297.663 55.9003 297.952 55.9003 298.277V302.833H54.7941ZM62.505 302.983C61.8113 302.983 61.2128 302.83 60.7097 302.524C60.2097 302.215 59.8238 301.783 59.5519 301.23C59.2832 300.674 59.1488 300.027 59.1488 299.29C59.1488 298.552 59.2832 297.902 59.5519 297.34C59.8238 296.774 60.2019 296.333 60.6863 296.018C61.1738 295.699 61.7425 295.54 62.3925 295.54C62.7675 295.54 63.1378 295.602 63.5035 295.727C63.8691 295.852 64.2019 296.055 64.5019 296.336C64.8019 296.615 65.041 296.983 65.2191 297.443C65.3972 297.902 65.4863 298.468 65.4863 299.14V299.608H59.9363V298.652H64.3613C64.3613 298.246 64.28 297.883 64.1175 297.565C63.9582 297.246 63.73 296.994 63.4332 296.81C63.1394 296.625 62.7925 296.533 62.3925 296.533C61.9519 296.533 61.5707 296.643 61.2488 296.861C60.93 297.077 60.6847 297.358 60.5128 297.705C60.341 298.052 60.255 298.424 60.255 298.821V299.458C60.255 300.002 60.3488 300.463 60.5363 300.841C60.7269 301.216 60.991 301.502 61.3285 301.699C61.666 301.893 62.0582 301.99 62.505 301.99C62.7957 301.99 63.0582 301.949 63.2925 301.868C63.53 301.783 63.7347 301.658 63.9066 301.493C64.0785 301.324 64.2113 301.115 64.305 300.865L65.3738 301.165C65.2613 301.527 65.0722 301.846 64.8066 302.121C64.541 302.393 64.2128 302.605 63.8222 302.758C63.4316 302.908 62.9925 302.983 62.505 302.983ZM68.8191 301.521L68.7441 302.027C68.691 302.383 68.6097 302.765 68.5003 303.171C68.3941 303.577 68.2832 303.96 68.1675 304.319C68.0519 304.679 67.9566 304.965 67.8816 305.177H67.0378C67.0785 304.977 67.1316 304.713 67.1972 304.385C67.2628 304.057 67.3285 303.69 67.3941 303.283C67.4628 302.88 67.5191 302.468 67.5628 302.046L67.6191 301.521H68.8191ZM75.6874 293.233V302.833H74.5812V293.233H75.6874ZM80.7324 302.983C80.0386 302.983 79.4402 302.83 78.9371 302.524C78.4371 302.215 78.0511 301.783 77.7792 301.23C77.5105 300.674 77.3761 300.027 77.3761 299.29C77.3761 298.552 77.5105 297.902 77.7792 297.34C78.0511 296.774 78.4292 296.333 78.9136 296.018C79.4011 295.699 79.9699 295.54 80.6199 295.54C80.9949 295.54 81.3652 295.602 81.7308 295.727C82.0964 295.852 82.4292 296.055 82.7292 296.336C83.0292 296.615 83.2683 296.983 83.4464 297.443C83.6246 297.902 83.7136 298.468 83.7136 299.14V299.608H78.1636V298.652H82.5886C82.5886 298.246 82.5074 297.883 82.3449 297.565C82.1855 297.246 81.9574 296.994 81.6605 296.81C81.3667 296.625 81.0199 296.533 80.6199 296.533C80.1792 296.533 79.798 296.643 79.4761 296.861C79.1574 297.077 78.9121 297.358 78.7402 297.705C78.5683 298.052 78.4824 298.424 78.4824 298.821V299.458C78.4824 300.002 78.5761 300.463 78.7636 300.841C78.9542 301.216 79.2183 301.502 79.5558 301.699C79.8933 301.893 80.2855 301.99 80.7324 301.99C81.023 301.99 81.2855 301.949 81.5199 301.868C81.7574 301.783 81.9621 301.658 82.1339 301.493C82.3058 301.324 82.4386 301.115 82.5324 300.865L83.6011 301.165C83.4886 301.527 83.2996 301.846 83.0339 302.121C82.7683 302.393 82.4402 302.605 82.0496 302.758C81.6589 302.908 81.2199 302.983 80.7324 302.983ZM88.5277 295.633V296.571H84.7964V295.633H88.5277ZM85.8839 293.908H86.9902V300.771C86.9902 301.083 87.0355 301.318 87.1261 301.474C87.2199 301.627 87.3386 301.73 87.4824 301.783C87.6292 301.833 87.7839 301.858 87.9464 301.858C88.0683 301.858 88.1683 301.852 88.2464 301.84C88.3246 301.824 88.3871 301.811 88.4339 301.802L88.6589 302.796C88.5839 302.824 88.4792 302.852 88.3449 302.88C88.2105 302.911 88.0402 302.927 87.8339 302.927C87.5214 302.927 87.2152 302.86 86.9152 302.725C86.6183 302.591 86.3714 302.386 86.1746 302.111C85.9808 301.836 85.8839 301.49 85.8839 301.071V293.908ZM93.9042 302.833V295.633H94.973V296.758H95.0667C95.2167 296.374 95.4589 296.075 95.7933 295.863C96.1277 295.647 96.5292 295.54 96.998 295.54C97.473 295.54 97.8683 295.647 98.1839 295.863C98.5027 296.075 98.7511 296.374 98.9292 296.758H99.0042C99.1886 296.386 99.4652 296.091 99.8339 295.872C100.203 295.65 100.645 295.54 101.16 295.54C101.804 295.54 102.331 295.741 102.74 296.144C103.15 296.544 103.354 297.168 103.354 298.015V302.833H102.248V298.015C102.248 297.483 102.103 297.104 101.812 296.875C101.521 296.647 101.179 296.533 100.785 296.533C100.279 296.533 99.8871 296.686 99.6089 296.993C99.3308 297.296 99.1917 297.68 99.1917 298.146V302.833H98.0667V297.902C98.0667 297.493 97.9339 297.163 97.6683 296.913C97.4027 296.66 97.0605 296.533 96.6417 296.533C96.3542 296.533 96.0855 296.61 95.8355 296.763C95.5886 296.916 95.3886 297.129 95.2355 297.4C95.0855 297.669 95.0105 297.98 95.0105 298.333V302.833H93.9042ZM108.396 302.983C107.702 302.983 107.103 302.83 106.6 302.524C106.1 302.215 105.714 301.783 105.443 301.23C105.174 300.674 105.039 300.027 105.039 299.29C105.039 298.552 105.174 297.902 105.443 297.34C105.714 296.774 106.093 296.333 106.577 296.018C107.064 295.699 107.633 295.54 108.283 295.54C108.658 295.54 109.028 295.602 109.394 295.727C109.76 295.852 110.093 296.055 110.393 296.336C110.693 296.615 110.932 296.983 111.11 297.443C111.288 297.902 111.377 298.468 111.377 299.14V299.608H105.827V298.652H110.252C110.252 298.246 110.171 297.883 110.008 297.565C109.849 297.246 109.621 296.994 109.324 296.81C109.03 296.625 108.683 296.533 108.283 296.533C107.843 296.533 107.461 296.643 107.139 296.861C106.821 297.077 106.575 297.358 106.403 297.705C106.232 298.052 106.146 298.424 106.146 298.821V299.458C106.146 300.002 106.239 300.463 106.427 300.841C106.618 301.216 106.882 301.502 107.219 301.699C107.557 301.893 107.949 301.99 108.396 301.99C108.686 301.99 108.949 301.949 109.183 301.868C109.421 301.783 109.625 301.658 109.797 301.493C109.969 301.324 110.102 301.115 110.196 300.865L111.264 301.165C111.152 301.527 110.963 301.846 110.697 302.121C110.432 302.393 110.103 302.605 109.713 302.758C109.322 302.908 108.883 302.983 108.396 302.983ZM119.697 302.983C119.022 302.983 118.441 302.824 117.953 302.505C117.466 302.186 117.091 301.747 116.828 301.188C116.566 300.629 116.435 299.99 116.435 299.271C116.435 298.54 116.569 297.894 116.838 297.335C117.11 296.772 117.488 296.333 117.972 296.018C118.46 295.699 119.028 295.54 119.678 295.54C120.185 295.54 120.641 295.633 121.047 295.821C121.453 296.008 121.786 296.271 122.046 296.608C122.305 296.946 122.466 297.34 122.528 297.79H121.422C121.338 297.461 121.15 297.171 120.86 296.918C120.572 296.661 120.185 296.533 119.697 296.533C119.266 296.533 118.888 296.646 118.563 296.871C118.241 297.093 117.989 297.407 117.808 297.813C117.63 298.216 117.541 298.69 117.541 299.233C117.541 299.79 117.628 300.274 117.803 300.686C117.982 301.099 118.232 301.419 118.553 301.647C118.878 301.875 119.26 301.99 119.697 301.99C119.985 301.99 120.246 301.94 120.48 301.84C120.714 301.74 120.913 301.596 121.075 301.408C121.238 301.221 121.353 300.996 121.422 300.733H122.528C122.466 301.158 122.311 301.541 122.064 301.882C121.821 302.219 121.497 302.488 121.094 302.688C120.694 302.885 120.228 302.983 119.697 302.983ZM125.252 298.502V302.833H124.146V293.233H125.252V296.758H125.346C125.514 296.386 125.768 296.091 126.105 295.872C126.446 295.65 126.899 295.54 127.464 295.54C127.955 295.54 128.385 295.638 128.753 295.835C129.122 296.029 129.408 296.327 129.611 296.73C129.818 297.13 129.921 297.64 129.921 298.258V302.833H128.814V298.333C128.814 297.761 128.666 297.319 128.369 297.007C128.075 296.691 127.668 296.533 127.146 296.533C126.783 296.533 126.458 296.61 126.171 296.763C125.886 296.916 125.661 297.14 125.496 297.433C125.333 297.727 125.252 298.083 125.252 298.502ZM134.963 302.983C134.269 302.983 133.671 302.83 133.168 302.524C132.668 302.215 132.282 301.783 132.01 301.23C131.741 300.674 131.607 300.027 131.607 299.29C131.607 298.552 131.741 297.902 132.01 297.34C132.282 296.774 132.66 296.333 133.144 296.018C133.632 295.699 134.201 295.54 134.851 295.54C135.226 295.54 135.596 295.602 135.962 295.727C136.327 295.852 136.66 296.055 136.96 296.336C137.26 296.615 137.499 296.983 137.677 297.443C137.855 297.902 137.944 298.468 137.944 299.14V299.608H132.394V298.652H136.819C136.819 298.246 136.738 297.883 136.576 297.565C136.416 297.246 136.188 296.994 135.891 296.81C135.598 296.625 135.251 296.533 134.851 296.533C134.41 296.533 134.029 296.643 133.707 296.861C133.388 297.077 133.143 297.358 132.971 297.705C132.799 298.052 132.713 298.424 132.713 298.821V299.458C132.713 300.002 132.807 300.463 132.994 300.841C133.185 301.216 133.449 301.502 133.787 301.699C134.124 301.893 134.516 301.99 134.963 301.99C135.254 301.99 135.516 301.949 135.751 301.868C135.988 301.783 136.193 301.658 136.365 301.493C136.537 301.324 136.669 301.115 136.763 300.865L137.832 301.165C137.719 301.527 137.53 301.846 137.265 302.121C136.999 302.393 136.671 302.605 136.28 302.758C135.89 302.908 135.451 302.983 134.963 302.983ZM142.552 302.983C141.877 302.983 141.296 302.824 140.809 302.505C140.321 302.186 139.946 301.747 139.684 301.188C139.421 300.629 139.29 299.99 139.29 299.271C139.29 298.54 139.424 297.894 139.693 297.335C139.965 296.772 140.343 296.333 140.827 296.018C141.315 295.699 141.884 295.54 142.534 295.54C143.04 295.54 143.496 295.633 143.902 295.821C144.309 296.008 144.641 296.271 144.901 296.608C145.16 296.946 145.321 297.34 145.384 297.79H144.277C144.193 297.461 144.005 297.171 143.715 296.918C143.427 296.661 143.04 296.533 142.552 296.533C142.121 296.533 141.743 296.646 141.418 296.871C141.096 297.093 140.844 297.407 140.663 297.813C140.485 298.216 140.396 298.69 140.396 299.233C140.396 299.79 140.484 300.274 140.659 300.686C140.837 301.099 141.087 301.419 141.409 301.647C141.734 301.875 142.115 301.99 142.552 301.99C142.84 301.99 143.101 301.94 143.335 301.84C143.569 301.74 143.768 301.596 143.93 301.408C144.093 301.221 144.209 300.996 144.277 300.733H145.384C145.321 301.158 145.166 301.541 144.919 301.882C144.676 302.219 144.352 302.488 143.949 302.688C143.549 302.885 143.084 302.983 142.552 302.983ZM148.032 300.208L148.013 298.84H148.238L151.388 295.633H152.757L149.401 299.027H149.307L148.032 300.208ZM147.001 302.833V293.233H148.107V302.833H147.001ZM151.576 302.833L148.763 299.271L149.551 298.502L152.982 302.833H151.576ZM154.987 302.908C154.756 302.908 154.557 302.825 154.392 302.66C154.226 302.494 154.143 302.296 154.143 302.065C154.143 301.833 154.226 301.635 154.392 301.469C154.557 301.304 154.756 301.221 154.987 301.221C155.218 301.221 155.417 301.304 155.582 301.469C155.748 301.635 155.831 301.833 155.831 302.065C155.831 302.218 155.792 302.358 155.714 302.486C155.639 302.615 155.537 302.718 155.409 302.796C155.284 302.871 155.143 302.908 154.987 302.908ZM158.622 302.908C158.391 302.908 158.193 302.825 158.027 302.66C157.861 302.494 157.778 302.296 157.778 302.065C157.778 301.833 157.861 301.635 158.027 301.469C158.193 301.304 158.391 301.221 158.622 301.221C158.853 301.221 159.052 301.304 159.218 301.469C159.383 301.635 159.466 301.833 159.466 302.065C159.466 302.218 159.427 302.358 159.349 302.486C159.274 302.615 159.172 302.718 159.044 302.796C158.919 302.871 158.778 302.908 158.622 302.908ZM162.257 302.908C162.026 302.908 161.828 302.825 161.662 302.66C161.496 302.494 161.414 302.296 161.414 302.065C161.414 301.833 161.496 301.635 161.662 301.469C161.828 301.304 162.026 301.221 162.257 301.221C162.489 301.221 162.687 301.304 162.853 301.469C163.018 301.635 163.101 301.833 163.101 302.065C163.101 302.218 163.062 302.358 162.984 302.486C162.909 302.615 162.807 302.718 162.679 302.796C162.554 302.871 162.414 302.908 162.257 302.908ZM165.314 293.233V294.077C165.314 294.333 165.267 294.607 165.173 294.897C165.082 295.185 164.948 295.465 164.77 295.736C164.595 296.005 164.382 296.24 164.132 296.44L163.532 295.952C163.729 295.671 163.9 295.379 164.043 295.075C164.19 294.769 164.264 294.443 164.264 294.096V293.233H165.314ZM167.714 293.233V294.077C167.714 294.333 167.667 294.607 167.573 294.897C167.482 295.185 167.348 295.465 167.17 295.736C166.995 296.005 166.782 296.24 166.532 296.44L165.932 295.952C166.129 295.671 166.3 295.379 166.443 295.075C166.59 294.769 166.664 294.443 166.664 294.096V293.233H167.714Z" fill="white"/>
<path d="M15.173 295.661C15.2908 295.702 15.3785 295.829 15.4618 295.95C15.5745 296.113 15.6794 296.265 15.8403 296.179C16.3704 295.897 16.5717 295.239 16.2898 294.709C16.0079 294.179 15.3496 293.978 14.8194 294.26C14.2893 294.541 14.088 295.2 14.3699 295.73C14.4445 295.87 14.6099 295.804 14.7846 295.734C14.9215 295.679 15.0641 295.622 15.173 295.661Z" fill="white"/>
<path d="M9.76193 295.95C9.8453 295.829 9.93296 295.702 10.0508 295.661C10.1597 295.622 10.3023 295.679 10.4392 295.734C10.6139 295.804 10.7793 295.87 10.8539 295.73C11.1358 295.2 10.9345 294.541 10.4043 294.26C9.87418 293.978 9.21588 294.179 8.93399 294.709C8.6521 295.239 8.85336 295.897 9.38352 296.179C9.54441 296.265 9.64925 296.113 9.76193 295.95Z" fill="white"/>
<path d="M17.8278 296.684C18.218 296.684 18.5344 296.368 18.5344 295.978C18.5344 295.587 18.218 295.271 17.8278 295.271C17.4374 295.271 17.1211 295.587 17.1211 295.978C17.1211 296.368 17.4374 296.684 17.8278 296.684Z" fill="white"/>
<path d="M8.42338 295.978C8.42338 296.368 8.10698 296.684 7.71669 296.684C7.32639 296.684 7.01001 296.368 7.01001 295.978C7.01001 295.587 7.32639 295.271 7.71669 295.271C8.10698 295.271 8.42338 295.587 8.42338 295.978Z" fill="white"/>
<path fill-rule="evenodd" clip-rule="evenodd" d="M10.931 297.533C11.4494 297.789 12.0341 298.078 12.6634 298.078C13.2948 298.078 13.8855 297.786 14.4079 297.528C14.5422 297.461 14.6795 297.394 14.8043 297.342C14.9225 297.293 15.0708 297.24 15.2217 297.23C15.3897 297.219 15.614 297.26 15.7716 297.463C15.9026 297.632 15.9251 297.838 15.9251 297.995C15.9251 298.567 15.7287 299.38 15.2288 300.061C14.7149 300.761 13.8828 301.314 12.6634 301.314C11.4441 301.314 10.612 300.761 10.0981 300.061C9.59816 299.38 9.40186 298.567 9.40186 297.995C9.40186 297.843 9.42305 297.647 9.5403 297.483C9.6824 297.284 9.89291 297.225 10.0672 297.228C10.2186 297.231 10.3652 297.279 10.4786 297.324C10.599 297.371 10.7294 297.434 10.8568 297.497L10.931 297.533ZM10.2813 298.186C10.3198 298.582 10.4753 299.105 10.7992 299.546C10.9257 299.718 11.078 299.879 11.2613 300.015C11.4968 299.729 11.8149 299.514 12.1791 299.405C12.266 299.379 12.3556 299.529 12.4472 299.682C12.5357 299.83 12.6261 299.981 12.7181 299.981C12.8161 299.981 12.9124 299.832 13.0064 299.687C13.1046 299.535 13.2003 299.387 13.2928 299.416C13.3198 299.425 13.3466 299.434 13.373 299.444C13.6674 299.553 13.9272 299.734 14.1313 299.964C14.2857 299.84 14.4166 299.697 14.5277 299.546C14.8516 299.105 15.0071 298.582 15.0456 298.186C14.9729 298.219 14.8901 298.259 14.7938 298.307L14.7426 298.332C14.2513 298.576 13.502 298.948 12.6634 298.948C11.8222 298.948 11.0669 298.573 10.5743 298.328C10.5393 298.31 10.5048 298.293 10.4725 298.277C10.4008 298.242 10.3376 298.211 10.2813 298.186ZM15.0512 297.934L15.0515 297.936C15.0513 297.935 15.0512 297.934 15.0512 297.934Z" fill="white"/>
<path fill-rule="evenodd" clip-rule="evenodd" d="M14.1485 306.022C13.6835 306.102 13.2055 306.143 12.7178 306.143C12.2633 306.143 11.8172 306.107 11.3822 306.038C10.8402 306.652 9.99171 306.964 8.85458 306.964C8.16203 306.964 7.36207 306.847 6.47752 306.618C6.45776 306.612 5.85191 306.443 5.19092 306.181C4.11546 305.755 3.56164 305.358 3.33877 304.853C3.19178 304.521 3.20243 304.163 3.36899 303.847C3.38443 303.818 3.40096 303.789 3.41857 303.762C3.14155 303.338 3.1946 302.928 3.24636 302.73C3.31246 302.479 3.44923 302.27 3.63492 302.119C3.54686 301.973 3.48793 301.815 3.46249 301.639C3.409 301.268 3.53185 300.898 3.80844 300.597C4.0237 300.363 4.32812 300.233 4.66515 300.233L4.67411 300.233C4.42583 299.439 4.29204 298.594 4.29204 297.717C4.29204 293.064 8.0644 289.292 12.7178 289.292C17.3713 289.292 21.1436 293.064 21.1436 297.717C21.1436 298.596 21.0092 299.443 20.7597 300.239C20.8003 300.235 20.8402 300.233 20.8793 300.233C21.2163 300.233 21.5207 300.363 21.736 300.597C22.0126 300.898 22.1354 301.268 22.082 301.639C22.0565 301.815 21.9976 301.973 21.9095 302.119C22.0952 302.27 22.232 302.479 22.2981 302.73C22.3498 302.928 22.4029 303.338 22.1259 303.762C22.1435 303.789 22.16 303.818 22.1754 303.847C22.342 304.163 22.3527 304.521 22.2057 304.853C21.9828 305.358 21.429 305.755 20.3535 306.181C19.6923 306.443 19.0867 306.612 19.0674 306.618C18.1829 306.847 17.3824 306.964 16.6899 306.964C15.5431 306.964 14.6898 306.647 14.1485 306.022ZM12.7178 290.161C16.8909 290.161 20.2739 293.544 20.2739 297.717C20.2739 298.294 20.2092 298.856 20.0868 299.396C19.8742 299.189 19.5926 299.076 19.282 299.076C19.0002 299.076 18.7103 299.17 18.4203 299.354C18.2278 299.476 18.0152 299.692 17.7962 299.965C17.5933 299.683 17.3094 299.496 16.9845 299.445C16.9223 299.435 16.859 299.43 16.7966 299.43C16.0549 299.43 15.6087 300.074 15.44 300.653C15.3563 300.848 14.9545 301.739 14.35 302.343C13.4331 303.259 13.2009 304.204 13.6493 305.217C13.3441 305.254 13.0332 305.273 12.7178 305.273C12.438 305.273 12.1617 305.258 11.8897 305.229C12.3453 304.212 12.1149 303.263 11.1944 302.343C10.59 301.739 10.1881 300.848 10.1044 300.653C9.93569 300.074 9.4895 299.43 8.74781 299.43C8.68541 299.43 8.62213 299.435 8.55995 299.445C8.23509 299.496 7.95111 299.683 7.74824 299.965C7.52928 299.692 7.31662 299.476 7.12419 299.354C6.83412 299.17 6.54427 299.076 6.26247 299.076C5.91043 299.076 5.5958 299.221 5.3764 299.483L5.37087 299.49C5.2342 298.921 5.16181 298.328 5.16181 297.717C5.16181 293.544 8.54477 290.161 12.7178 290.161ZM6.26247 299.946C6.37337 299.946 6.50883 299.993 6.65821 300.088C7.12201 300.382 8.017 301.921 8.34468 302.519C8.45449 302.72 8.64214 302.804 8.81109 302.804C9.14638 302.804 9.40818 302.471 8.84175 302.047C7.99003 301.41 8.2888 300.368 8.69541 300.304C8.71324 300.301 8.73085 300.3 8.74781 300.3C9.11746 300.3 9.28054 300.937 9.28054 300.937C9.28054 300.937 9.75848 302.137 10.5795 302.958C11.4005 303.779 11.4429 304.437 10.8445 305.315C10.4365 305.913 9.65519 306.094 8.85458 306.094C8.02417 306.094 7.17289 305.899 6.69583 305.776C6.67235 305.77 3.77104 304.95 4.13851 304.253C4.20027 304.135 4.30203 304.088 4.4301 304.088C4.70475 304.088 5.09876 304.305 5.46856 304.509C5.79557 304.689 6.10367 304.859 6.29356 304.859C6.38402 304.859 6.44773 304.82 6.47382 304.726C6.55219 304.445 6.01774 304.238 5.43346 304.011C4.73221 303.74 3.95918 303.44 4.08763 302.951C4.12916 302.793 4.2418 302.728 4.40009 302.729C4.80576 302.729 5.51067 303.152 6.08418 303.496C6.47747 303.732 6.80897 303.931 6.9398 303.931C6.96437 303.931 6.98198 303.924 6.99155 303.909C7.15267 303.649 7.06439 303.467 5.9287 302.78C5.83969 302.726 5.75276 302.674 5.66834 302.623C4.67574 302.027 4.03141 301.64 4.44924 301.185C4.50142 301.128 4.57535 301.103 4.66515 301.103C5.35466 301.103 6.98372 302.586 6.98372 302.586C6.98372 302.586 7.42339 303.043 7.68931 303.043C7.75042 303.043 7.80238 303.019 7.83761 302.959C7.93254 302.799 7.48782 302.347 7.00891 301.86C6.53681 301.38 6.03148 300.866 5.97719 300.565C5.90304 300.154 6.02916 299.946 6.26247 299.946ZM18.8862 300.088C19.0356 299.993 19.1711 299.946 19.282 299.946C19.5153 299.946 19.6414 300.154 19.5673 300.565C19.513 300.866 19.0076 301.38 18.5355 301.86C18.0566 302.347 17.6119 302.799 17.7068 302.959C17.7421 303.019 17.794 303.043 17.8551 303.043C18.1211 303.043 18.5607 302.586 18.5607 302.586C18.5607 302.586 20.1898 301.103 20.8793 301.103C20.9691 301.103 21.043 301.128 21.0952 301.185C21.513 301.64 20.8687 302.027 19.8761 302.623C19.7917 302.674 19.7047 302.726 19.6157 302.78C18.48 303.467 18.3918 303.649 18.5529 303.909C18.5625 303.924 18.5801 303.931 18.6046 303.931C18.7355 303.931 19.067 303.732 19.4603 303.496C20.0338 303.152 20.7387 302.729 21.1443 302.729C21.3026 302.728 21.4153 302.793 21.4568 302.951C21.5853 303.44 20.8122 303.74 20.111 304.011C19.5267 304.238 18.9922 304.445 19.0706 304.726C19.0967 304.82 19.1604 304.859 19.2509 304.859C19.4408 304.859 19.7489 304.689 20.0759 304.509C20.4457 304.305 20.8397 304.088 21.1143 304.088C21.2424 304.088 21.3442 304.135 21.4059 304.253C21.7734 304.95 18.8721 305.77 18.8486 305.776C18.3715 305.899 17.5203 306.094 16.6899 306.094C15.8892 306.094 15.108 305.913 14.6998 305.315C14.1015 304.437 14.1439 303.779 14.9649 302.958C15.786 302.137 16.2639 300.937 16.2639 300.937C16.2639 300.937 16.427 300.3 16.7966 300.3C16.8136 300.3 16.8312 300.301 16.849 300.304C17.2556 300.368 17.5544 301.41 16.7027 302.047C16.1363 302.471 16.3981 302.804 16.7334 302.804C16.9023 302.804 17.09 302.72 17.1998 302.519C17.5274 301.921 18.4224 300.382 18.8862 300.088Z" fill="white"/>
</svg>
