<svg width="16" height="15" viewBox="0 0 16 15" fill="none" xmlns="http://www.w3.org/2000/svg">
<path d="M1.47709 7.2253C1.47709 8.18664 1.69142 9.09795 2.0749 9.91392M2.0749 9.91392C1.49923 10.3019 1.12061 10.9599 1.12061 11.7064C1.12061 12.8993 2.08767 13.8664 3.28061 13.8664C4.47354 13.8664 5.44061 12.8993 5.44061 11.7064C5.44061 10.5135 4.47354 9.54636 3.28061 9.54636C2.8341 9.54636 2.41926 9.68187 2.0749 9.91392ZM7.80606 0.896364C6.82643 0.896364 5.89878 1.11894 5.07088 1.51628M5.07088 1.51628C4.6826 0.942408 4.02565 0.565186 3.28061 0.565186C2.08767 0.565186 1.12061 1.53225 1.12061 2.72519C1.12061 3.91812 2.08767 4.88519 3.28061 4.88519C4.47354 4.88519 5.44061 3.91812 5.44061 2.72519C5.44061 2.27731 5.30429 1.86126 5.07088 1.51628ZM14.135 7.2253C14.135 6.25438 13.9163 5.33444 13.5256 4.5122M13.5256 4.5122C14.0968 4.12351 14.4719 3.46815 14.4719 2.72519C14.4719 1.53225 13.5049 0.565186 12.3119 0.565186C11.119 0.565186 10.1519 1.53225 10.1519 2.72519C10.1519 3.91812 11.119 4.88519 12.3119 4.88519C12.7619 4.88519 13.1797 4.7476 13.5256 4.5122ZM7.80606 13.5543C8.78375 13.5543 9.70966 13.3326 10.5363 12.9367M10.5363 12.9367C10.9263 13.4985 11.5761 13.8664 12.3119 13.8664C13.5049 13.8664 14.4719 12.8993 14.4719 11.7064C14.4719 10.5135 13.5049 9.54636 12.3119 9.54636C11.119 9.54636 10.1519 10.5135 10.1519 11.7064C10.1519 12.1636 10.2939 12.5876 10.5363 12.9367Z" stroke="#FFFBFB" stroke-width="1.08" stroke-miterlimit="10" stroke-linecap="round" stroke-linejoin="round"/>
</svg>
