<svg width="265" height="292" viewBox="0 0 265 292" fill="none" xmlns="http://www.w3.org/2000/svg">
<g clip-path="url(#clip0_4009_5762)">
<mask id="mask0_4009_5762" style="mask-type:luminance" maskUnits="userSpaceOnUse" x="0" y="-1" width="265" height="293">
<path d="M265 -0.000244141H0V292H265V-0.000244141Z" fill="white"/>
</mask>
<g mask="url(#mask0_4009_5762)">
<mask id="mask1_4009_5762" style="mask-type:alpha" maskUnits="userSpaceOnUse" x="-58" y="131" width="403" height="209">
<path d="M344.419 131.95H-57.2725V339.837H344.419V131.95Z" fill="url(#paint0_linear_4009_5762)"/>
</mask>
<g mask="url(#mask1_4009_5762)">
<path opacity="0.6" d="M45.7214 418.214C44.2258 417.444 46.9499 410.891 53.5994 399.203C60.249 387.515 70.5989 371.11 83.6033 351.629C96.6076 332.148 111.81 310.286 127.684 288.243C143.566 266.19 159.556 244.74 174.044 226.024C188.544 207.314 201.034 192.01 210.26 181.656C219.491 171.29 225.132 166.246 226.628 167.016M23.8802 404.917C17.6679 400.472 16.7493 390.914 21.2091 377.207C25.6815 363.507 35.387 346.124 49.3436 326.829C63.3002 307.534 81.0336 286.997 100.744 267.293C120.462 247.578 141.458 229.386 161.627 214.536C181.807 199.692 200.447 188.707 215.686 182.704C230.924 176.701 242.221 175.881 248.441 180.315M2.57276 386.767C-6.38278 377.675 -8.99661 364.404 -5.03079 348.276C-1.06494 332.149 9.36878 313.732 25.201 294.877C41.0333 276.022 61.7141 257.393 85.1668 240.864C108.619 224.335 134.017 210.494 158.792 200.725C183.58 190.962 206.875 185.604 226.361 185.202C245.841 184.811 260.812 189.377 269.755 198.463M-18.0347 360.616C-26.7633 346.469 -28.2157 329.422 -22.2379 311.197C-16.2602 292.972 -3.06365 274.215 16.0073 256.798C35.0906 239.388 59.3796 223.939 86.4444 211.997C113.51 200.054 142.404 192.068 170.204 188.798C198.016 185.534 223.757 187.133 244.845 193.415C265.931 199.698 281.63 210.469 290.358 224.616M-34.3492 321.509C-38.7653 302.878 -35.2245 283.233 -24.0832 264.557C-12.9419 245.88 5.4035 228.825 29.1192 215.117C52.835 201.409 81.0754 191.519 111.006 186.441C140.936 181.364 171.502 181.292 199.634 186.217C227.766 191.141 252.465 200.895 271.254 214.494C290.043 228.093 302.264 245.077 306.68 263.71M-34.9262 266.268C-30.5301 245.842 -18.3039 227.001 0.528393 211.633C19.3482 196.259 44.1094 184.9 72.3271 178.688C100.538 172.487 131.201 171.649 161.232 176.282C191.271 180.904 219.618 190.829 243.421 205.048C267.223 219.267 285.671 237.276 296.871 257.277C308.071 277.278 311.664 298.551 307.268 318.978M-4.53085 206.182C17.6245 180.4 53.6878 164.769 95.7427 162.742C137.798 160.716 182.384 172.458 219.698 195.376C257.01 218.293 284.006 250.528 294.728 284.963C305.443 319.409 299.029 353.244 276.886 379.032M49.2604 165.226C80.2003 150.135 119.034 149.073 157.213 162.294C195.392 175.515 229.789 201.908 252.831 235.7C275.88 269.483 285.692 307.881 280.101 342.447C274.509 377.012 253.991 404.911 223.051 420.003M101.988 148.419C132.702 143.214 165.756 153.408 193.886 176.776C222.016 200.143 242.903 234.741 251.971 272.983C261.04 311.225 257.521 349.971 242.215 380.69C226.91 411.409 201.053 431.6 170.339 436.805M143.884 145.7C168.647 146.633 191.587 163.007 207.654 191.212C223.72 219.417 231.585 257.162 229.552 296.124C227.501 335.09 215.708 372.085 196.745 398.98C177.781 425.876 153.224 440.468 128.461 439.534M176.509 149.57C192.624 152.816 203.821 171.012 207.649 200.132C211.477 229.251 207.618 266.929 196.912 304.872C186.211 342.806 169.541 377.908 150.583 402.44C131.626 426.97 111.924 438.929 95.8158 435.673M203.23 156.925C209.887 159.28 209.192 175.829 201.32 202.936C193.448 230.044 179.041 265.494 161.256 301.476C143.47 337.459 123.775 371.044 106.48 394.829C89.2052 418.608 75.7594 430.656 69.1025 428.3M76.6197 430.8C59.6446 425.567 43.1609 417.827 28.9352 408.407M140.037 439.644C113.251 440.155 81.8872 432.791 53.0131 419.232C24.1385 405.673 0.186013 387.048 -13.4794 367.555M181.482 434.606C147.419 442.381 99.8462 434.617 56.3415 414.188C12.8368 393.759 -20.1049 363.714 -30.306 335.153M215.929 423.295C197.973 431.132 173.605 433.687 146.06 430.621C118.514 427.555 89.0575 419.022 61.6263 406.141C34.1949 393.259 10.0507 376.636 -7.58115 358.474C-25.2199 340.322 -35.5364 321.48 -37.1615 304.447M245.122 407.245C227.574 419.169 200.6 424.478 168.576 422.31C136.551 420.141 101.361 410.622 68.7294 395.299C36.0979 379.976 7.94054 359.747 -11.1655 337.906C-30.2716 316.065 -39.2011 293.895 -36.5075 274.996M269.286 387.251C253.498 403.14 225.202 411.38 189.83 410.392C154.451 409.414 114.458 399.279 77.5223 381.934C40.5863 364.589 9.27008 341.24 -10.413 316.361C-30.0961 291.482 -36.783 266.814 -29.187 247.092M288.21 364.012C279.706 376.962 264.332 386.369 243.631 391.321C222.918 396.268 197.621 396.57 170.257 392.185C142.894 387.801 114.444 378.9 87.7469 366.364C61.0492 353.827 37.0752 338.11 18.2093 320.786C-0.656654 303.462 -13.7386 285.137 -19.7106 267.66C-25.6951 250.177 -24.3594 234.163 -15.8622 221.224M288.21 364.012C265.82 398.107 228.319 423.29 183.971 434.012C139.623 444.735 92.0672 440.118 51.735 421.179C11.4152 402.245 -18.3646 370.533 -31.0514 333.041C-43.7314 295.54 -38.2713 255.325 -15.8746 221.218C6.51517 187.122 44.0165 161.94 88.3516 151.211C132.699 140.488 180.255 145.105 220.587 164.045C260.908 182.979 290.687 214.691 303.374 252.183C316.054 289.684 310.6 329.916 288.21 364.012ZM301.535 338.143C295.73 353.228 281.835 364.721 261.446 371.306C241.064 377.88 215.029 379.281 186.325 375.326C157.615 371.383 127.399 362.245 99.1588 348.985C70.9066 335.718 45.7742 318.864 26.6384 300.34C7.50271 281.816 -4.87317 262.391 -9.03612 244.291C-13.2115 226.185 -9.00793 210.141 3.06091 197.984M308.823 310.238C306.411 327.123 294.844 340.549 275.646 348.765C256.44 356.994 230.482 359.615 201.192 356.307C171.901 352.999 140.632 343.905 111.484 330.216C82.3353 316.529 56.6761 298.892 37.8719 279.614C19.0677 260.337 7.97708 240.319 6.08359 222.183C4.19011 204.047 11.5521 188.648 27.2189 178.001M309.509 280.788C311.25 299.032 302.924 314.24 285.793 324.116C268.662 333.993 243.659 338.012 214.541 335.557C185.423 333.101 153.788 324.315 124.404 310.517C95.0192 296.719 69.4646 278.649 51.6195 259.051C33.762 239.447 24.5787 219.375 25.4372 201.857C26.2957 184.339 37.1727 170.329 56.3935 161.929M302.654 250.082C309.46 269.163 305.535 285.997 291.558 297.616C277.58 309.235 254.455 314.879 226.273 313.551C198.103 312.229 166.701 304.007 137.64 290.361C108.578 276.714 83.7374 258.524 67.5067 238.997C51.2885 219.475 44.73 199.892 49.004 183.717C53.2781 167.541 68.1085 155.813 90.8531 150.624M285.802 217.669C299.223 236.84 301.585 255.278 292.355 268.962C283.126 282.645 263.061 290.47 236.551 290.712C210.033 290.964 179.21 283.619 150.821 270.288C122.431 256.957 98.7653 238.714 85.0006 219.546C71.2354 200.378 68.4765 181.849 77.3329 167.991C86.1891 154.132 105.947 146.081 132.285 145.579M243.393 176.832C262.393 189.416 276.24 204.246 282.398 218.589C288.544 232.927 286.578 245.809 276.842 254.836C267.105 263.863 250.279 268.418 229.463 267.672C208.646 266.927 185.265 260.916 163.655 250.769C142.033 240.615 123.652 227.015 111.899 212.466C100.147 197.918 95.8238 183.432 99.7378 171.671C103.653 159.91 115.533 151.684 133.186 148.521C150.827 145.353 173.046 147.46 195.721 154.446M266.816 231.188C260.985 240.068 248.112 245.172 231.049 245.376C213.974 245.576 194.107 240.857 175.806 232.263C157.494 223.664 142.255 211.897 133.441 199.541C124.615 187.179 122.938 175.257 128.775 166.367C134.606 157.488 147.48 152.384 164.542 152.179C181.617 151.98 201.485 156.699 219.785 165.292C238.085 173.886 253.337 185.659 262.151 198.015C270.965 210.371 272.646 222.31 266.816 231.188ZM248.923 214.515C244.951 220.563 236.194 224.035 224.58 224.17C212.967 224.305 199.431 221.1 186.977 215.253C174.525 209.405 164.144 201.392 158.148 192.974C152.145 184.567 151 176.445 154.972 170.396C158.944 164.347 167.702 160.876 179.315 160.74C190.928 160.605 204.465 163.81 216.918 169.658C229.371 175.506 239.751 183.518 245.747 191.936C251.751 200.344 252.896 208.465 248.923 214.515ZM228.257 199.758C224.07 206.133 210.029 206.298 196.892 200.129C183.755 193.96 176.498 183.794 180.684 177.419C184.871 171.044 198.912 170.879 212.049 177.048C225.186 183.217 232.443 193.383 228.257 199.758Z" stroke="white" stroke-width="0.629955"/>
<path d="M77.1582 105.535C104.25 113.219 125.055 131.216 136.008 145.574C40.0542 145.748 -37.6874 211.511 -37.8532 292.662C-57.373 286.173 -71.7029 276.936 -80.8203 265.678C-89.9813 254.365 -93.8896 241 -92.4996 226.3C-89.7179 196.893 -65.7278 162.143 -20.1489 127.883C16.2781 100.501 49.9138 97.8089 77.1582 105.535Z" stroke="white" stroke-width="0.522968"/>
</g>
<path d="M131.548 196.368C135.68 195.254 146.572 192.573 157.087 190.765" stroke="white" stroke-width="0.522968"/>
<path opacity="0.6" d="M131.491 196.273C116.871 199.795 96.8985 206.898 81.4674 214.288C79.173 210.468 74.3537 201.377 73.4333 195.581" stroke="white" stroke-width="0.629955"/>
<path opacity="0.6" d="M105.99 204.117C87.6981 210.147 53.993 227.113 36.9966 239.881" stroke="white" stroke-width="0.629955"/>
<path d="M131.255 196.15C128.928 192.682 124.482 183.885 125.313 176.436C126.144 168.985 129.635 165.086 130.674 163.996C115.589 161.992 82.8429 160.903 56.9946 168.845" stroke="white" stroke-width="0.629955"/>
<path d="M85.9241 282.978C91.2168 276.023 109.297 258.849 117.719 250.986C109.6 245.524 100.379 236.78 96.7072 233.042C109.948 224.108 131.763 212.908 141.015 208.426C138.577 205.962 133.323 200.065 131.405 196.458" stroke="white" stroke-width="0.629955"/>
<path d="M167.563 287.273C173.272 278.477 184.23 250.6 189.338 237.866C166.764 229.948 150.689 218.018 141.009 208.383" stroke="white" stroke-width="0.629955"/>
<path d="M229.285 267.894C208.747 266.932 188.643 260.953 181.159 258.084C183.128 253.511 187.526 243.071 189.363 237.891" stroke="white" stroke-width="0.629955"/>
<path d="M131.489 153.405V196.044" stroke="white" stroke-width="0.581638"/>
<path d="M133.653 196.218C133.653 195.092 132.579 194.18 131.254 194.18C129.93 194.18 128.856 195.092 128.856 196.218C128.856 197.343 129.93 198.255 131.254 198.255C132.579 198.255 133.653 197.343 133.653 196.218Z" fill="white"/>
<path d="M231.681 267.893C231.681 266.768 230.607 265.856 229.283 265.856C227.958 265.856 226.884 266.768 226.884 267.893C226.884 269.019 227.958 269.931 229.283 269.931C230.607 269.931 231.681 269.019 231.681 267.893Z" fill="white"/>
<path d="M39.3958 239.881C39.3958 238.756 38.3218 237.844 36.9971 237.844C35.6723 237.844 34.5984 238.756 34.5984 239.881C34.5984 241.006 35.6723 241.918 36.9971 241.918C38.3218 241.918 39.3958 241.006 39.3958 239.881Z" fill="white"/>
</g>
</g>
<defs>
<linearGradient id="paint0_linear_4009_5762" x1="104.403" y1="108.431" x2="207.158" y2="267.736" gradientUnits="userSpaceOnUse">
<stop stop-color="white"/>
<stop offset="1" stop-color="white" stop-opacity="0"/>
</linearGradient>
<clipPath id="clip0_4009_5762">
<rect width="265" height="292" fill="white" transform="translate(0 -0.000244141)"/>
</clipPath>
</defs>
</svg>
