<svg width="108" height="49" viewBox="0 0 108 49" fill="none" xmlns="http://www.w3.org/2000/svg">
<path d="M36.2622 24.091H29.1975V31.0764H36.2622V24.091ZM8.00476 31.0764V24.9262L15.0309 17.9783H21.2503V24.1284L14.2242 31.0764H8.00476Z" fill="#7E7E7E"/>
<path d="M18.601 31.0764V24.9262L25.6271 17.9783H31.8465V24.1284L24.8204 31.0764H18.601ZM50.974 27.1803L47.3591 18.9636H44.439V29.9273H46.6197L46.6245 22.5388L49.9226 29.9273H52.0247L55.3277 22.5406V29.9273H57.5084V18.9636H54.5871L50.974 27.1803ZM62.7753 21.7136C59.1402 21.7136 58.3775 23.9617 58.3775 25.8467C58.3775 28.7265 59.8302 30.1256 62.8181 30.1256C65.8067 30.1256 67.2307 28.7384 67.2307 25.8854C67.2307 23.0324 65.7317 21.7118 62.777 21.7118L62.7753 21.7136ZM60.644 25.8079C60.644 24.3671 60.9726 23.6354 62.7753 23.6354C64.4529 23.6354 64.9643 24.1678 64.9643 25.9157C64.9643 27.6631 64.4595 28.2079 62.8039 28.2079C61.1488 28.2079 60.6434 27.6482 60.6434 25.8091L60.644 25.8079ZM72.9531 21.7273H72.9108C71.6017 21.7333 70.5795 22.6555 70.3104 23.0741V18.9636H68.1011V29.9273H70.3104V29.8529L70.3217 28.8074C70.6807 29.3867 71.6416 30.1274 72.8978 30.1274C75.644 30.1274 76.8168 28.895 76.8168 26.0074C76.8168 23.1199 75.6249 21.7285 72.9531 21.7285V21.7273ZM74.5932 25.8467C74.5932 28.0281 73.5752 28.2049 72.3459 28.2049C71.1159 28.2049 70.1271 28.031 70.1271 25.8991C70.1271 24.2778 70.7569 23.6462 72.3738 23.6462C73.9914 23.6462 74.5932 24.1999 74.5932 25.8455V25.8467ZM82.5439 21.7273H82.5014C81.1921 21.7333 80.17 22.6555 79.9009 23.0741V18.9636H77.692V29.9273H79.9009V29.8529L79.9127 28.8074C80.2715 29.385 81.2315 30.1256 82.4888 30.1256C85.2349 30.1256 86.4073 28.8932 86.4073 26.0056C86.4073 23.1187 85.216 21.7273 82.5439 21.7273ZM84.1837 25.8467C84.1837 28.0281 83.1663 28.2049 81.9365 28.2049C80.7066 28.2049 79.7176 28.031 79.7176 25.8991C79.7176 24.2778 80.3479 23.6462 81.9656 23.6462C83.5825 23.6462 84.1837 24.1999 84.1837 25.8455V25.8467ZM89.5523 21.9H87.3428V29.9273H89.5523V21.9ZM95.4725 21.7243C94.2466 21.7243 93.2551 22.4852 92.9373 23.0741V21.9H90.7286V29.9273H92.9373V25.2495C92.9373 24.2005 93.2528 23.6998 95.0436 23.6998C96.4001 23.6998 96.8817 24.1183 96.8817 25.3013V29.9261H99.0903V25.7794C99.0903 22.7627 98.1776 21.7392 95.4725 21.7225V21.7243ZM89.5523 18.9636H87.3428V21.0432H89.5523V18.9636Z" fill="#7E7E7E"/>
</svg>
