<svg width="77" height="49" viewBox="0 0 77 49" fill="none" xmlns="http://www.w3.org/2000/svg">
<mask id="mask0_4009_6078" style="mask-type:luminance" maskUnits="userSpaceOnUse" x="8" y="15" width="60" height="20">
<path d="M67.5857 15.1155H8.38574V34.2179H67.5857V15.1155Z" fill="white"/>
</mask>
<g mask="url(#mask0_4009_6078)">
<path d="M49.5458 19.8208V25.4379C49.5458 26.8916 49.0694 27.7567 47.9505 27.7567C46.8372 27.7567 46.3553 26.8916 46.3553 25.4379V19.8208H43.1809V25.6515C43.1809 28.705 45.0866 29.966 47.9452 29.966C50.306 29.966 52.7095 28.705 52.7095 25.6515V19.8208C52.7148 19.8208 49.5458 19.8208 49.5458 19.8208ZM25.3819 19.5967C22.1058 19.5967 19.9324 21.6549 19.9324 24.8543C19.9324 28.0641 22.2342 29.966 25.1945 29.966C27.9245 29.966 30.5744 28.309 30.5744 24.6824C30.5744 21.6914 28.5027 19.5967 25.3819 19.5967ZM25.2856 27.7723C23.9312 27.7723 23.2031 26.4905 23.2031 24.7866C23.2031 23.312 23.7813 21.8008 25.2962 21.8008C26.7309 21.8008 27.309 23.312 27.309 24.7761C27.3143 26.5686 26.5274 27.7723 25.2856 27.7723ZM17.6734 19.1225C16.6081 19.8312 16.3297 20.915 16.3297 20.915C15.7517 20.2064 14.5579 19.6436 13.1607 19.6436C10.8268 19.6436 8.38574 21.6706 8.38574 24.87C8.38574 27.7097 10.4467 29.8931 13.1607 29.8931C14.2849 29.8931 15.045 29.6221 15.6499 29.0384V29.2521C15.6499 31.0551 14.5044 31.8627 13.0001 31.8627C11.5281 31.8627 10.4895 31.3886 9.84182 31.0291L9.2155 33.3738C10.0613 33.8011 11.7368 34.218 13.0805 34.218C14.5846 34.218 16.0996 33.9365 17.2077 33.0038C18.364 32.0138 18.7601 30.4454 18.7601 28.5435V24.1508C18.7815 22.6293 19.3382 21.5612 20.0233 20.8056C20.0233 20.8004 17.6734 19.1225 17.6734 19.1225ZM13.7442 27.8036C12.3899 27.8036 11.6618 26.5218 11.6618 24.8178C11.6618 23.3432 12.24 21.8321 13.7549 21.8321C15.1789 21.8425 15.7569 23.3432 15.7569 24.8074C15.7569 26.5999 14.9808 27.8036 13.7442 27.8036ZM36.8803 19.5967C33.4811 19.5967 31.6289 21.7904 31.6289 25.0367V33.9991H34.798V29.0907C35.3654 29.6638 36.2701 29.9816 37.4798 29.9816C39.7496 29.9816 42.121 28.2829 42.121 24.6668C42.121 21.4882 39.969 19.5967 36.8803 19.5967ZM36.8696 27.7723C35.5153 27.7723 34.7873 26.4905 34.7873 24.7866C34.7873 23.312 35.3654 21.8008 36.8803 21.8008C38.3149 21.8008 38.8931 23.312 38.8931 24.7761C38.8771 26.5686 38.1061 27.7723 36.8696 27.7723ZM67.575 17.7052V15.3396C67.1361 15.2145 66.5901 15.126 65.8996 15.126C64.9734 15.126 63.8761 15.3864 63.0785 16.116C62.1737 16.9392 61.7937 18.2576 61.7937 19.4352V19.8052H58.5177V19.3049C58.4694 16.908 60.8783 17.6062 61.1566 17.6948V15.3292C60.7123 15.2041 60.1664 15.1155 59.4757 15.1155C58.5497 15.1155 57.4523 15.376 56.6547 16.1056C55.7501 16.9288 55.37 18.242 55.37 19.4248V19.7948H54.0156V22.0718H55.37V29.742C55.37 31.847 53.8657 31.5448 53.1966 31.4407L52.8594 33.7178C53.1806 33.8428 53.6945 33.9678 54.2137 33.9678C55.6483 33.9783 56.6655 33.551 57.3505 32.8997C58.2071 32.0764 58.5337 30.8936 58.5337 29.7212L58.555 22.077H61.8045V29.7472C61.8526 31.9668 60.07 31.5136 59.6311 31.4459L59.2938 33.7229C59.615 33.848 60.1289 33.973 60.6481 33.973C62.0828 33.9835 63.0999 33.5562 63.785 32.9048C64.6415 32.0816 64.9627 30.8988 64.9627 29.7264L64.9841 22.0822H67.5857V19.8208H64.9466V19.3153C64.9789 16.8924 67.2967 17.6271 67.575 17.7052Z" fill="#7E7E7E"/>
</g>
</svg>
