<svg width="119" height="49" viewBox="0 0 119 49" fill="none" xmlns="http://www.w3.org/2000/svg">
<mask id="mask0_4009_6084" style="mask-type:luminance" maskUnits="userSpaceOnUse" x="8" y="13" width="103" height="23">
<path d="M110.374 13.8667H8.54541V35.4667H110.374V13.8667Z" fill="white"/>
</mask>
<g mask="url(#mask0_4009_6084)">
<path fill-rule="evenodd" clip-rule="evenodd" d="M14.2027 13.8667H24.9109C28.0352 13.8667 30.568 16.3509 30.568 19.4153V29.9181C30.568 32.9825 28.0352 35.4667 24.9109 35.4667H14.2027C11.0783 35.4667 8.54553 32.9825 8.54553 29.9181V19.4153C8.54553 16.3509 11.0783 13.8667 14.2027 13.8667ZM22.0571 23.0753H25.618C25.5507 22.2837 25.3591 21.5813 25.0435 20.968C24.7278 20.3547 24.3111 19.8387 23.7933 19.4201C23.2756 18.9974 22.6737 18.6763 21.9876 18.4566C21.3015 18.237 20.5502 18.1272 19.7336 18.1272C18.5719 18.1272 17.5195 18.3779 16.5767 18.8793C15.6339 19.3766 14.8846 20.1122 14.329 21.0861C13.7734 22.0558 13.4955 23.2493 13.4955 24.6666C13.4955 26.0757 13.7671 27.2671 14.31 28.2409C14.8572 29.2149 15.6002 29.9525 16.5388 30.4539C17.4817 30.9553 18.5466 31.2061 19.7336 31.2061C20.6807 31.2061 21.5119 31.0631 22.2275 30.7772C22.9431 30.4913 23.5429 30.1141 24.027 29.6458C24.5152 29.1734 24.8919 28.6595 25.1571 28.1042C25.4223 27.5448 25.5759 26.9957 25.618 26.4569L22.0571 26.4321C22.015 26.7056 21.9329 26.9521 21.8108 27.1717C21.693 27.3873 21.5393 27.5717 21.3499 27.725C21.1605 27.8784 20.9374 27.9965 20.6807 28.0793C20.4239 28.1581 20.1335 28.1974 19.8094 28.1974C19.2411 28.1974 18.7549 28.0669 18.3508 27.8058C17.9467 27.5406 17.6374 27.1469 17.4227 26.6248C17.2123 26.0985 17.1071 25.4457 17.1071 24.6666C17.1071 23.929 17.2102 23.297 17.4164 22.7707C17.6269 22.2444 17.9342 21.8403 18.3383 21.5585C18.7465 21.2767 19.2453 21.1358 19.8346 21.1358C20.1714 21.1358 20.4723 21.1835 20.7375 21.2788C21.0027 21.37 21.2279 21.5026 21.4131 21.6766C21.6025 21.8465 21.7498 22.0496 21.855 22.2858C21.9644 22.5221 22.0318 22.7852 22.0571 23.0753Z" fill="#7E7E7E"/>
<path d="M47.9554 22.5281H45.9554C45.8786 22.1148 45.7354 21.7512 45.5261 21.4371C45.3165 21.123 45.0602 20.8566 44.7569 20.6375C44.4534 20.4185 44.1136 20.2532 43.7377 20.1416C43.3659 20.0301 42.9707 19.9743 42.5518 19.9743C41.7954 19.9743 41.1181 20.1582 40.5199 20.5259C39.9259 20.8938 39.4557 21.433 39.1097 22.1438C38.7678 22.8545 38.5969 23.7223 38.5969 24.7471C38.5969 25.7802 38.7678 26.6522 39.1097 27.363C39.4557 28.0737 39.928 28.6109 40.5262 28.9746C41.1245 29.3382 41.7977 29.52 42.5453 29.52C42.96 29.52 43.3531 29.4663 43.7249 29.3589C44.1009 29.2473 44.4405 29.0841 44.744 28.8692C45.0474 28.6542 45.3038 28.3919 45.5132 28.0819C45.7269 27.7679 45.8742 27.4084 45.9554 27.0034L47.9554 27.0096C47.8485 27.6336 47.6413 28.208 47.3336 28.7328C47.0303 29.2534 46.6391 29.7039 46.1605 30.0841C45.6863 30.4601 45.1437 30.7514 44.5325 30.9581C43.9215 31.1647 43.2548 31.268 42.5326 31.268C41.396 31.268 40.3831 31.0077 39.4941 30.487C38.6054 29.9622 37.9045 29.2122 37.3917 28.2369C36.8832 27.2617 36.629 26.0984 36.629 24.7471C36.629 23.3918 36.8854 22.2285 37.3982 21.2574C37.9109 20.2822 38.6118 19.5342 39.5006 19.0135C40.3896 18.4887 41.4002 18.2263 42.5326 18.2263C43.2291 18.2263 43.8786 18.3234 44.4811 18.5176C45.0881 18.7077 45.6328 18.9887 46.1157 19.3606C46.5985 19.7284 46.9981 20.1788 47.3144 20.7119C47.6305 21.2408 47.8443 21.8462 47.9554 22.5281Z" fill="#7E7E7E"/>
<path d="M51.0053 25.4414V31.0945H49.0887V18.3999H50.9796V23.1232H51.1015C51.3322 22.6108 51.6847 22.2037 52.1589 21.9021C52.6333 21.6004 53.253 21.4496 54.0179 21.4496C54.6931 21.4496 55.2827 21.5839 55.787 21.8525C56.2955 22.1211 56.6887 22.5219 56.9665 23.055C57.2486 23.5839 57.3895 24.2451 57.3895 25.0385V31.0945H55.473V25.2617C55.473 24.5633 55.2871 24.022 54.9151 23.6377C54.5435 23.2492 54.0264 23.055 53.3641 23.055C52.9111 23.055 52.5051 23.148 52.1462 23.3339C51.7915 23.5199 51.5116 23.7926 51.3065 24.1521C51.1057 24.5075 51.0053 24.9373 51.0053 25.4414Z" fill="#7E7E7E"/>
<path d="M61.7294 31.3053C61.1056 31.3053 60.5416 31.1938 60.0373 30.9706C59.5331 30.7433 59.1334 30.4148 58.8386 29.9851C58.5481 29.5553 58.4028 29.0284 58.4028 28.4044C58.4028 27.8672 58.5095 27.4251 58.7232 27.0779C58.9368 26.7308 59.2253 26.456 59.5886 26.2535C59.9519 26.0511 60.3578 25.8981 60.8065 25.7948C61.2552 25.6915 61.7124 25.613 62.1782 25.5593C62.7679 25.4931 63.2465 25.4395 63.614 25.3981C63.9816 25.3527 64.2487 25.2803 64.4153 25.1811C64.5819 25.082 64.6653 24.9208 64.6653 24.6977V24.6543C64.6653 24.113 64.5071 23.6935 64.1909 23.396C63.8789 23.0985 63.4132 22.9497 62.7936 22.9497C62.1483 22.9497 61.6397 23.0881 61.268 23.365C60.9004 23.6378 60.6463 23.9415 60.5052 24.2762L58.704 23.8795C58.9176 23.301 59.2296 22.834 59.64 22.4787C60.0543 22.1191 60.5309 21.8588 61.0694 21.6976C61.6078 21.5323 62.1739 21.4497 62.7679 21.4497C63.1611 21.4497 63.5777 21.4951 64.018 21.586C64.4622 21.6728 64.8768 21.8339 65.2613 22.0695C65.6502 22.3051 65.9687 22.6419 66.2165 23.0799C66.4643 23.5138 66.5883 24.0779 66.5883 24.7721V31.0946H64.7166V29.7929H64.6396C64.5158 30.0326 64.3299 30.2681 64.082 30.4995C63.8341 30.7309 63.5156 30.9231 63.1269 31.076C62.738 31.2289 62.2723 31.3053 61.7294 31.3053ZM62.1462 29.8177C62.676 29.8177 63.129 29.7164 63.505 29.5139C63.8854 29.3115 64.1739 29.047 64.3703 28.7206C64.5713 28.3899 64.6717 28.0367 64.6717 27.6606V26.4333C64.6032 26.4994 64.4709 26.5614 64.2744 26.6192C64.082 26.673 63.862 26.7205 63.614 26.7618C63.3662 26.799 63.1248 26.8341 62.8897 26.8672C62.6548 26.8961 62.4582 26.9209 62.3 26.9415C61.9282 26.987 61.5884 27.0635 61.2809 27.1709C60.9774 27.2783 60.7338 27.4333 60.5501 27.6358C60.3705 27.8342 60.2808 28.0987 60.2808 28.4292C60.2808 28.8879 60.4562 29.2351 60.8065 29.4706C61.1568 29.7019 61.6033 29.8177 62.1462 29.8177Z" fill="#7E7E7E"/>
<path d="M72.6543 21.5735V23.0612H67.2764V21.5735H72.6543ZM68.7185 19.2925H70.6351V28.299C70.6351 28.6585 70.6906 28.9291 70.8017 29.111C70.9128 29.2886 71.056 29.4106 71.2311 29.4767C71.4107 29.5386 71.6051 29.5697 71.8146 29.5697C71.9684 29.5697 72.1029 29.5594 72.2183 29.5386C72.3336 29.518 72.4233 29.5014 72.4876 29.4891L72.8336 31.0201C72.7225 31.0614 72.5644 31.1028 72.3593 31.1441C72.1542 31.1895 71.8978 31.2143 71.5901 31.2185C71.0858 31.2267 70.6159 31.14 70.1799 30.9582C69.744 30.7763 69.3915 30.4953 69.1224 30.1151C68.8531 29.735 68.7185 29.2577 68.7185 28.6833V19.2925Z" fill="#7E7E7E"/>
<path d="M74.0562 31.0945V18.3999H75.9727V23.1169H76.0881C76.1992 22.9186 76.3594 22.6893 76.569 22.4289C76.7783 22.1686 77.0688 21.9413 77.4406 21.7471C77.8123 21.5488 78.3039 21.4496 78.9149 21.4496C79.7097 21.4496 80.419 21.6438 81.043 22.0322C81.667 22.4207 82.1558 22.9806 82.511 23.7121C82.8694 24.4435 83.0494 25.3237 83.0494 26.3526C83.0494 27.3816 82.8718 28.2638 82.5174 28.9994C82.163 29.7308 81.6758 30.2949 81.0558 30.6916C80.4358 31.0841 79.7289 31.2805 78.9341 31.2805C78.3358 31.2805 77.8466 31.1833 77.4662 30.9891C77.0902 30.7949 76.7953 30.5676 76.5817 30.3073C76.3679 30.0469 76.2034 29.8155 76.0881 29.613H75.9279V31.0945H74.0562ZM75.9343 26.334C75.9343 27.0034 76.0348 27.5902 76.2356 28.0944C76.4364 28.5985 76.7269 28.9932 77.1072 29.2783C77.4877 29.5593 77.9534 29.6998 78.5047 29.6998C79.0773 29.6998 79.5559 29.5531 79.9404 29.2597C80.3254 28.9622 80.6158 28.5593 80.8118 28.051C81.0134 27.5427 81.1134 26.9704 81.1134 26.334C81.1134 25.7059 81.015 25.1418 80.819 24.6418C80.6262 24.1418 80.3358 23.7472 79.9469 23.4579C79.5624 23.1686 79.0815 23.024 78.5047 23.024C77.9491 23.024 77.4792 23.1625 77.0945 23.4393C76.7142 23.7161 76.4257 24.1025 76.2291 24.5985C76.0325 25.0943 75.9343 25.6729 75.9343 26.334Z" fill="#7E7E7E"/>
<path d="M86.9839 31.3053C86.3599 31.3053 85.7959 31.1938 85.2919 30.9706C84.7871 30.7433 84.3879 30.4148 84.0927 29.9851C83.8023 29.5553 83.6575 29.0284 83.6575 28.4044C83.6575 27.8672 83.7639 27.4251 83.9775 27.0779C84.1911 26.7308 84.4799 26.456 84.8431 26.2535C85.2063 26.0511 85.6119 25.8981 86.0607 25.7948C86.5095 25.6915 86.9671 25.613 87.4327 25.5593C88.0223 25.4931 88.5007 25.4395 88.8687 25.3981C89.2359 25.3527 89.5031 25.2803 89.6695 25.1811C89.8367 25.082 89.9199 24.9208 89.9199 24.6977V24.6543C89.9199 24.113 89.7615 23.6935 89.4455 23.396C89.1335 23.0985 88.6679 22.9497 88.0479 22.9497C87.4023 22.9497 86.8943 23.0881 86.5223 23.365C86.1551 23.6378 85.9007 23.9415 85.7599 24.2762L83.9583 23.8795C84.1719 23.301 84.4839 22.834 84.8943 22.4787C85.3087 22.1191 85.7855 21.8588 86.3239 21.6976C86.8623 21.5323 87.4287 21.4497 88.0223 21.4497C88.4151 21.4497 88.8319 21.4951 89.2727 21.586C89.7167 21.6728 90.1311 21.8339 90.5159 22.0695C90.9047 22.3051 91.2231 22.6419 91.4711 23.0799C91.7183 23.5138 91.8431 24.0779 91.8431 24.7721V31.0946H89.9711V29.7929H89.8943C89.7703 30.0326 89.5839 30.2681 89.3367 30.4995C89.0887 30.7309 88.7703 30.9231 88.3815 31.076C87.9927 31.2289 87.5271 31.3053 86.9839 31.3053ZM87.4007 29.8177C87.9303 29.8177 88.3831 29.7164 88.7599 29.5139C89.1399 29.3115 89.4287 29.047 89.6247 28.7206C89.8255 28.3899 89.9263 28.0367 89.9263 27.6606V26.4333C89.8575 26.4994 89.7255 26.5614 89.5287 26.6192C89.3367 26.673 89.1167 26.7205 88.8687 26.7618C88.6207 26.799 88.3791 26.8341 88.1439 26.8672C87.9095 26.8961 87.7127 26.9209 87.5543 26.9415C87.1823 26.987 86.8431 27.0635 86.5351 27.1709C86.2319 27.2783 85.9879 27.4333 85.8047 27.6358C85.6247 27.8342 85.5351 28.0987 85.5351 28.4292C85.5351 28.8879 85.7103 29.2351 86.0607 29.4706C86.4111 29.7019 86.8583 29.8177 87.4007 29.8177Z" fill="#7E7E7E"/>
<path d="M100.69 23.8981L98.9534 24.1956C98.8806 23.9807 98.7646 23.7762 98.607 23.5819C98.4526 23.3878 98.2438 23.2287 97.979 23.1047C97.7134 22.9807 97.3822 22.9187 96.9854 22.9187C96.4422 22.9187 95.9894 23.0365 95.6262 23.272C95.263 23.5035 95.0814 23.8031 95.0814 24.1708C95.0814 24.489 95.203 24.7452 95.447 24.9395C95.6902 25.1336 96.0838 25.2927 96.6262 25.4167L98.1902 25.7639C99.0966 25.9663 99.771 26.2783 100.216 26.6998C100.661 27.1213 100.882 27.6689 100.882 28.3424C100.882 28.9127 100.711 29.421 100.369 29.8673C100.032 30.3095 99.5598 30.6566 98.9534 30.9087C98.3502 31.1607 97.6518 31.2867 96.8574 31.2867C95.7542 31.2867 94.855 31.0595 94.1582 30.6049C93.4614 30.1462 93.0342 29.4954 92.8766 28.6523L94.7286 28.3796C94.8446 28.8466 95.0814 29.1999 95.4406 29.4395C95.799 29.6751 96.267 29.7929 96.8438 29.7929C97.4726 29.7929 97.9742 29.6669 98.3502 29.4147C98.7262 29.1586 98.915 28.8466 98.915 28.4788C98.915 28.1813 98.799 27.9313 98.5686 27.7288C98.3422 27.5263 97.9934 27.3734 97.5238 27.2701L95.8566 26.9167C94.9382 26.7143 94.259 26.3919 93.819 25.9498C93.383 25.5076 93.1646 24.9477 93.1646 24.27C93.1646 23.708 93.327 23.2163 93.6518 22.7947C93.9766 22.3732 94.4254 22.0447 94.9982 21.8091C95.571 21.5695 96.227 21.4497 96.9662 21.4497C98.0302 21.4497 98.8678 21.6728 99.479 22.1191C100.089 22.5613 100.493 23.1543 100.69 23.8981Z" fill="#7E7E7E"/>
<path d="M106.15 31.2867C105.18 31.2867 104.345 31.0863 103.644 30.6855C102.947 30.2805 102.409 29.7123 102.029 28.9809C101.653 28.2453 101.465 27.3837 101.465 26.3961C101.465 25.4208 101.653 24.5613 102.029 23.8175C102.409 23.0737 102.939 22.4931 103.618 22.0757C104.302 21.6583 105.101 21.4497 106.016 21.4497C106.571 21.4497 107.109 21.5385 107.631 21.7162C108.152 21.8939 108.62 22.1728 109.034 22.553C109.449 22.9332 109.776 23.427 110.015 24.0344C110.255 24.6378 110.374 25.3713 110.374 26.2349V26.8919H102.548V25.5035H108.496C108.496 25.0159 108.393 24.5841 108.189 24.208C107.983 23.8279 107.695 23.5283 107.323 23.3092C106.956 23.0902 106.524 22.9807 106.029 22.9807C105.49 22.9807 105.02 23.1088 104.618 23.365C104.221 23.6171 103.913 23.9477 103.695 24.3567C103.481 24.7618 103.374 25.2019 103.374 25.6771V26.7618C103.374 27.3982 103.49 27.9395 103.721 28.3859C103.956 28.8321 104.283 29.1731 104.701 29.4086C105.12 29.64 105.609 29.7557 106.169 29.7557C106.533 29.7557 106.864 29.7061 107.163 29.6069C107.462 29.5036 107.721 29.3507 107.938 29.1483C108.157 28.9458 108.323 28.6958 108.438 28.3983L110.253 28.7143C110.107 29.2309 109.846 29.6834 109.47 30.0719C109.099 30.4561 108.631 30.7557 108.067 30.9706C107.507 31.1814 106.868 31.2867 106.15 31.2867Z" fill="#7E7E7E"/>
</g>
</svg>
