<svg width="102" height="49" viewBox="0 0 102 49" fill="none" xmlns="http://www.w3.org/2000/svg">
<path d="M19.2578 15.8118H16.6621C14.4519 15.8143 12.3329 16.6937 10.7703 18.2567C9.20754 19.8198 8.32882 21.9389 8.32666 24.1491C8.3293 26.359 9.20834 28.4776 10.771 30.0402C12.3335 31.6029 14.4522 32.4819 16.6621 32.4845H19.2676C21.4779 32.4824 23.597 31.6036 25.16 30.041C26.7231 28.4782 27.6024 26.3594 27.605 24.1491C27.6029 21.9368 26.7225 19.8159 25.1572 18.2526C23.592 16.6891 21.47 15.8112 19.2578 15.8118ZM9.35826 24.1491C9.35826 22.2136 10.1271 20.3574 11.4958 18.9887C12.8644 17.6201 14.7207 16.8512 16.6562 16.8512C17.0639 16.8512 17.471 16.8847 17.8731 16.9518C19.5757 17.2334 21.1224 18.1118 22.2363 19.4299C23.3501 20.748 23.9583 22.4195 23.9521 24.1451C23.9501 25.2533 23.5565 26.3251 22.8407 27.1711C22.1251 28.0171 21.1333 28.5829 20.0408 28.7685C20.7686 28.2372 21.3605 27.5414 21.7683 26.7381C22.1763 25.9346 22.3886 25.0462 22.388 24.1451C22.3902 22.874 21.9689 21.6382 21.1906 20.6331C20.4123 19.6281 19.3214 18.9109 18.0901 18.5948C17.6218 18.4738 17.1399 18.4128 16.6562 18.4134C15.1385 18.418 13.6846 19.0238 12.6125 20.0981C11.5405 21.1723 10.9378 22.6275 10.9362 24.1451C10.9323 25.5535 11.2863 26.9398 11.9649 28.1738C12.6435 29.4079 13.6246 30.4494 14.8159 31.2005C13.2567 30.791 11.8766 29.8775 10.8906 28.6022C9.9045 27.3268 9.36786 25.7612 9.36418 24.1491H9.35826ZM17.956 19.6461C18.9327 19.9274 19.7915 20.5189 20.4023 21.3312C21.0133 22.1436 21.3434 23.1326 21.3426 24.1491C21.3429 25.1652 21.0127 26.1538 20.4018 26.9658C19.7908 27.7778 18.9324 28.369 17.956 28.6502C16.9795 28.369 16.1211 27.7778 15.5102 26.9658C14.8993 26.1538 14.5691 25.1652 14.5694 24.1491C14.5687 23.1326 14.8987 22.1436 15.5096 21.3312C16.1206 20.5189 16.9792 19.9274 17.956 19.6461ZM19.2578 31.443H19.2282C18.8317 31.4409 18.4359 31.4073 18.0447 31.3425C16.3843 31.0671 14.8711 30.2236 13.7638 28.9562C12.6564 27.6887 12.0237 26.076 11.9737 24.3937V24.1491C11.9749 23.0407 12.3683 21.9686 13.0841 21.1224C13.7999 20.2762 14.7921 19.7106 15.885 19.5258C15.1569 20.0569 14.5646 20.7525 14.1563 21.5559C13.7481 22.3594 13.5355 23.2479 13.5358 24.1491C13.534 25.42 13.9555 26.6553 14.7338 27.6599C15.512 28.6646 16.6027 29.3815 17.8337 29.6975C18.3018 29.8194 18.7838 29.8806 19.2676 29.879C20.787 29.8774 22.2437 29.2733 23.3182 28.1991C24.3927 27.125 24.9974 25.6685 24.9995 24.1491C25.0039 22.7406 24.6501 21.3542 23.9715 20.12C23.2927 18.8858 22.3115 17.8445 21.1197 17.0938C22.6786 17.5038 24.0579 18.4182 25.0423 19.6946C26.0268 20.9709 26.561 22.5372 26.5616 24.1491C26.5611 25.1076 26.3717 26.0566 26.0043 26.942C25.637 27.8274 25.0988 28.6317 24.4206 29.309C23.7423 29.9863 22.9373 30.5234 22.0515 30.8896C21.1656 31.2558 20.2163 31.4438 19.2578 31.443Z" fill="#7E7E7E"/>
<path d="M44.2935 31.0307H32.4216C32.4216 31.0307 30.9581 29.9381 32.4216 29.6915C33.8851 29.445 34.1731 28.9302 34.1731 28.4351V20.0464C34.1731 19.0997 33.8851 18.7071 32.4216 18.6046V17.2654H39.8832V18.6046C38.4197 18.7071 38.1317 19.0997 38.1317 20.0464V28.9223C38.1317 29.4154 38.2757 29.7665 39.5124 29.7665H40.8517C41.613 29.7665 42.5203 29.3956 43.1593 27.3759H44.4986L44.2935 31.0307ZM45.3645 25.9814C45.3645 22.6441 47.7768 20.1707 51.1969 20.1707C54.8045 20.1707 56.8853 22.6027 56.8853 25.5691C56.8853 28.8887 54.4337 31.3207 51.0746 31.3207C47.406 31.3207 45.3645 28.9499 45.3645 25.9814ZM53.0115 26.7447C53.0115 23.4686 51.8774 21.5099 50.7649 21.5099C49.7137 21.5099 49.2817 22.8295 49.2817 24.725C49.2817 28.0643 50.4356 29.9815 51.5263 29.9815C52.5598 29.9815 53.0115 28.6816 53.0115 26.7447ZM58.1635 25.9814C58.1635 22.6441 60.5757 20.1707 63.9959 20.1707C67.6034 20.1707 69.6843 22.6027 69.6843 25.5691C69.6843 28.8887 67.2326 31.3207 63.8716 31.3207C60.2049 31.3207 58.1635 28.9499 58.1635 25.9814ZM65.8105 26.7447C65.8105 23.4686 64.6764 21.5099 63.5639 21.5099C62.5126 21.5099 62.0787 22.8295 62.0787 24.725C62.0787 28.0643 63.2345 29.9815 64.3253 29.9815C65.3569 29.9815 65.8105 28.6816 65.8105 26.7447ZM82.4065 25.4055C82.4065 29.0111 80.2229 31.3227 77.069 31.3227C76.4328 31.3343 75.8009 31.2148 75.2129 30.9716V32.4963C75.2129 33.2596 75.5226 33.5693 76.925 33.7744V35.1215H70.1853V33.7823C71.2563 33.5357 71.3805 33.2675 71.3805 32.5042V23.4311C71.3805 22.8946 71.1952 22.5849 70.5147 22.2772L70.1853 22.1332V21.0603L74.3885 20.1747H75.2129V21.4942C75.4735 21.0814 75.8363 20.7429 76.2662 20.5117C76.6961 20.2805 77.1785 20.1643 77.6666 20.1747C80.9425 20.1707 82.4065 22.6954 82.4065 25.4055ZM78.4497 26.1471C78.4497 24.0031 77.858 22.1491 76.4299 22.1491C75.8106 22.1491 75.708 22.1076 75.2129 22.4784V26.6205C75.2129 29.0742 75.6074 29.796 76.6765 29.796C77.6666 29.796 78.4497 28.5791 78.4497 26.1471ZM92.3673 21.3857L90.4713 23.9834C89.5641 22.1687 88.6961 21.4074 87.6689 21.4074C87.0497 21.4074 86.2465 21.7782 86.2465 22.4173C86.2465 24.5869 92.6961 23.1786 92.5737 27.9617C92.5113 29.6915 90.8425 31.3148 87.9569 31.3148C85.4417 31.3148 83.3409 30.0564 82.8281 29.6027L85.0553 27.2753C86.2921 29.2122 87.3017 30.0781 88.2897 30.0781C88.8049 30.0781 89.7121 29.8513 89.7337 28.8414C89.7337 26.512 83.3649 28.3878 83.3849 23.7131C83.3849 21.508 85.2193 20.1628 88.1457 20.1628C90.4497 20.1707 91.9353 20.9735 92.3673 21.3857Z" fill="#7E7E7E"/>
</svg>
