<svg width="81" height="49" viewBox="0 0 81 49" fill="none" xmlns="http://www.w3.org/2000/svg">
<path d="M9.0177 31.7888V18.1299H15.0667C15.9123 18.1299 16.6798 18.325 17.3692 18.7152C18.0587 19.0925 18.5986 19.6064 18.9888 20.2568C19.392 20.9072 19.5937 21.6487 19.5937 22.4812C19.5937 23.3008 19.392 24.0488 18.9888 24.7252C18.5986 25.3887 18.0587 25.9155 17.3692 26.3058C16.6798 26.696 15.9123 26.8912 15.0667 26.8912H11.8471V31.7888H9.0177ZM16.7643 31.7888L13.2911 25.6228L16.296 25.135L20.1596 31.8084L16.7643 31.7888ZM11.8471 24.5106H14.9301C15.2814 24.5106 15.5871 24.4325 15.8472 24.2764C16.1204 24.1073 16.3285 23.8796 16.4716 23.5935C16.6147 23.2943 16.6863 22.9626 16.6863 22.5983C16.6863 22.208 16.6017 21.8699 16.4326 21.5836C16.2635 21.2975 16.0163 21.0763 15.6911 20.9202C15.3659 20.7511 14.9887 20.6665 14.5594 20.6665H11.8471V24.5106Z" fill="#7E7E7E"/>
<path d="M25.8317 31.984C24.713 31.984 23.7307 31.7564 22.8852 31.3011C22.0527 30.8458 21.4023 30.2213 20.9339 29.4279C20.4787 28.6343 20.251 27.7237 20.251 26.696C20.251 25.8895 20.3811 25.1545 20.6412 24.4911C20.9014 23.8276 21.2656 23.2553 21.7339 22.7739C22.2023 22.2796 22.7551 21.9024 23.3926 21.6422C24.043 21.3691 24.7455 21.2324 25.5 21.2324C26.2025 21.2324 26.8528 21.3625 27.4513 21.6227C28.0496 21.8829 28.5635 22.2471 28.9928 22.7154C29.4351 23.1707 29.7733 23.7171 30.0075 24.3545C30.2416 24.9789 30.3456 25.6554 30.3197 26.3839L30.3002 27.2424H22.0072L21.5583 25.5448H28.0171L27.705 25.896V25.4667C27.6789 25.1155 27.5619 24.8033 27.3536 24.5301C27.1586 24.2439 26.9049 24.0228 26.5927 23.8667C26.2805 23.6975 25.9292 23.613 25.5389 23.613C24.9667 23.613 24.4788 23.7236 24.0755 23.9447C23.6852 24.1659 23.3861 24.4911 23.1779 24.9203C22.9698 25.3496 22.8657 25.87 22.8657 26.4814C22.8657 27.1058 22.9959 27.6456 23.256 28.101C23.5292 28.5563 23.9064 28.9139 24.3878 29.1742C24.882 29.4213 25.4609 29.5449 26.1243 29.5449C26.5796 29.5449 26.9959 29.4734 27.3732 29.3303C27.7504 29.1871 28.1537 28.94 28.5831 28.5888L29.9099 30.4425C29.5327 30.7807 29.1163 31.0669 28.6611 31.3011C28.2058 31.5223 27.7375 31.6913 27.2561 31.8084C26.7748 31.9255 26.3 31.984 25.8317 31.984Z" fill="#7E7E7E"/>
<path d="M34.865 31.984C33.9024 31.984 33.0438 31.8279 32.2893 31.5157C31.5478 31.1905 30.9495 30.7482 30.4941 30.1888L32.2308 28.7059C32.6211 29.1352 33.0633 29.4473 33.5577 29.6424C34.0521 29.8246 34.5463 29.9156 35.0407 29.9156C35.2358 29.9156 35.4114 29.8961 35.5675 29.8571C35.7366 29.8051 35.8797 29.74 35.9968 29.662C36.1139 29.5709 36.1985 29.4668 36.2505 29.3498C36.3155 29.2197 36.3481 29.0832 36.3481 28.94C36.3481 28.6539 36.2309 28.4327 35.9968 28.2766C35.8667 28.1985 35.6651 28.114 35.3919 28.0229C35.1187 27.9188 34.7675 27.8083 34.3382 27.6912C33.6748 27.5221 33.1089 27.327 32.6405 27.1058C32.1853 26.8716 31.821 26.6115 31.5478 26.3253C31.3137 26.0521 31.1316 25.7594 31.0015 25.4472C30.8844 25.122 30.8259 24.7643 30.8259 24.374C30.8259 23.9057 30.93 23.4829 31.1381 23.1056C31.3462 22.7154 31.6325 22.3837 31.9966 22.1105C32.3739 21.8373 32.8032 21.6292 33.2845 21.4861C33.7658 21.33 34.2731 21.252 34.8065 21.252C35.3399 21.252 35.8602 21.317 36.3675 21.4471C36.8749 21.5772 37.3432 21.7658 37.7725 22.0129C38.2147 22.2471 38.5985 22.5268 38.9237 22.852L37.4408 24.4911C37.2066 24.27 36.94 24.0683 36.6407 23.8862C36.3545 23.704 36.0553 23.561 35.7431 23.4569C35.4309 23.3528 35.1512 23.3008 34.9041 23.3008C34.6829 23.3008 34.4813 23.3203 34.2992 23.3593C34.1301 23.3984 33.9869 23.4634 33.8699 23.5544C33.7528 23.6325 33.6618 23.73 33.5967 23.8472C33.5447 23.9642 33.5186 24.0943 33.5186 24.2374C33.5186 24.3805 33.5512 24.5171 33.6162 24.6472C33.6943 24.7772 33.7984 24.8879 33.9285 24.9789C34.0716 25.0569 34.2797 25.148 34.5529 25.252C34.839 25.3561 35.2228 25.4732 35.7041 25.6033C36.3285 25.7724 36.8553 25.9611 37.2846 26.1692C37.7269 26.3773 38.0781 26.618 38.3383 26.8912C38.5595 27.1253 38.7221 27.392 38.8261 27.6912C38.9302 27.9904 38.9823 28.3221 38.9823 28.6864C38.9823 29.3237 38.8001 29.8896 38.4359 30.384C38.0847 30.8783 37.5969 31.2686 36.9725 31.5548C36.3481 31.8409 35.6456 31.984 34.865 31.984Z" fill="#7E7E7E"/>
<path d="M44.88 31.984C43.7612 31.984 42.7792 31.7564 41.9336 31.3011C41.1011 30.8457 40.4506 30.2213 39.9823 29.4279C39.5269 28.6343 39.2993 27.7237 39.2993 26.696C39.2993 25.8895 39.4294 25.1545 39.6896 24.4911C39.9498 23.8276 40.314 23.2553 40.7823 22.7739C41.2506 22.2796 41.8035 21.9023 42.4409 21.6422C43.0914 21.369 43.7938 21.2324 44.5483 21.2324C45.2508 21.2324 45.9012 21.3625 46.4996 21.6227C47.098 21.8828 47.6118 22.2471 48.0411 22.7154C48.4833 23.1707 48.8216 23.7171 49.0557 24.3545C49.2899 24.9789 49.394 25.6554 49.368 26.3839L49.3484 27.2424H41.0555L40.6067 25.5447H47.0655L46.7532 25.896V25.4667C46.7272 25.1155 46.6101 24.8033 46.402 24.5301C46.2068 24.2439 45.9532 24.0227 45.641 23.8667C45.3288 23.6975 44.9776 23.613 44.5873 23.613C44.0149 23.613 43.5271 23.7235 43.1239 23.9447C42.7336 24.1659 42.4344 24.4911 42.2263 24.9203C42.0181 25.3496 41.914 25.87 41.914 26.4814C41.914 27.1058 42.0441 27.6456 42.3043 28.101C42.5775 28.5563 42.9548 28.9139 43.436 29.1742C43.9304 29.4213 44.5092 29.5449 45.1727 29.5449C45.628 29.5449 46.0443 29.4734 46.4216 29.3303C46.7988 29.1871 47.202 28.94 47.6313 28.5887L48.9582 30.4425C48.5809 30.7807 48.1647 31.0669 47.7094 31.3011C47.254 31.5223 46.7857 31.6913 46.3044 31.8084C45.8232 31.9255 45.3483 31.984 44.88 31.984Z" fill="#7E7E7E"/>
<path d="M50.4396 31.7889V21.4666H53.0933L53.1713 23.574L52.625 23.8081C52.7681 23.3398 53.0218 22.9171 53.386 22.5398C53.7633 22.1496 54.2121 21.8373 54.7324 21.6032C55.2528 21.369 55.7992 21.252 56.3715 21.252C57.152 21.252 57.8025 21.408 58.3228 21.7203C58.8561 22.0324 59.2529 22.5073 59.513 23.1447C59.7862 23.7691 59.9228 24.5432 59.9228 25.4668V31.7889H57.152V25.6814C57.152 25.2131 57.087 24.8228 56.9569 24.5106C56.8268 24.1984 56.6251 23.9708 56.352 23.8276C56.0918 23.6845 55.7665 23.6196 55.3763 23.6325C55.0641 23.6325 54.7714 23.6846 54.4982 23.7886C54.2381 23.8797 54.0104 24.0163 53.8153 24.1984C53.6333 24.3805 53.4836 24.5887 53.3665 24.8228C53.2625 25.057 53.2104 25.3106 53.2104 25.5838V31.7889H51.8445C51.5453 31.7889 51.2786 31.7889 51.0445 31.7889C50.8103 31.7889 50.6087 31.7889 50.4396 31.7889Z" fill="#7E7E7E"/>
<path d="M65.6421 31.984C64.7316 31.984 63.9185 31.7564 63.203 31.301C62.5005 30.8327 61.9412 30.2018 61.5249 29.4083C61.1216 28.6018 60.92 27.6717 60.92 26.618C60.92 25.5903 61.1216 24.6732 61.5249 23.8666C61.9412 23.0471 62.5005 22.4097 63.203 21.9544C63.9185 21.4861 64.7316 21.2519 65.6421 21.2519C66.1235 21.2519 66.5852 21.33 67.0276 21.4861C67.4828 21.6292 67.8861 21.8308 68.2373 22.091C68.6016 22.3511 68.8944 22.6438 69.1154 22.969C69.3366 23.2813 69.4602 23.6065 69.4862 23.9447L68.7837 24.0813V17.3494H71.574V31.7889H68.9398L68.8228 29.4083L69.3691 29.4668C69.3432 29.792 69.226 30.1042 69.0179 30.4034C68.8097 30.7027 68.53 30.9758 68.1788 31.223C67.8407 31.4571 67.4504 31.6458 67.008 31.7889C66.5788 31.919 66.1235 31.984 65.6421 31.984ZM66.2665 29.6815C66.7869 29.6815 67.2422 29.5514 67.6324 29.2912C68.0227 29.031 68.3284 28.6734 68.5496 28.218C68.7707 27.7627 68.8812 27.2294 68.8812 26.618C68.8812 26.0196 68.7707 25.4927 68.5496 25.0374C68.3284 24.5822 68.0227 24.2244 67.6324 23.9642C67.2422 23.7041 66.7869 23.574 66.2665 23.574C65.7462 23.574 65.2909 23.7041 64.9006 23.9642C64.5235 24.2244 64.2242 24.5822 64.0031 25.0374C63.7949 25.4927 63.6908 26.0196 63.6908 26.618C63.6908 27.2294 63.7949 27.7627 64.0031 28.218C64.2242 28.6734 64.5235 29.031 64.9006 29.2912C65.2909 29.5514 65.7462 29.6815 66.2665 29.6815Z" fill="#7E7E7E"/>
</svg>
