<svg width="62" height="203" viewBox="0 0 62 203" fill="none" xmlns="http://www.w3.org/2000/svg">
<mask id="path-1-inside-1_4009_5632" fill="white">
<path d="M0 8.6665C0 4.24823 3.58172 0.666504 8 0.666504H54C58.4183 0.666504 62 4.24823 62 8.6665V54.6665C62 59.0848 58.4183 62.6665 54 62.6665H8C3.58172 62.6665 0 59.0848 0 54.6665V8.6665Z"/>
</mask>
<path d="M0 8.6665C0 4.24823 3.58172 0.666504 8 0.666504H54C58.4183 0.666504 62 4.24823 62 8.6665V54.6665C62 59.0848 58.4183 62.6665 54 62.6665H8C3.58172 62.6665 0 59.0848 0 54.6665V8.6665Z" fill="#075E54"/>
<path d="M8 0.666504V1.33317H54V0.666504V-0.000163078H8V0.666504ZM62 8.6665H61.3333V54.6665H62H62.6667V8.6665H62ZM54 62.6665V61.9998H8V62.6665V63.3332H54V62.6665ZM0 54.6665H0.666667V8.6665H0H-0.666667V54.6665H0ZM8 62.6665V61.9998C3.94991 61.9998 0.666667 58.7166 0.666667 54.6665H0H-0.666667C-0.666667 59.453 3.21353 63.3332 8 63.3332V62.6665ZM62 54.6665H61.3333C61.3333 58.7166 58.0501 61.9998 54 61.9998V62.6665V63.3332C58.7865 63.3332 62.6667 59.453 62.6667 54.6665H62ZM54 0.666504V1.33317C58.0501 1.33317 61.3333 4.61642 61.3333 8.6665H62H62.6667C62.6667 3.88004 58.7865 -0.000163078 54 -0.000163078V0.666504ZM8 0.666504V-0.000163078C3.21353 -0.000163078 -0.666667 3.88004 -0.666667 8.6665H0H0.666667C0.666667 4.61642 3.94991 1.33317 8 1.33317V0.666504Z" fill="white" mask="url(#path-1-inside-1_4009_5632)"/>
<path d="M38 22.6665H24C22.8954 22.6665 22 23.5619 22 24.6665V38.6665C22 39.7711 22.8954 40.6665 24 40.6665H38C39.1046 40.6665 40 39.7711 40 38.6665V24.6665C40 23.5619 39.1046 22.6665 38 22.6665Z" stroke="white" stroke-width="2" stroke-linecap="round" stroke-linejoin="round"/>
<path d="M28 30.6665C29.1046 30.6665 30 29.7711 30 28.6665C30 27.5619 29.1046 26.6665 28 26.6665C26.8954 26.6665 26 27.5619 26 28.6665C26 29.7711 26.8954 30.6665 28 30.6665Z" stroke="white" stroke-width="2" stroke-linecap="round" stroke-linejoin="round"/>
<path d="M40 34.6664L36.914 31.5804C36.5389 31.2055 36.0303 30.9949 35.5 30.9949C34.9697 30.9949 34.4611 31.2055 34.086 31.5804L25 40.6664" stroke="white" stroke-width="2" stroke-linecap="round" stroke-linejoin="round"/>
<mask id="path-6-inside-2_4009_5632" fill="white">
<path d="M0 78.6665C0 74.2482 3.58172 70.6665 8 70.6665H54C58.4183 70.6665 62 74.2482 62 78.6665V124.667C62 129.085 58.4183 132.667 54 132.667H8C3.58172 132.667 0 129.085 0 124.667V78.6665Z"/>
</mask>
<path d="M0 78.6665C0 74.2482 3.58172 70.6665 8 70.6665H54C58.4183 70.6665 62 74.2482 62 78.6665V124.667C62 129.085 58.4183 132.667 54 132.667H8C3.58172 132.667 0 129.085 0 124.667V78.6665Z" fill="#075E54"/>
<path d="M8 70.6665V71.3332H54V70.6665V69.9998H8V70.6665ZM62 78.6665H61.3333V124.667H62H62.6667V78.6665H62ZM54 132.667V132H8V132.667V133.333H54V132.667ZM0 124.667H0.666667V78.6665H0H-0.666667V124.667H0ZM8 132.667V132C3.94991 132 0.666667 128.717 0.666667 124.667H0H-0.666667C-0.666667 129.453 3.21353 133.333 8 133.333V132.667ZM62 124.667H61.3333C61.3333 128.717 58.0501 132 54 132V132.667V133.333C58.7865 133.333 62.6667 129.453 62.6667 124.667H62ZM54 70.6665V71.3332C58.0501 71.3332 61.3333 74.6164 61.3333 78.6665H62H62.6667C62.6667 73.88 58.7865 69.9998 54 69.9998V70.6665ZM8 70.6665V69.9998C3.21353 69.9998 -0.666667 73.88 -0.666667 78.6665H0H0.666667C0.666667 74.6164 3.94991 71.3332 8 71.3332V70.6665Z" fill="white" mask="url(#path-6-inside-2_4009_5632)"/>
<path d="M34 91.6665H25C24.4696 91.6665 23.9609 91.8772 23.5858 92.2523C23.2107 92.6274 23 93.1361 23 93.6665V109.667C23 110.197 23.2107 110.706 23.5858 111.081C23.9609 111.456 24.4696 111.667 25 111.667H37C37.5304 111.667 38.0391 111.456 38.4142 111.081C38.7893 110.706 39 110.197 39 109.667V96.6665L34 91.6665Z" stroke="white" stroke-width="2" stroke-linecap="round" stroke-linejoin="round"/>
<path d="M33 91.6665V95.6665C33 96.1969 33.2107 96.7056 33.5858 97.0807C33.9609 97.4558 34.4696 97.6665 35 97.6665H39" stroke="white" stroke-width="2" stroke-linecap="round" stroke-linejoin="round"/>
<mask id="path-10-inside-3_4009_5632" fill="white">
<path d="M0 148.667C0 144.248 3.58172 140.667 8 140.667H54C58.4183 140.667 62 144.248 62 148.667V194.667C62 199.085 58.4183 202.667 54 202.667H8C3.58172 202.667 0 199.085 0 194.667V148.667Z"/>
</mask>
<path d="M0 148.667C0 144.248 3.58172 140.667 8 140.667H54C58.4183 140.667 62 144.248 62 148.667V194.667C62 199.085 58.4183 202.667 54 202.667H8C3.58172 202.667 0 199.085 0 194.667V148.667Z" fill="#075E54"/>
<path d="M8 140.667V141.333H54V140.667V140H8V140.667ZM62 148.667H61.3333V194.667H62H62.6667V148.667H62ZM54 202.667V202H8V202.667V203.333H54V202.667ZM0 194.667H0.666667V148.667H0H-0.666667V194.667H0ZM8 202.667V202C3.94991 202 0.666667 198.717 0.666667 194.667H0H-0.666667C-0.666667 199.453 3.21353 203.333 8 203.333V202.667ZM62 194.667H61.3333C61.3333 198.717 58.0501 202 54 202V202.667V203.333C58.7865 203.333 62.6667 199.453 62.6667 194.667H62ZM54 140.667V141.333C58.0501 141.333 61.3333 144.616 61.3333 148.667H62H62.6667C62.6667 143.88 58.7865 140 54 140V140.667ZM8 140.667V140C3.21353 140 -0.666667 143.88 -0.666667 148.667H0H0.666667C0.666667 144.616 3.94991 141.333 8 141.333V140.667Z" fill="white" mask="url(#path-10-inside-3_4009_5632)"/>
<path d="M35 172.667L40.223 176.149C40.2983 176.199 40.3858 176.227 40.4761 176.232C40.5664 176.236 40.6563 176.216 40.736 176.173C40.8157 176.13 40.8824 176.067 40.9289 175.989C40.9754 175.912 41 175.823 41 175.733V167.537C41 167.449 40.9768 167.362 40.9328 167.286C40.8887 167.21 40.8253 167.147 40.7491 167.103C40.6728 167.059 40.5863 167.036 40.4983 167.036C40.4103 167.037 40.324 167.06 40.248 167.105L35 170.167" stroke="white" stroke-width="2" stroke-linecap="round" stroke-linejoin="round"/>
<path d="M33 165.667H23C21.8954 165.667 21 166.562 21 167.667V175.667C21 176.771 21.8954 177.667 23 177.667H33C34.1046 177.667 35 176.771 35 175.667V167.667C35 166.562 34.1046 165.667 33 165.667Z" stroke="white" stroke-width="2" stroke-linecap="round" stroke-linejoin="round"/>
</svg>
