<svg width="265" height="392" viewBox="0 0 265 392" fill="none" xmlns="http://www.w3.org/2000/svg">
<g clip-path="url(#clip0_4009_5422)">
<g clip-path="url(#clip1_4009_5422)">
<mask id="mask0_4009_5422" style="mask-type:luminance" maskUnits="userSpaceOnUse" x="0" y="17" width="266" height="376">
<path d="M265.002 17.124H0.00158691V392.252H265.002V17.124Z" fill="white"/>
</mask>
<g mask="url(#mask0_4009_5422)">
<path d="M-13.2822 7.9231V407.001M-2.03971 7.9231L-2.03969 407.001M9.20277 7.9231V407.001M20.4452 7.9231V407.001M31.6876 7.9231V407.001M42.93 7.9231V407.001M54.1725 7.9231L54.1725 407.001M65.415 7.9231V407.001M76.6574 7.9231V407.001M87.8997 7.9231V407.001M99.1421 7.9231V407.001M110.385 7.9231V407.001M121.627 7.9231V407.001M132.869 7.9231V407.001M144.112 7.9231V407.001M155.354 7.9231V407.001M166.597 7.9231V407.001M177.839 7.9231V407.001M189.081 7.9231V407.001M200.324 7.9231V407.001M211.566 7.9231V407.001M222.809 7.9231V407.001M234.051 7.9231V407.001M245.294 7.9231L245.294 407.001M256.537 7.9231V407.001M267.779 7.9231V407.001M279.022 7.9231V407.001M290.264 7.9231V407.001M301.507 7.9231V407.001M353.829 16.906H-13.5198M353.829 29.1194H-13.5198M353.829 41.3329H-13.5198M353.829 53.5465H-13.5198M353.829 65.7599H-13.5198M353.829 77.9734H-13.5198M353.829 90.1868H-13.5198M353.829 102.4H-13.5198M353.829 114.614H-13.5198M353.829 126.828H-13.5198M353.829 139.041H-13.5198M353.829 151.254H-13.5198M353.829 163.468H-13.5198M353.829 175.681H-13.5198M353.829 187.895H-13.5198M353.829 200.108H-13.5198M353.829 212.322H-13.5198M353.829 224.535H-13.5198M353.829 236.749H-13.5198M353.829 248.962H-13.5198M353.829 261.176H-13.5198M353.829 273.389H-13.5198M353.829 285.603H-13.5198M353.829 297.816H-13.5198M353.829 310.029H-13.5198M353.829 322.243H-13.5198M353.829 334.456H-13.5198M353.829 346.67H-13.5198M353.829 358.883H-13.5198M353.829 371.097H-13.5198M353.829 383.31H-13.5198M353.829 395.524H-13.5198" stroke="black" stroke-width="0.5"/>
</g>
</g>
<mask id="path-3-inside-1_4009_5422" fill="white">
<path d="M94.4479 203.269C94.4479 194.059 101.914 186.594 111.123 186.594H144.473C153.682 186.594 161.148 194.059 161.148 203.269V203.269C161.148 212.478 153.682 219.944 144.473 219.944H111.123C101.914 219.944 94.4479 212.478 94.4479 203.269V203.269Z"/>
</mask>
<path d="M94.4479 203.269C94.4479 194.059 101.914 186.594 111.123 186.594H144.473C153.682 186.594 161.148 194.059 161.148 203.269V203.269C161.148 212.478 153.682 219.944 144.473 219.944H111.123C101.914 219.944 94.4479 212.478 94.4479 203.269V203.269Z" fill="black"/>
<path d="M111.123 186.594V187.26H144.473V186.594V185.927H111.123V186.594ZM144.473 219.944V219.277H111.123V219.944V220.61H144.473V219.944ZM111.123 219.944V219.277C102.282 219.277 95.1145 212.11 95.1145 203.269H94.4479H93.7812C93.7812 212.846 101.545 220.61 111.123 220.61V219.944ZM161.148 203.269H160.481C160.481 212.11 153.314 219.277 144.473 219.277V219.944V220.61C154.05 220.61 161.815 212.846 161.815 203.269H161.148ZM144.473 186.594V187.26C153.314 187.26 160.481 194.428 160.481 203.269H161.148H161.815C161.815 193.691 154.05 185.927 144.473 185.927V186.594ZM111.123 186.594V185.927C101.545 185.927 93.7812 193.691 93.7812 203.269H94.4479H95.1145C95.1145 194.428 102.282 187.26 111.123 187.26V186.594Z" fill="#898989" fill-opacity="0.7" mask="url(#path-3-inside-1_4009_5422)"/>
<path d="M115.458 203.927C115.458 202.27 116.801 200.927 118.458 200.927V200.927C120.115 200.927 121.458 202.27 121.458 203.927V203.927C121.458 205.584 120.115 206.927 118.458 206.927V206.927C116.801 206.927 115.458 205.584 115.458 203.927V203.927Z" fill="#075E54"/>
<path d="M125.458 203.927C125.458 202.27 126.801 200.927 128.458 200.927V200.927C130.115 200.927 131.458 202.27 131.458 203.927V203.927C131.458 205.584 130.115 206.927 128.458 206.927V206.927C126.801 206.927 125.458 205.584 125.458 203.927V203.927Z" fill="#075E54"/>
<path d="M135.458 203.927C135.458 202.27 136.801 200.927 138.458 200.927V200.927C140.115 200.927 141.458 202.27 141.458 203.927V203.927C141.458 205.584 140.115 206.927 138.458 206.927V206.927C136.801 206.927 135.458 205.584 135.458 203.927V203.927Z" fill="#075E54"/>
<g clip-path="url(#clip2_4009_5422)">
<path d="M68.0317 212.291C67.0262 211.459 65.5065 212.175 65.5065 213.479V246.223C65.5065 247.699 67.379 248.332 68.2744 247.159L77.0342 235.688C77.1368 235.554 77.2962 235.475 77.4652 235.475H91.7724C93.2176 235.475 93.869 233.666 92.7555 232.744L68.0317 212.291Z" fill="black" stroke="#075E54" stroke-linejoin="round"/>
</g>
<g clip-path="url(#clip3_4009_5422)">
<path d="M164.525 299.257C163.854 298.702 162.841 299.179 162.841 300.049V321.878C162.841 322.862 164.089 323.284 164.686 322.502L170.526 314.855C170.595 314.765 170.701 314.713 170.814 314.713H180.352C181.315 314.713 181.749 313.506 181.007 312.892L164.525 299.257Z" fill="black" stroke="#075E54" stroke-width="0.666667" stroke-linejoin="round"/>
</g>
</g>
<defs>
<clipPath id="clip0_4009_5422">
<rect width="264.84" height="406" fill="white" transform="translate(0 -14)"/>
</clipPath>
<clipPath id="clip1_4009_5422">
<rect width="265" height="376" fill="white" transform="translate(0.00158691 16.3333)"/>
</clipPath>
<clipPath id="clip2_4009_5422">
<rect width="30" height="38" fill="white" transform="translate(64.4479 210.594)"/>
</clipPath>
<clipPath id="clip3_4009_5422">
<rect width="20" height="28" fill="white" transform="translate(162.135 296.792)"/>
</clipPath>
</defs>
</svg>
