<svg width="20" height="19" viewBox="0 0 20 19" fill="none" xmlns="http://www.w3.org/2000/svg">
<path fill-rule="evenodd" clip-rule="evenodd" d="M11.1485 17.3557C10.6835 17.4352 10.2055 17.4766 9.71785 17.4766C9.26335 17.4766 8.81725 17.4406 8.38225 17.3714C7.84025 17.9859 6.99171 18.297 5.85458 18.297C5.16203 18.297 4.36207 18.1805 3.47752 17.9511C3.45776 17.9456 2.85191 17.7768 2.19092 17.5147C1.11546 17.0883 0.561638 16.691 0.338768 16.1868C0.191778 15.8541 0.202428 15.4968 0.368988 15.1807C0.384428 15.1513 0.400958 15.1226 0.418568 15.095C0.141548 14.6719 0.194598 14.2611 0.246358 14.0639C0.312458 13.8123 0.449228 13.6031 0.634918 13.4529C0.546858 13.3066 0.487928 13.1485 0.462488 12.9721C0.408998 12.6018 0.531848 12.2318 0.808438 11.9306C1.0237 11.696 1.32812 11.5668 1.66515 11.5668L1.67411 11.5669C1.42583 10.7723 1.29204 9.9272 1.29204 9.0508C1.29204 4.39737 5.0644 0.625 9.71785 0.625C14.3713 0.625 18.1436 4.39737 18.1436 9.0508C18.1436 9.9294 18.0092 10.7766 17.7597 11.5729C17.8003 11.5689 17.8402 11.5668 17.8793 11.5668C18.2163 11.5668 18.5207 11.696 18.736 11.9306C19.0126 12.2318 19.1354 12.6018 19.082 12.9721C19.0565 13.1485 18.9976 13.3066 18.9095 13.4529C19.0952 13.6031 19.232 13.8123 19.2981 14.0639C19.3498 14.2611 19.4029 14.6719 19.1259 15.095C19.1435 15.1226 19.16 15.1513 19.1754 15.1807C19.342 15.4968 19.3527 15.8541 19.2057 16.1868C18.9828 16.691 18.429 17.0883 17.3535 17.5147C16.6923 17.7769 16.0867 17.9456 16.0674 17.951C15.1829 18.1804 14.3824 18.297 13.6899 18.297C12.5431 18.297 11.6898 17.9806 11.1485 17.3557ZM9.71785 1.49476C13.8909 1.49476 17.2739 4.87772 17.2739 9.0508C17.2739 9.6276 17.2092 10.1893 17.0868 10.7291C16.8742 10.5224 16.5926 10.4098 16.282 10.4098C16.0002 10.4098 15.7103 10.5031 15.4203 10.6871C15.2278 10.8093 15.0152 11.0258 14.7962 11.2981C14.5933 11.0167 14.3094 10.8297 13.9845 10.7786C13.9223 10.7688 13.859 10.7638 13.7966 10.7638C13.0549 10.7638 12.6087 11.4072 12.44 11.986C12.3563 12.1815 11.9545 13.0722 11.35 13.6762C10.4331 14.5926 10.2009 15.5377 10.6493 16.55C10.3441 16.5875 10.0332 16.6069 9.71785 16.6069C9.43805 16.6069 9.16175 16.5917 8.88975 16.562C9.34535 15.5452 9.11495 14.5962 8.19445 13.6762C7.58997 13.0722 7.18814 12.1815 7.10442 11.986C6.93569 11.4072 6.4895 10.7638 5.74781 10.7638C5.68541 10.7638 5.62213 10.7688 5.55995 10.7786C5.23509 10.8297 4.95111 11.0167 4.74824 11.2981C4.52928 11.0258 4.31662 10.8093 4.12419 10.6871C3.83412 10.5031 3.54427 10.4098 3.26247 10.4098C2.91043 10.4098 2.5958 10.5544 2.3764 10.8166L2.37087 10.8233C2.2342 10.2548 2.16181 9.6613 2.16181 9.0508C2.16181 4.87772 5.54477 1.49476 9.71785 1.49476ZM3.26247 11.2796C3.37337 11.2796 3.50883 11.3268 3.65821 11.4216C4.12201 11.7158 5.017 13.2542 5.34468 13.8526C5.45449 14.053 5.64214 14.1378 5.81109 14.1378C6.14638 14.1378 6.40818 13.8045 5.84175 13.3809C4.99003 12.7436 5.2888 11.7018 5.69541 11.6377C5.71324 11.6349 5.73085 11.6336 5.74781 11.6336C6.11746 11.6336 6.28054 12.2707 6.28054 12.2707C6.28054 12.2707 6.75848 13.4709 7.57953 14.2913C8.40055 15.112 8.44295 15.7706 7.84455 16.6482C7.43646 17.2466 6.65519 17.4273 5.85458 17.4273C5.02417 17.4273 4.17289 17.2329 3.69583 17.1092C3.67235 17.1031 0.771038 16.2835 1.13851 15.586C1.20027 15.4688 1.30203 15.4218 1.4301 15.4218C1.70475 15.4218 2.09876 15.6387 2.46856 15.8423C2.79557 16.0224 3.10367 16.192 3.29356 16.192C3.38402 16.192 3.44773 16.1535 3.47382 16.0596C3.55219 15.7784 3.01774 15.5713 2.43346 15.3449C1.73221 15.0732 0.959178 14.7736 1.08763 14.2848C1.12916 14.1263 1.2418 14.0619 1.40009 14.0622C1.80576 14.0622 2.51067 14.4854 3.08418 14.8297C3.47747 15.0658 3.80897 15.2648 3.9398 15.2648C3.96437 15.2648 3.98198 15.2577 3.99155 15.2424C4.15267 14.9824 4.06439 14.8008 2.9287 14.1135C2.83969 14.0596 2.75276 14.0074 2.66834 13.9567C1.67574 13.3606 1.03141 12.9737 1.44924 12.5188C1.50142 12.4618 1.57535 12.4366 1.66515 12.4366C2.35466 12.4368 3.98372 13.9193 3.98372 13.9193C3.98372 13.9193 4.42339 14.3766 4.68931 14.3766C4.75042 14.3766 4.80238 14.3524 4.83761 14.2929C4.93254 14.1328 4.48782 13.6806 4.00891 13.1936C3.53681 12.7135 3.03148 12.1997 2.97719 11.8986C2.90304 11.4877 3.02916 11.2796 3.26247 11.2796ZM15.8862 11.4216C16.0356 11.3268 16.1711 11.2796 16.282 11.2796C16.5153 11.2796 16.6414 11.4877 16.5673 11.8986C16.513 12.1997 16.0076 12.7135 15.5355 13.1936C15.0566 13.6806 14.6119 14.1328 14.7068 14.2929C14.7421 14.3524 14.794 14.3766 14.8551 14.3766C15.1211 14.3766 15.5607 13.9193 15.5607 13.9193C15.5607 13.9193 17.1898 12.4368 17.8793 12.4366C17.9691 12.4366 18.043 12.4618 18.0952 12.5188C18.513 12.9737 17.8687 13.3606 16.8761 13.9567C16.7917 14.0074 16.7047 14.0596 16.6157 14.1135C15.48 14.8008 15.3918 14.9824 15.5529 15.2424C15.5625 15.2577 15.5801 15.2648 15.6046 15.2648C15.7355 15.2648 16.067 15.0658 16.4603 14.8297C17.0338 14.4854 17.7387 14.0622 18.1443 14.0622C18.3026 14.0619 18.4153 14.1263 18.4568 14.2848C18.5853 14.7736 17.8122 15.0732 17.111 15.3449C16.5267 15.5713 15.9922 15.7784 16.0706 16.0596C16.0967 16.1535 16.1604 16.192 16.2509 16.192C16.4408 16.192 16.7489 16.0224 17.0759 15.8423C17.4457 15.6387 17.8397 15.4218 18.1143 15.4218C18.2424 15.4218 18.3442 15.4688 18.4059 15.586C18.7734 16.2835 15.8721 17.1031 15.8486 17.1092C15.3715 17.2329 14.5203 17.4273 13.6899 17.4273C12.8892 17.4273 12.108 17.2466 11.6998 16.6482C11.1015 15.7706 11.1439 15.112 11.9649 14.2913C12.786 13.4709 13.2639 12.2707 13.2639 12.2707C13.2639 12.2707 13.427 11.6336 13.7966 11.6336C13.8136 11.6336 13.8312 11.6349 13.849 11.6377C14.2556 11.7018 14.5544 12.7436 13.7027 13.3809C13.1363 13.8045 13.3981 14.1378 13.7334 14.1378C13.9023 14.1378 14.09 14.053 14.1998 13.8526C14.5274 13.2542 15.4224 11.7158 15.8862 11.4216Z" fill="white"/>
</svg>
