<svg width="1186" height="73" viewBox="0 0 1186 73" fill="none" xmlns="http://www.w3.org/2000/svg">
<path d="M202.107 48L194.007 13H201.157L207.357 43.75H207.607L214.557 13H222.657L230.007 43.75H230.207L236.057 13H243.207L235.207 48H225.257L218.657 20.3H218.457L212.007 48H202.107ZM245.714 48V13H252.364V27.35H252.564C253.431 25.8167 254.564 24.65 255.964 23.85C257.364 23.0167 259.014 22.6 260.914 22.6C262.914 22.6 264.614 23.05 266.014 23.95C267.414 24.8167 268.481 26.1 269.214 27.8C269.947 29.5 270.314 31.6 270.314 34.1V48H263.614V34.7C263.614 32.6333 263.197 31.05 262.364 29.95C261.564 28.85 260.264 28.3 258.464 28.3C257.297 28.3 256.264 28.5833 255.364 29.15C254.464 29.6833 253.747 30.4667 253.214 31.5C252.714 32.5 252.464 33.7333 252.464 35.2V48H245.714ZM277.348 58L282.998 45.2H281.598L271.448 23.2H278.798L285.948 39.3H286.148L292.548 23.2H299.748L284.498 58H277.348ZM318.367 48L310.267 13H317.417L323.617 43.75H323.867L330.817 13H338.917L346.267 43.75H346.467L352.317 13H359.467L351.467 48H341.517L334.917 20.3H334.717L328.267 48H318.367ZM361.974 48V13H368.624V27.35H368.824C369.69 25.8167 370.824 24.65 372.224 23.85C373.624 23.0167 375.274 22.6 377.174 22.6C379.174 22.6 380.874 23.05 382.274 23.95C383.674 24.8167 384.74 26.1 385.474 27.8C386.207 29.5 386.574 31.6 386.574 34.1V48H379.874V34.7C379.874 32.6333 379.457 31.05 378.624 29.95C377.824 28.85 376.524 28.3 374.724 28.3C373.557 28.3 372.524 28.5833 371.624 29.15C370.724 29.6833 370.007 30.4667 369.474 31.5C368.974 32.5 368.724 33.7333 368.724 35.2V48H361.974ZM398.437 48.6C396.47 48.6 394.837 48.2667 393.537 47.6C392.27 46.9333 391.337 46.0333 390.737 44.9C390.137 43.7667 389.837 42.5167 389.837 41.15C389.837 39.6167 390.22 38.2667 390.987 37.1C391.787 35.9333 392.987 35.0333 394.587 34.4C396.187 33.7333 398.204 33.4 400.637 33.4H406.887C406.887 32.1667 406.704 31.15 406.337 30.35C406.004 29.55 405.47 28.95 404.737 28.55C404.037 28.15 403.137 27.95 402.037 27.95C400.737 27.95 399.62 28.25 398.687 28.85C397.787 29.4167 397.22 30.3167 396.987 31.55H390.437C390.637 29.7167 391.237 28.1333 392.237 26.8C393.27 25.4667 394.62 24.4333 396.287 23.7C397.987 22.9667 399.904 22.6 402.037 22.6C404.437 22.6 406.504 23 408.237 23.8C409.97 24.5667 411.304 25.7167 412.237 27.25C413.17 28.75 413.637 30.5833 413.637 32.75V48H408.037L407.337 44.15H407.137C406.604 44.8833 406.02 45.5333 405.387 46.1C404.787 46.6667 404.12 47.1333 403.387 47.5C402.654 47.8667 401.87 48.1333 401.037 48.3C400.204 48.5 399.337 48.6 398.437 48.6ZM400.637 43.4C401.57 43.4 402.37 43.25 403.037 42.95C403.737 42.6167 404.337 42.1833 404.837 41.65C405.337 41.1167 405.72 40.5 405.987 39.8C406.287 39.0667 406.487 38.3167 406.587 37.55H401.387C400.354 37.55 399.504 37.6833 398.837 37.95C398.204 38.1833 397.737 38.5333 397.437 39C397.137 39.4333 396.987 39.95 396.987 40.55C396.987 41.15 397.137 41.6667 397.437 42.1C397.737 42.5333 398.17 42.8667 398.737 43.1C399.304 43.3 399.937 43.4 400.637 43.4ZM428.395 48C426.628 48 425.078 47.7333 423.745 47.2C422.445 46.6333 421.428 45.7167 420.695 44.45C419.961 43.15 419.595 41.3833 419.595 39.15V28.6H415.345V23.2H419.595L420.345 16.45H426.345V23.2H432.945V28.6H426.345V39.25C426.345 40.45 426.595 41.2833 427.095 41.75C427.595 42.1833 428.445 42.4 429.645 42.4H432.795V48H428.395ZM445.61 48.6C443.41 48.6 441.46 48.2333 439.76 47.5C438.093 46.7667 436.743 45.7667 435.71 44.5C434.71 43.2 434.127 41.7333 433.96 40.1H440.71C440.843 40.7 441.11 41.2667 441.51 41.8C441.91 42.3333 442.443 42.7667 443.11 43.1C443.81 43.4 444.61 43.55 445.51 43.55C446.443 43.55 447.193 43.4333 447.76 43.2C448.327 42.9333 448.743 42.6 449.01 42.2C449.31 41.8 449.46 41.3667 449.46 40.9C449.46 40.2667 449.243 39.7833 448.81 39.45C448.41 39.0833 447.81 38.7667 447.01 38.5C446.243 38.2333 445.327 37.95 444.26 37.65C443.16 37.35 442.043 37.0333 440.91 36.7C439.81 36.3667 438.793 35.95 437.86 35.45C436.927 34.9167 436.177 34.25 435.61 33.45C435.077 32.6167 434.81 31.5833 434.81 30.35C434.81 28.9167 435.21 27.6167 436.01 26.45C436.81 25.2833 437.96 24.35 439.46 23.65C440.993 22.95 442.81 22.6 444.91 22.6C447.91 22.6 450.293 23.2833 452.06 24.65C453.86 26.0167 454.91 27.9 455.21 30.3H448.86C448.693 29.4667 448.26 28.8167 447.56 28.35C446.893 27.8833 446.01 27.65 444.91 27.65C443.743 27.65 442.843 27.8833 442.21 28.35C441.61 28.7833 441.31 29.3167 441.31 29.95C441.31 30.4167 441.51 30.8167 441.91 31.15C442.31 31.45 442.893 31.7333 443.66 32C444.46 32.2333 445.41 32.5 446.51 32.8C448.277 33.2667 449.893 33.7667 451.36 34.3C452.827 34.8333 453.993 35.5667 454.86 36.5C455.727 37.4 456.16 38.6833 456.16 40.35C456.193 41.95 455.777 43.3667 454.91 44.6C454.043 45.8333 452.827 46.8167 451.26 47.55C449.693 48.25 447.81 48.6 445.61 48.6ZM457.386 48L468.486 13H479.536L490.586 48H483.436L474.136 16.95H473.936L464.436 48H457.386ZM463.036 37.95L464.786 32.7H482.636L484.386 37.95H463.036ZM493.077 58V23.2H498.727L499.127 27.55H499.327C499.96 26.5167 500.71 25.6333 501.577 24.9C502.477 24.1667 503.494 23.6 504.627 23.2C505.794 22.8 507.06 22.6 508.427 22.6C510.794 22.6 512.844 23.1667 514.577 24.3C516.31 25.4 517.66 26.9333 518.627 28.9C519.594 30.8667 520.077 33.1 520.077 35.6C520.077 38.1 519.594 40.3333 518.627 42.3C517.66 44.2667 516.294 45.8167 514.527 46.95C512.76 48.05 510.66 48.6 508.227 48.6C506.294 48.6 504.61 48.2333 503.177 47.5C501.777 46.7333 500.66 45.8333 499.827 44.8V58H493.077ZM506.477 43.1C507.844 43.1 509.027 42.7833 510.027 42.15C511.06 41.5167 511.844 40.65 512.377 39.55C512.944 38.4167 513.227 37.1167 513.227 35.65C513.227 34.15 512.944 32.85 512.377 31.75C511.844 30.6167 511.06 29.7333 510.027 29.1C509.027 28.4667 507.844 28.15 506.477 28.15C505.144 28.15 503.96 28.4667 502.927 29.1C501.894 29.7333 501.094 30.6167 500.527 31.75C499.96 32.85 499.677 34.15 499.677 35.65C499.677 37.1167 499.96 38.4167 500.527 39.55C501.094 40.65 501.894 41.5167 502.927 42.15C503.96 42.7833 505.144 43.1 506.477 43.1ZM523.595 58V23.2H529.245L529.645 27.55H529.845C530.478 26.5167 531.228 25.6333 532.095 24.9C532.995 24.1667 534.011 23.6 535.145 23.2C536.311 22.8 537.578 22.6 538.945 22.6C541.311 22.6 543.361 23.1667 545.095 24.3C546.828 25.4 548.178 26.9333 549.145 28.9C550.111 30.8667 550.595 33.1 550.595 35.6C550.595 38.1 550.111 40.3333 549.145 42.3C548.178 44.2667 546.811 45.8167 545.045 46.95C543.278 48.05 541.178 48.6 538.745 48.6C536.811 48.6 535.128 48.2333 533.695 47.5C532.295 46.7333 531.178 45.8333 530.345 44.8V58H523.595ZM536.995 43.1C538.361 43.1 539.545 42.7833 540.545 42.15C541.578 41.5167 542.361 40.65 542.895 39.55C543.461 38.4167 543.745 37.1167 543.745 35.65C543.745 34.15 543.461 32.85 542.895 31.75C542.361 30.6167 541.578 29.7333 540.545 29.1C539.545 28.4667 538.361 28.15 536.995 28.15C535.661 28.15 534.478 28.4667 533.445 29.1C532.411 29.7333 531.611 30.6167 531.045 31.75C530.478 32.85 530.195 34.15 530.195 35.65C530.195 37.1167 530.478 38.4167 531.045 39.55C531.611 40.65 532.411 41.5167 533.445 42.15C534.478 42.7833 535.661 43.1 536.995 43.1ZM564.122 48V13H573.022L582.972 36.2H583.172L593.022 13H601.872V48H595.122V23.6H594.922L586.422 43H579.472L571.072 23.6H570.872V48H564.122ZM614.208 48.6C612.242 48.6 610.608 48.2667 609.308 47.6C608.042 46.9333 607.108 46.0333 606.508 44.9C605.908 43.7667 605.608 42.5167 605.608 41.15C605.608 39.6167 605.992 38.2667 606.758 37.1C607.558 35.9333 608.758 35.0333 610.358 34.4C611.958 33.7333 613.975 33.4 616.408 33.4H622.658C622.658 32.1667 622.475 31.15 622.108 30.35C621.775 29.55 621.242 28.95 620.508 28.55C619.808 28.15 618.908 27.95 617.808 27.95C616.508 27.95 615.392 28.25 614.458 28.85C613.558 29.4167 612.992 30.3167 612.758 31.55H606.208C606.408 29.7167 607.008 28.1333 608.008 26.8C609.042 25.4667 610.392 24.4333 612.058 23.7C613.758 22.9667 615.675 22.6 617.808 22.6C620.208 22.6 622.275 23 624.008 23.8C625.742 24.5667 627.075 25.7167 628.008 27.25C628.942 28.75 629.408 30.5833 629.408 32.75V48H623.808L623.108 44.15H622.908C622.375 44.8833 621.792 45.5333 621.158 46.1C620.558 46.6667 619.892 47.1333 619.158 47.5C618.425 47.8667 617.642 48.1333 616.808 48.3C615.975 48.5 615.108 48.6 614.208 48.6ZM616.408 43.4C617.342 43.4 618.142 43.25 618.808 42.95C619.508 42.6167 620.108 42.1833 620.608 41.65C621.108 41.1167 621.492 40.5 621.758 39.8C622.058 39.0667 622.258 38.3167 622.358 37.55H617.158C616.125 37.55 615.275 37.6833 614.608 37.95C613.975 38.1833 613.508 38.5333 613.208 39C612.908 39.4333 612.758 39.95 612.758 40.55C612.758 41.15 612.908 41.6667 613.208 42.1C613.508 42.5333 613.942 42.8667 614.508 43.1C615.075 43.3 615.708 43.4 616.408 43.4ZM633.159 48V23.2H638.909L639.509 28.65H639.709C640.443 26.8833 641.243 25.5833 642.109 24.75C642.976 23.8833 643.959 23.3167 645.059 23.05C646.193 22.75 647.459 22.6 648.859 22.6V29.75H647.009C645.876 29.75 644.859 29.8833 643.959 30.15C643.093 30.3833 642.359 30.7833 641.759 31.35C641.159 31.8833 640.693 32.6 640.359 33.5C640.059 34.4 639.909 35.4833 639.909 36.75V48H633.159ZM667.978 48L657.128 34.35L666.678 23.2H674.678L662.328 37.15L662.278 31.8L676.328 48H667.978ZM651.378 48V13H658.128V48H651.378ZM688.67 48.6C686.136 48.6 683.886 48.0667 681.92 47C679.986 45.9333 678.47 44.4333 677.37 42.5C676.27 40.5667 675.72 38.35 675.72 35.85C675.72 33.25 676.253 30.9667 677.32 29C678.42 27 679.936 25.4333 681.87 24.3C683.836 23.1667 686.103 22.6 688.67 22.6C691.17 22.6 693.353 23.1333 695.22 24.2C697.086 25.2667 698.553 26.7333 699.62 28.6C700.686 30.4333 701.22 32.5167 701.22 34.85C701.22 35.1833 701.203 35.5667 701.17 36C701.17 36.4 701.153 36.8167 701.12 37.25H680.52V33.1H694.37C694.27 31.5333 693.686 30.2833 692.62 29.35C691.586 28.4167 690.286 27.95 688.72 27.95C687.553 27.95 686.486 28.2167 685.52 28.75C684.553 29.25 683.786 30.0333 683.22 31.1C682.653 32.1333 682.37 33.45 682.37 35.05V36.5C682.37 37.8667 682.636 39.05 683.17 40.05C683.703 41.0167 684.436 41.7667 685.37 42.3C686.336 42.8333 687.42 43.1 688.62 43.1C689.853 43.1 690.886 42.8333 691.72 42.3C692.553 41.7333 693.186 41.0167 693.62 40.15H700.47C700.003 41.7167 699.22 43.15 698.12 44.45C697.02 45.7167 695.67 46.7333 694.07 47.5C692.47 48.2333 690.67 48.6 688.67 48.6ZM715.162 48C713.396 48 711.846 47.7333 710.512 47.2C709.212 46.6333 708.196 45.7167 707.462 44.45C706.729 43.15 706.362 41.3833 706.362 39.15V28.6H702.112V23.2H706.362L707.112 16.45H713.112V23.2H719.712V28.6H713.112V39.25C713.112 40.45 713.362 41.2833 713.862 41.75C714.362 42.1833 715.212 42.4 716.412 42.4H719.562V48H715.162ZM722.778 48V23.2H729.528V48H722.778ZM726.178 20.05C724.944 20.05 723.928 19.7 723.128 19C722.361 18.2667 721.978 17.35 721.978 16.25C721.978 15.15 722.361 14.2333 723.128 13.5C723.928 12.7667 724.944 12.4 726.178 12.4C727.411 12.4 728.411 12.7667 729.178 13.5C729.944 14.2333 730.328 15.15 730.328 16.25C730.328 17.3167 729.944 18.2167 729.178 18.95C728.411 19.6833 727.411 20.05 726.178 20.05ZM734.331 48V23.2H740.081L740.681 27.25H740.881C741.681 25.7833 742.764 24.65 744.131 23.85C745.498 23.0167 747.214 22.6 749.281 22.6C751.348 22.6 753.098 23.05 754.531 23.95C755.964 24.8167 757.048 26.1 757.781 27.8C758.548 29.5 758.931 31.6 758.931 34.1V48H752.181V34.7C752.181 32.6333 751.764 31.05 750.931 29.95C750.098 28.85 748.781 28.3 746.981 28.3C745.848 28.3 744.831 28.5833 743.931 29.15C743.031 29.6833 742.331 30.4667 741.831 31.5C741.331 32.5 741.081 33.7333 741.081 35.2V48H734.331ZM774.35 58.6C771.984 58.6 769.9 58.3167 768.1 57.75C766.334 57.1833 764.95 56.3333 763.95 55.2C762.984 54.1 762.5 52.7667 762.5 51.2C762.5 50.0333 762.8 48.9667 763.4 48C764 47 764.884 46.1 766.05 45.3C767.217 44.4667 768.65 43.75 770.35 43.15L772.8 46.5C771.334 47 770.267 47.6 769.6 48.3C768.934 49 768.6 49.8 768.6 50.7C768.6 51.3667 768.834 51.9333 769.3 52.4C769.8 52.8667 770.484 53.2167 771.35 53.45C772.217 53.7167 773.217 53.85 774.35 53.85C775.484 53.85 776.434 53.7167 777.2 53.45C777.967 53.1833 778.55 52.8 778.95 52.3C779.35 51.8333 779.55 51.2833 779.55 50.65C779.55 49.75 779.234 49.05 778.6 48.55C777.967 48.0833 776.734 47.7833 774.9 47.65C773.2 47.5167 771.7 47.3333 770.4 47.1C769.1 46.8333 767.95 46.5333 766.95 46.2C765.984 45.8333 765.15 45.4333 764.45 45C763.75 44.5667 763.184 44.1333 762.75 43.7V42.55L768.1 37.05L772.05 38.55L766.65 44.55L768.45 41.55C768.784 41.6833 769.134 41.8167 769.5 41.95C769.867 42.0833 770.317 42.2167 770.85 42.35C771.417 42.4833 772.117 42.6167 772.95 42.75C773.817 42.85 774.9 42.9667 776.2 43.1C778.4 43.2667 780.2 43.65 781.6 44.25C783 44.85 784.034 45.6667 784.7 46.7C785.367 47.7333 785.7 49 785.7 50.5C785.7 51.8 785.284 53.0667 784.45 54.3C783.65 55.5667 782.417 56.6 780.75 57.4C779.084 58.2 776.95 58.6 774.35 58.6ZM774.4 40.65C772.3 40.65 770.484 40.25 768.95 39.45C767.45 38.65 766.284 37.5667 765.45 36.2C764.65 34.8333 764.25 33.3167 764.25 31.65C764.25 29.9833 764.65 28.4667 765.45 27.1C766.284 25.7333 767.45 24.65 768.95 23.85C770.484 23.0167 772.3 22.6 774.4 22.6C776.5 22.6 778.3 23.0167 779.8 23.85C781.334 24.65 782.5 25.7333 783.3 27.1C784.1 28.4667 784.5 29.9833 784.5 31.65C784.5 33.3167 784.1 34.8333 783.3 36.2C782.5 37.5667 781.334 38.65 779.8 39.45C778.3 40.25 776.5 40.65 774.4 40.65ZM774.35 35.75C775.684 35.75 776.75 35.4167 777.55 34.75C778.384 34.05 778.8 33.0167 778.8 31.65C778.8 30.2833 778.384 29.2667 777.55 28.6C776.75 27.9 775.7 27.55 774.4 27.55C773.067 27.55 771.984 27.9 771.15 28.6C770.35 29.2667 769.95 30.2833 769.95 31.65C769.95 33.0167 770.35 34.05 771.15 34.75C771.984 35.4167 773.05 35.75 774.35 35.75ZM778.45 27.75L777.35 23.2H787.75V26.85L778.45 27.75ZM801.879 48V23.2H808.629V48H801.879ZM805.279 20.05C804.046 20.05 803.029 19.7 802.229 19C801.462 18.2667 801.079 17.35 801.079 16.25C801.079 15.15 801.462 14.2333 802.229 13.5C803.029 12.7667 804.046 12.4 805.279 12.4C806.512 12.4 807.512 12.7667 808.279 13.5C809.046 14.2333 809.429 15.15 809.429 16.25C809.429 17.3167 809.046 18.2167 808.279 18.95C807.512 19.6833 806.512 20.05 805.279 20.05ZM813.433 48V23.2H819.183L819.783 27.25H819.983C820.783 25.7833 821.866 24.65 823.233 23.85C824.599 23.0167 826.316 22.6 828.383 22.6C830.449 22.6 832.199 23.05 833.633 23.95C835.066 24.8167 836.149 26.1 836.883 27.8C837.649 29.5 838.033 31.6 838.033 34.1V48H831.283V34.7C831.283 32.6333 830.866 31.05 830.033 29.95C829.199 28.85 827.883 28.3 826.083 28.3C824.949 28.3 823.933 28.5833 823.033 29.15C822.133 29.6833 821.433 30.4667 820.933 31.5C820.433 32.5 820.183 33.7333 820.183 35.2V48H813.433ZM851.112 48V43.05C853.245 41.35 855.295 39.65 857.262 37.95C859.262 36.25 861.062 34.5667 862.662 32.9C864.262 31.2 865.512 29.55 866.412 27.95C867.345 26.35 867.812 24.8 867.812 23.3C867.812 22.3667 867.645 21.5167 867.312 20.75C866.978 19.95 866.462 19.3167 865.762 18.85C865.062 18.35 864.128 18.1 862.962 18.1C861.828 18.1 860.862 18.3667 860.062 18.9C859.262 19.4333 858.662 20.15 858.262 21.05C857.862 21.9167 857.662 22.9 857.662 24H851.162C851.228 21.4333 851.795 19.2833 852.862 17.55C853.928 15.8167 855.362 14.5333 857.162 13.7C858.962 12.8333 860.962 12.4 863.162 12.4C865.628 12.4 867.695 12.8667 869.362 13.8C871.062 14.7 872.345 15.9333 873.212 17.5C874.112 19.0667 874.562 20.8667 874.562 22.9C874.562 24.4333 874.278 25.9333 873.712 27.4C873.178 28.8667 872.428 30.3 871.462 31.7C870.495 33.0667 869.395 34.3833 868.162 35.65C866.928 36.9167 865.645 38.1333 864.312 39.3C863.012 40.4333 861.745 41.5 860.512 42.5H875.412V48H851.112ZM893.822 48.6C890.588 48.6 887.805 47.8333 885.472 46.3C883.138 44.7667 881.338 42.65 880.072 39.95C878.838 37.2167 878.222 34.0667 878.222 30.5C878.222 26.9333 878.838 23.8 880.072 21.1C881.338 18.3667 883.122 16.2333 885.422 14.7C887.755 13.1667 890.555 12.4 893.822 12.4C897.055 12.4 899.822 13.1667 902.122 14.7C904.455 16.2333 906.238 18.3667 907.472 21.1C908.738 23.8 909.372 26.9333 909.372 30.5C909.372 34.0667 908.738 37.2167 907.472 39.95C906.238 42.65 904.455 44.7667 902.122 46.3C899.822 47.8333 897.055 48.6 893.822 48.6ZM893.822 42.55C895.522 42.55 897.022 42.0667 898.322 41.1C899.655 40.1 900.672 38.7 901.372 36.9C902.105 35.1 902.472 32.9667 902.472 30.5C902.472 28 902.105 25.8667 901.372 24.1C900.672 22.3 899.655 20.9167 898.322 19.95C897.022 18.9833 895.522 18.5 893.822 18.5C892.122 18.5 890.605 18.9833 889.272 19.95C887.972 20.9167 886.955 22.3 886.222 24.1C885.488 25.8667 885.122 28 885.122 30.5C885.122 32.9667 885.488 35.1 886.222 36.9C886.955 38.7 887.972 40.1 889.272 41.1C890.605 42.0667 892.122 42.55 893.822 42.55ZM912.244 48V43.05C914.378 41.35 916.428 39.65 918.394 37.95C920.394 36.25 922.194 34.5667 923.794 32.9C925.394 31.2 926.644 29.55 927.544 27.95C928.478 26.35 928.944 24.8 928.944 23.3C928.944 22.3667 928.778 21.5167 928.444 20.75C928.111 19.95 927.594 19.3167 926.894 18.85C926.194 18.35 925.261 18.1 924.094 18.1C922.961 18.1 921.994 18.3667 921.194 18.9C920.394 19.4333 919.794 20.15 919.394 21.05C918.994 21.9167 918.794 22.9 918.794 24H912.294C912.361 21.4333 912.928 19.2833 913.994 17.55C915.061 15.8167 916.494 14.5333 918.294 13.7C920.094 12.8333 922.094 12.4 924.294 12.4C926.761 12.4 928.828 12.8667 930.494 13.8C932.194 14.7 933.478 15.9333 934.344 17.5C935.244 19.0667 935.694 20.8667 935.694 22.9C935.694 24.4333 935.411 25.9333 934.844 27.4C934.311 28.8667 933.561 30.3 932.594 31.7C931.628 33.0667 930.528 34.3833 929.294 35.65C928.061 36.9167 926.778 38.1333 925.444 39.3C924.144 40.4333 922.878 41.5 921.644 42.5H936.544V48H912.244ZM951.9 48.6C949.333 48.6 947.116 48.15 945.25 47.25C943.383 46.3167 941.916 45.0667 940.85 43.5C939.816 41.9 939.216 40.1 939.05 38.1H945.65C945.916 39.4333 946.616 40.5667 947.75 41.5C948.883 42.4 950.266 42.85 951.9 42.85C953.1 42.85 954.15 42.55 955.05 41.95C955.983 41.35 956.7 40.5333 957.2 39.5C957.7 38.4333 957.95 37.2667 957.95 36C957.95 34.6333 957.683 33.4667 957.15 32.5C956.65 31.5 955.95 30.75 955.05 30.25C954.15 29.7167 953.116 29.45 951.95 29.45C950.55 29.45 949.316 29.8 948.25 30.5C947.183 31.2 946.45 32.0833 946.05 33.15H939.55L942.55 13H962.1V18.9H947.55L946.05 26.6C946.783 25.8333 947.766 25.2 949 24.7C950.233 24.2 951.616 23.95 953.15 23.95C955.05 23.95 956.7 24.2833 958.1 24.95C959.5 25.5833 960.666 26.4667 961.6 27.6C962.566 28.7333 963.283 30.0167 963.75 31.45C964.25 32.8833 964.5 34.3667 964.5 35.9C964.5 37.7667 964.183 39.4833 963.55 41.05C962.95 42.5833 962.083 43.9167 960.95 45.05C959.85 46.1833 958.516 47.0667 956.95 47.7C955.416 48.3 953.733 48.6 951.9 48.6ZM972.279 36.95L972.029 28.65H974.429C975.663 28.65 976.829 28.5667 977.929 28.4C979.029 28.2333 979.979 27.95 980.779 27.55C981.613 27.15 982.263 26.5667 982.729 25.8C983.196 25.0333 983.429 24.0667 983.429 22.9C983.429 21.8667 983.213 20.9833 982.779 20.25C982.379 19.5167 981.796 18.95 981.029 18.55C980.296 18.15 979.429 17.95 978.429 17.95C977.396 17.95 976.496 18.1667 975.729 18.6C974.963 19 974.363 19.5667 973.929 20.3C973.529 21 973.329 21.85 973.329 22.85H966.979C966.946 20.85 967.379 19.0667 968.279 17.5C969.179 15.9333 970.496 14.7 972.229 13.8C973.963 12.8667 976.046 12.4 978.479 12.4C980.746 12.4 982.746 12.8167 984.479 13.65C986.213 14.45 987.563 15.6333 988.529 17.2C989.496 18.7667 989.979 20.6667 989.979 22.9C989.979 25.1667 989.479 27.0667 988.479 28.6C987.513 30.1 986.146 31.2167 984.379 31.95C982.646 32.6833 980.629 33.0667 978.329 33.1L978.029 36.95H972.279ZM975.179 48.25C973.979 48.25 972.979 47.8833 972.179 47.15C971.413 46.3833 971.029 45.4667 971.029 44.4C971.029 43.3 971.413 42.3833 972.179 41.65C972.979 40.8833 973.979 40.5 975.179 40.5C976.379 40.5 977.363 40.8833 978.129 41.65C978.896 42.3833 979.279 43.3 979.279 44.4C979.279 45.4667 978.896 46.3833 978.129 47.15C977.363 47.8833 976.379 48.25 975.179 48.25Z" fill="black"/>
</svg>
